M48
;Layer_Color=9474304
;FILE_FORMAT=2:5
INCH,LZ
;TYPE=PLATED
T1F00S00C0.01181
T2F00S00C0.03543
T3F00S00C0.04016
T4F00S00C0.04724
T5F00S00C0.12598
;TYPE=NON_PLATED
T6F00S00C0.03543
%
T01
X0044882Y-006437
X0048228Y-0022835
X005748Y-001063
X0061181Y0004528
X0068071
Y0011417
X0061181
X0064567Y002126
X0069685Y0023228
X0077716Y0017559
X0087795Y0031496
X0112205Y0027165
X0108898Y0017559
X0117323Y0009685
X012874Y0005906
X0129528Y0028346
X0136221Y0032677
X0137795Y004214
X0110236Y0040551
X0102756Y0059842
Y0003937
X0096949Y-0011319
X009685Y-0016535
Y-0027362
X0111811Y-0035433
X0113779Y-005
X0113961Y-0054331
X0109547Y-0054823
X0104528Y-0045669
X0124803Y-0043937
X0135039Y-003937
X013622Y-0047638
X0139764Y-004975
X013937Y-0052756
X0135827Y-0029528
X0137992Y-0024311
X0127756Y-0025787
X0125787Y-0023819
X0119574Y-0015802
X0112992Y-0011417
X0072244Y-0025984
X0051575Y000748
X0047816Y0004921
X0045669Y0026772
X0066535Y003937
X0022047Y-0005512
X0012992Y-0025787
X0151575Y-0029921
X0156299Y-003937
X0151969Y-0047638
X0148819Y-0046063
X0146653Y-0043701
X0146063Y-0055512
X0162402Y-0053937
X0155315Y-0064961
X0178543Y-0060039
X0186221Y-0039764
X0189961Y-0033858
X018248Y-0033752
X0182087Y-0025984
X0184252Y-0016929
X0188583Y-000748
X0178543Y0005906
X0185433Y0015354
X0183661Y0024409
X0198425Y0019291
X0205118Y0025984
X0203543Y004214
X0175591Y00409
X0162598Y0010236
X0164461Y-0000106
X0147673Y000748
X014685Y-0010846
X0205906Y-0014173
X020748Y-0025197
Y-0033858
X0201968Y-0036221
X0227953Y-0029921
X0238583
Y-0018937
X0227953Y-0018898
X0253543Y-0020472
X0249213Y0005118
X0235039Y0029921
X0242835Y0058268
X0205906Y0005906
X0279724Y-0031102
X0297244Y-0038937
X0289567Y-0062008
X0324409Y-0005118
X0327559Y0003543
X0354724Y0005118
X0367717Y0024803
X0372047Y0032283
T02
X001752Y-0009843
Y0009843
T03
X033563Y-0015079
Y-0005079
Y0004921
Y0014921
T04
X000689Y-001378
Y001378
T05
X0019685Y-0062992
X0031496Y0055118
X042126Y-0055118
X0433071Y0062992
T06
X0163779Y-007126
X0175591
M30
