G04*
G04 #@! TF.GenerationSoftware,Altium Limited,Altium Designer,18.1.9 (240)*
G04*
G04 Layer_Physical_Order=1*
G04 Layer_Color=255*
%FSLAX25Y25*%
%MOIN*%
G70*
G01*
G75*
%ADD11C,0.00787*%
%ADD15C,0.01000*%
%ADD16R,0.07677X0.09646*%
%ADD17O,0.00787X0.03543*%
%ADD18R,0.02756X0.05118*%
%ADD19R,0.19685X0.19685*%
%ADD20R,0.07874X0.03543*%
%ADD21R,0.03543X0.07874*%
%ADD22R,0.05118X0.02756*%
%ADD23R,0.07874X0.03937*%
%ADD24R,0.01063X0.03976*%
%ADD25R,0.03976X0.01063*%
%ADD26R,0.12795X0.12795*%
%ADD27R,0.06693X0.06693*%
%ADD28R,0.00787X0.02953*%
%ADD29R,0.02953X0.00787*%
%ADD30R,0.03150X0.03150*%
%ADD31R,0.03543X0.06299*%
%ADD32R,0.03543X0.02362*%
%ADD33R,0.05118X0.06102*%
%ADD34R,0.03543X0.05118*%
%ADD35R,0.06299X0.06299*%
%ADD36O,0.02362X0.00984*%
%ADD37R,0.02362X0.00984*%
%ADD38R,0.00984X0.02362*%
%ADD39R,0.03150X0.03543*%
%ADD40O,0.02756X0.00787*%
%ADD41R,0.02756X0.00787*%
%ADD42R,0.00787X0.01772*%
%ADD43R,0.00945X0.02362*%
%ADD44R,0.09400X0.06500*%
%ADD45R,0.04724X0.02362*%
%ADD46O,0.04724X0.02362*%
%ADD47R,0.02362X0.04724*%
%ADD48R,0.02165X0.05906*%
%ADD49R,0.02756X0.01181*%
%ADD50R,0.05118X0.03543*%
%ADD51R,0.02362X0.03543*%
%ADD52R,0.02402X0.04646*%
%ADD53R,0.03150X0.03150*%
%ADD54R,0.06299X0.03543*%
%ADD55R,0.04646X0.02402*%
%ADD56R,0.02756X0.05906*%
%ADD57R,0.03937X0.03150*%
%ADD58R,0.03150X0.01181*%
%ADD103O,0.02559X0.03740*%
%ADD104C,0.02559*%
%ADD107C,0.01181*%
%ADD108C,0.01968*%
%ADD109C,0.06000*%
G04:AMPARAMS|DCode=110|XSize=55.12mil|YSize=31.5mil|CornerRadius=15.75mil|HoleSize=0mil|Usage=FLASHONLY|Rotation=0.000|XOffset=0mil|YOffset=0mil|HoleType=Round|Shape=RoundedRectangle|*
%AMROUNDEDRECTD110*
21,1,0.05512,0.00000,0,0,0.0*
21,1,0.02362,0.03150,0,0,0.0*
1,1,0.03150,0.01181,0.00000*
1,1,0.03150,-0.01181,0.00000*
1,1,0.03150,-0.01181,0.00000*
1,1,0.03150,0.01181,0.00000*
%
%ADD110ROUNDEDRECTD110*%
%ADD111C,0.03543*%
%ADD112C,0.23622*%
%ADD113C,0.02362*%
D11*
X231575Y-75512D02*
X264764D01*
X248573Y-72835D02*
X254380Y-67027D01*
X229705Y-72835D02*
X248573D01*
X42244Y-60059D02*
X48228D01*
X48673Y-62134D02*
X50748Y-60059D01*
X41385Y-62134D02*
X48673D01*
X41259Y-62008D02*
X41385Y-62134D01*
X28740Y-62008D02*
X41259D01*
X29403Y-63608D02*
X50132D01*
X52716Y-61024D01*
X48228Y-60059D02*
X48779Y-59508D01*
Y-56535D01*
X263483Y-107283D02*
X301870D01*
X223917Y-98327D02*
Y-93508D01*
X198659Y-90854D02*
X229941D01*
X230906Y-91819D01*
Y-93504D02*
Y-91819D01*
X186029Y-103484D02*
X198659Y-90854D01*
X228642Y-95768D02*
X230906Y-93504D01*
X332087Y-55118D02*
X333299Y-56330D01*
X185024Y-101984D02*
X197441Y-89567D01*
X227067Y-98327D02*
Y-93937D01*
X195528Y-87976D02*
X253461D01*
X183791Y-99713D02*
X195528Y-87976D01*
X197441Y-89567D02*
X240157D01*
X230906Y-95768D02*
X232283D01*
X185558Y-118012D02*
X189961D01*
X210039Y-98819D02*
X212795Y-101575D01*
Y-112894D02*
Y-109055D01*
Y-112894D02*
X213583Y-113681D01*
X215551D01*
X199803Y-116142D02*
X215551D01*
X196850Y-113189D02*
X199803Y-116142D01*
X218228Y-140685D02*
X221118Y-137795D01*
X218228Y-149606D02*
Y-140685D01*
X213504Y-154331D02*
X218228Y-149606D01*
X175710Y-154331D02*
X213504D01*
X174705Y-153325D02*
X175710Y-154331D01*
X174705Y-153325D02*
Y-149606D01*
X178150Y-146161D01*
Y-137795D01*
X170669Y-130315D02*
X178150Y-137795D01*
X170669Y-130315D02*
Y-118898D01*
X178248Y-118012D02*
X185558D01*
X177362Y-118898D02*
X178248Y-118012D01*
X170669Y-118898D02*
X177362D01*
X143701Y-91398D02*
X144823Y-92520D01*
X150394D01*
X167990Y-78029D02*
X168701Y-78740D01*
Y-82087D02*
Y-78740D01*
X166142Y-76181D02*
X167990Y-78029D01*
X171127D01*
X172638Y-79540D01*
Y-82087D02*
Y-79540D01*
X60039Y-82087D02*
X61614Y-83661D01*
X60039Y-82087D02*
Y-78937D01*
X63779Y-75197D01*
X67913D01*
X33110Y-94488D02*
X35433D01*
X36417Y-95473D01*
X40000D01*
X43307Y-73819D02*
X43307Y-73819D01*
X40000Y-73819D02*
X43307D01*
X36614D02*
X40000D01*
X35630Y-72835D02*
X36614Y-73819D01*
X33110Y-72835D02*
X35630D01*
X25591Y-121699D02*
X26458Y-122567D01*
X22638Y-125984D02*
Y-92461D01*
X28484Y-86614D01*
X26458Y-122567D02*
X28543D01*
X63248Y-124872D02*
X67913D01*
X61024Y-122648D02*
X63248Y-124872D01*
X56102Y-122648D02*
X61024D01*
X56102Y-124223D02*
X60039D01*
X62191Y-126374D01*
X59055Y-125797D02*
X59842Y-126585D01*
X56102Y-125797D02*
X59055D01*
X59842Y-134055D02*
Y-126585D01*
X62191Y-134433D02*
Y-126374D01*
X45276Y-141732D02*
Y-139803D01*
X50374Y-134705D01*
Y-128376D01*
X50132Y-140748D02*
Y-137053D01*
X51949Y-135236D01*
Y-128376D01*
X48799Y-133839D02*
Y-128376D01*
X43858Y-138779D02*
X48799Y-133839D01*
X47224Y-131890D02*
Y-128376D01*
X45276Y-133839D02*
X47224Y-131890D01*
X106299Y-109547D02*
Y-106528D01*
X101378Y-113681D02*
X106102D01*
X257833Y-101633D02*
Y-99469D01*
Y-101633D02*
X263483Y-107283D01*
X257833Y-99469D02*
X258484Y-98818D01*
Y-93000D01*
X254380Y-101494D02*
Y-98327D01*
Y-101494D02*
X258484Y-105598D01*
Y-106408D02*
Y-105598D01*
X253461Y-87976D02*
X258484Y-93000D01*
X250984Y-110834D02*
Y-107283D01*
X249705Y-106004D02*
X250984Y-107283D01*
X247753Y-106004D02*
X249705D01*
X236663Y-100819D02*
X241848Y-106004D01*
X236663Y-100819D02*
Y-98327D01*
X326772Y-75512D02*
X331693D01*
X324803Y-73543D02*
X326772Y-75512D01*
X324803Y-73543D02*
Y-68386D01*
X318425Y-62008D02*
X324803Y-68386D01*
X310740Y-62008D02*
X318425D01*
X356241Y-52894D02*
Y-47244D01*
Y-55374D02*
Y-52894D01*
X354528Y-57087D02*
X356241Y-55374D01*
X344716Y-56330D02*
X347441Y-59055D01*
X333299Y-56330D02*
X344716D01*
X331693Y-55512D02*
X332087Y-55118D01*
X347441Y-125984D02*
Y-59055D01*
X321627Y-70839D02*
X322835Y-72047D01*
X311681Y-70839D02*
X321627D01*
X305748Y-76772D02*
X311681Y-70839D01*
X288386Y-76772D02*
X305748D01*
X271654Y-93504D02*
X288386Y-76772D01*
X271654Y-103484D02*
Y-93504D01*
X240059Y-67027D02*
X245079Y-62008D01*
X236663Y-67027D02*
X240059D01*
X224626Y-85377D02*
Y-80512D01*
Y-85377D02*
X225529Y-86279D01*
X227067D01*
X228642Y-84705D01*
Y-73898D01*
X229705Y-72835D01*
X248031Y-93508D02*
X249321Y-94797D01*
X237909Y-93508D02*
X248031D01*
X230906Y-93504D02*
X235414D01*
X235804Y-93894D01*
X237523D01*
X237909Y-93508D01*
X237905Y-91819D02*
X240157Y-89567D01*
X236663Y-91819D02*
X237905D01*
X44189Y-119041D02*
X44646Y-119498D01*
X42270Y-119041D02*
X44189D01*
X352756Y-57087D02*
X354528D01*
X351535Y-58307D02*
X352756Y-57087D01*
X351535Y-64134D02*
Y-58307D01*
Y-64134D02*
X355315Y-67913D01*
X348941Y-126606D02*
Y-68898D01*
X354331Y-62992D02*
X354331Y-62992D01*
X366535D01*
X368504Y-61024D01*
X351535Y-77913D02*
X368307D01*
X350394Y-76772D02*
X351535Y-77913D01*
X249321Y-102413D02*
Y-94797D01*
X248569Y-89567D02*
X250821Y-91819D01*
Y-101792D02*
X255437Y-106408D01*
Y-126500D02*
Y-106408D01*
X249321Y-102413D02*
X253937Y-107030D01*
Y-127121D02*
Y-107030D01*
X250821Y-101792D02*
Y-91819D01*
X350394Y-76772D02*
Y-70350D01*
X331693Y-45512D02*
X337835D01*
X340551Y-48228D01*
X17717Y-45512D02*
X19193Y-44035D01*
X22638D01*
X46669Y-86984D02*
X48268Y-88583D01*
X46669Y-86984D02*
Y-85053D01*
X43310Y-81693D02*
X46669Y-85053D01*
X40000Y-81693D02*
X43310D01*
X343504Y-40512D02*
X347598Y-36417D01*
X356496D01*
X211614Y-147362D02*
Y-137795D01*
X209370Y-149606D02*
X211614Y-147362D01*
X206496Y-149606D02*
X209370D01*
X231299Y-75787D02*
X231575Y-75512D01*
X147638Y-111221D02*
X152362Y-115945D01*
Y-149803D02*
Y-115945D01*
Y-149803D02*
X160039Y-157480D01*
X253543D01*
X256693Y-154331D02*
Y-152362D01*
X253543Y-157480D02*
X256693Y-154331D01*
X253937Y-149606D02*
X256693Y-152362D01*
X248819Y-149606D02*
X253937D01*
X127953Y-108787D02*
X155834D01*
X126969Y-106299D02*
X160433D01*
X123058Y-113681D02*
X127953Y-108787D01*
X121161Y-112106D02*
X126969Y-106299D01*
X253937Y-149606D02*
X262795D01*
X324803Y-80512D02*
X331693D01*
X322835Y-78543D02*
X324803Y-80512D01*
X322835Y-78543D02*
Y-72047D01*
X16732Y-54134D02*
X22835D01*
X30315D02*
X31496D01*
X36402Y-49228D01*
X41441D01*
X41457Y-49213D01*
X35669Y-45276D02*
X41457D01*
X50748Y-60059D02*
Y-56535D01*
X320728Y-99449D02*
Y-87461D01*
X319882Y-86614D02*
X320728Y-87461D01*
X36417Y-42323D02*
Y-41673D01*
Y-42323D02*
X37402Y-43307D01*
X41457D01*
X324153Y-85512D02*
X331693D01*
X315945Y-77303D02*
X324153Y-85512D01*
X315945Y-77303D02*
Y-73819D01*
X111024Y-117565D02*
Y-115847D01*
X62191Y-134433D02*
X104344D01*
X106299Y-132478D01*
Y-115847D01*
X97441Y-127165D02*
X97638Y-126969D01*
X97441Y-130905D02*
Y-127165D01*
X105118Y-138779D02*
X109449Y-134449D01*
Y-115847D01*
X155834Y-108787D02*
X156102Y-109055D01*
X111221Y-113681D02*
X123058D01*
X169144Y-103484D02*
X186029D01*
X169007Y-103347D02*
X169144Y-103484D01*
X112500Y-103347D02*
X169007D01*
X169766Y-101984D02*
X185024D01*
X169356Y-101575D02*
X169766Y-101984D01*
X111811Y-101575D02*
X169356D01*
X170669Y-99803D02*
Y-93110D01*
X111024Y-104823D02*
X112500Y-103347D01*
X109449Y-103937D02*
X111811Y-101575D01*
X111221Y-112106D02*
X121161D01*
X331693Y-70512D02*
X341890D01*
X344488Y-67913D01*
X368504Y-61024D02*
X393898D01*
X215551Y-113681D02*
X218504Y-110728D01*
Y-99410D01*
X228642Y-98327D02*
Y-95768D01*
X230217Y-96457D02*
X230906Y-95768D01*
X230217Y-98327D02*
Y-96457D01*
X184358Y-84539D02*
X188189Y-80709D01*
X184358Y-95169D02*
Y-84539D01*
X182087Y-97441D02*
X184358Y-95169D01*
X174024Y-99713D02*
X183791D01*
X175710Y-97441D02*
X182087D01*
X180236Y-92520D02*
X180335D01*
X178268Y-90551D02*
X180236Y-92520D01*
X177165Y-90551D02*
X178268D01*
X196850Y-113189D02*
Y-110337D01*
X227067Y-116831D02*
Y-113681D01*
X223917Y-117116D02*
Y-113681D01*
X222342Y-116142D02*
Y-113681D01*
X219587Y-118898D02*
X222342Y-116142D01*
X223917Y-117116D02*
X226026Y-119225D01*
X348941Y-68898D02*
X350394Y-70350D01*
X233268Y-147362D02*
Y-139764D01*
X231299Y-137795D02*
X233268Y-139764D01*
X227024Y-137795D02*
X231299D01*
X231024Y-149606D02*
X233268Y-147362D01*
X231024Y-149606D02*
X241339D01*
X187500D02*
X189961Y-147146D01*
X187500Y-149606D02*
X199016D01*
X156299Y-92520D02*
X158268Y-90551D01*
X166142D01*
X174606Y-96337D02*
X175710Y-97441D01*
X172638Y-98327D02*
X174024Y-99713D01*
X172638Y-98327D02*
Y-93110D01*
X174606Y-96337D02*
Y-93110D01*
X157480Y-84646D02*
X166142D01*
X156496Y-83661D02*
X157480Y-84646D01*
X156496Y-83661D02*
Y-81299D01*
X174606Y-82087D02*
Y-75512D01*
X189961Y-147146D02*
Y-139764D01*
X187992Y-137795D02*
X189961Y-139764D01*
X184055Y-137795D02*
X187992D01*
X301870Y-107283D02*
X304134Y-109547D01*
Y-114183D02*
Y-109547D01*
X255437Y-126500D02*
X266732Y-137795D01*
X335630D01*
X240157Y-89567D02*
X248569D01*
X348941Y-68898D02*
Y-45949D01*
X331693Y-40512D02*
X343504D01*
X348941Y-45949D01*
X111024Y-109547D02*
Y-104823D01*
X109449Y-109547D02*
Y-103937D01*
X336251Y-139295D02*
X348941Y-126606D01*
X335630Y-137795D02*
X347441Y-125984D01*
X266111Y-139295D02*
X336251D01*
X253937Y-127121D02*
X266111Y-139295D01*
X107874Y-132874D02*
Y-115847D01*
X61614Y-135827D02*
X104921D01*
X59842Y-134055D02*
X61614Y-135827D01*
X52716Y-61024D02*
Y-56535D01*
X104921Y-135827D02*
X107874Y-132874D01*
X43676Y-96135D02*
Y-89050D01*
X42224Y-87598D02*
X43676Y-89050D01*
X45276Y-95472D02*
Y-85630D01*
X43307Y-83661D02*
X45276Y-85630D01*
X46618Y-113681D02*
Y-96815D01*
X44646Y-109882D02*
Y-97105D01*
X45276Y-95472D02*
X46618Y-96815D01*
X47224Y-116919D02*
Y-114287D01*
X46618Y-113681D02*
X47224Y-114287D01*
X40354Y-138779D02*
X43858D01*
X38386Y-136811D02*
X40354Y-138779D01*
X24587Y-133839D02*
X45276D01*
X40354Y-124223D02*
X44646D01*
X23622Y-126969D02*
X40693D01*
X41864Y-125797D01*
X44646D01*
X41339Y-118110D02*
X42270Y-119041D01*
X22638Y-87598D02*
X25591Y-84646D01*
X21654Y-87598D02*
X22638D01*
X25885Y-101575D02*
Y-94488D01*
Y-101575D02*
X28641Y-104331D01*
X28484Y-86614D02*
X33110D01*
X16732Y-113189D02*
Y-81693D01*
Y-113189D02*
X18701Y-115157D01*
X16732Y-81693D02*
X18701Y-79724D01*
X28641Y-104331D02*
X41339D01*
X43676Y-96135D02*
X44646Y-97105D01*
X40000Y-87598D02*
X42224D01*
X40000Y-83661D02*
X43307D01*
X41339Y-113189D02*
X44646Y-109882D01*
X41339Y-118110D02*
Y-113189D01*
X25885Y-82677D02*
X33110D01*
X24238Y-81030D02*
X25885Y-82677D01*
X24238Y-68773D02*
X29403Y-63608D01*
X24238Y-81030D02*
Y-68773D01*
X22638Y-68110D02*
X28740Y-62008D01*
X22638Y-81693D02*
Y-68110D01*
X25591Y-84646D02*
X33110D01*
X22638Y-81693D02*
X25591Y-84646D01*
X22638Y-131890D02*
Y-125984D01*
Y-131890D02*
X24587Y-133839D01*
X22638Y-125984D02*
X23622Y-126969D01*
X33110Y-82677D02*
X36417D01*
X36417Y-82677D01*
D15*
X341575Y-90512D02*
X343504Y-88583D01*
X368898Y-92520D02*
X382874Y-78543D01*
X354331Y-92520D02*
X368898D01*
X415894Y-96898D02*
X423799Y-88992D01*
X393701Y-96898D02*
X415894D01*
X210842Y-46472D02*
X225529D01*
X210630Y-46260D02*
X210842Y-46472D01*
X225529D02*
X231490Y-40512D01*
X253780D01*
X54130Y-113681D02*
Y-89563D01*
X47244Y-82677D02*
X54130Y-89563D01*
X256693Y-80512D02*
X264764D01*
X254528Y-82677D02*
X256693Y-80512D01*
X236516Y-82677D02*
X254528D01*
X382874Y-78543D02*
X383858Y-79528D01*
Y-84646D02*
Y-79528D01*
X423799Y-88992D02*
Y-81417D01*
X331693Y-90512D02*
X341575D01*
X53524Y-128376D02*
X53539Y-128392D01*
Y-130744D02*
Y-128392D01*
X60039Y-53150D02*
X60039Y-53150D01*
X36649Y-87367D02*
Y-86531D01*
X36417Y-86299D02*
X36649Y-86531D01*
X36417Y-86299D02*
X37087Y-85630D01*
X48031Y-94488D02*
X50980Y-97437D01*
Y-105315D02*
Y-97437D01*
X48268Y-100925D02*
X48799Y-100394D01*
X48268Y-112352D02*
Y-100925D01*
X49768Y-106528D02*
X50980Y-105315D01*
X49768Y-111730D02*
Y-106528D01*
X53524Y-116919D02*
Y-114287D01*
X54130Y-113681D01*
X42411Y-121073D02*
X44646D01*
X41879Y-120541D02*
X42411Y-121073D01*
X39833Y-120541D02*
X41879D01*
X38809Y-119518D02*
X39833Y-120541D01*
X41864Y-122648D02*
X44646D01*
X41258Y-122041D02*
X41864Y-122648D01*
X39451Y-122041D02*
X41258D01*
X38845Y-122648D02*
X39451Y-122041D01*
X34530Y-122648D02*
X38845D01*
X51949Y-116919D02*
Y-110827D01*
X48268Y-112352D02*
X48799Y-112883D01*
Y-116919D02*
Y-112883D01*
X49768Y-111730D02*
X50374Y-112337D01*
Y-116919D02*
Y-112337D01*
X37087Y-85630D02*
X40000D01*
X38809Y-119518D02*
Y-117549D01*
X38386Y-117126D02*
X38809Y-117549D01*
X27559Y-79724D02*
X28543Y-80709D01*
X33110D01*
X34449Y-122567D02*
X34530Y-122648D01*
D16*
X226279Y-106004D02*
D03*
D17*
X230217Y-113681D02*
D03*
X228642D02*
D03*
X227067D02*
D03*
X225492D02*
D03*
X223917D02*
D03*
X222342D02*
D03*
Y-98327D02*
D03*
X223917D02*
D03*
X225492D02*
D03*
X227067D02*
D03*
X228642D02*
D03*
X230217D02*
D03*
D18*
X234367Y-46260D02*
D03*
X241848D02*
D03*
X206496Y-149606D02*
D03*
X199016D02*
D03*
X248819D02*
D03*
X241339D02*
D03*
X363721Y-47244D02*
D03*
X356241D02*
D03*
X363976Y-36417D02*
D03*
X356496D02*
D03*
X179331Y-44035D02*
D03*
X186811D02*
D03*
X30315Y-54134D02*
D03*
X22835D02*
D03*
X92323Y-86279D02*
D03*
X84842D02*
D03*
X93898Y-59055D02*
D03*
X101378D02*
D03*
X393898Y-61024D02*
D03*
X401378D02*
D03*
X132677Y-43307D02*
D03*
X125197D02*
D03*
X195669Y-80709D02*
D03*
X188189D02*
D03*
D19*
X294291Y-60039D02*
D03*
D20*
X264764Y-30512D02*
D03*
Y-35512D02*
D03*
Y-40512D02*
D03*
Y-45512D02*
D03*
Y-50512D02*
D03*
Y-55512D02*
D03*
Y-60512D02*
D03*
Y-65512D02*
D03*
Y-70512D02*
D03*
Y-75512D02*
D03*
Y-80512D02*
D03*
Y-85512D02*
D03*
Y-90512D02*
D03*
Y-95512D02*
D03*
X331693D02*
D03*
Y-90512D02*
D03*
Y-85512D02*
D03*
Y-80512D02*
D03*
Y-75512D02*
D03*
Y-70512D02*
D03*
Y-65512D02*
D03*
Y-60512D02*
D03*
Y-55512D02*
D03*
Y-50512D02*
D03*
Y-45512D02*
D03*
Y-40512D02*
D03*
Y-35512D02*
D03*
Y-30512D02*
D03*
D21*
X275728Y-99449D02*
D03*
X280728D02*
D03*
X285728D02*
D03*
X290728D02*
D03*
X295728D02*
D03*
X300728D02*
D03*
X305728D02*
D03*
X310728D02*
D03*
X315728D02*
D03*
X320728D02*
D03*
D22*
X436024Y-75984D02*
D03*
Y-83465D02*
D03*
X170669Y-111417D02*
D03*
Y-118898D02*
D03*
X224626Y-73032D02*
D03*
Y-80512D02*
D03*
X226083Y-63189D02*
D03*
Y-55709D02*
D03*
X382874Y-71063D02*
D03*
Y-78543D02*
D03*
X185558Y-118012D02*
D03*
Y-110531D02*
D03*
X174606Y-75512D02*
D03*
Y-68032D02*
D03*
D23*
X368307Y-97913D02*
D03*
D03*
X355315Y-87913D02*
D03*
X368307Y-77913D02*
D03*
X355315Y-67913D02*
D03*
D24*
X44842Y-56535D02*
D03*
X46811D02*
D03*
X48779D02*
D03*
X50748D02*
D03*
X52716D02*
D03*
X54685D02*
D03*
X56653D02*
D03*
Y-37953D02*
D03*
X54685D02*
D03*
X52716D02*
D03*
X50748D02*
D03*
X48779D02*
D03*
X46811D02*
D03*
X44842D02*
D03*
D25*
X60039Y-53150D02*
D03*
Y-51181D02*
D03*
Y-49213D02*
D03*
Y-47244D02*
D03*
Y-45276D02*
D03*
Y-43307D02*
D03*
Y-41339D02*
D03*
X41457D02*
D03*
Y-43307D02*
D03*
Y-45276D02*
D03*
Y-47244D02*
D03*
Y-49213D02*
D03*
Y-51181D02*
D03*
Y-53150D02*
D03*
D26*
X50748Y-47244D02*
D03*
D27*
X50374Y-122648D02*
D03*
D28*
X47224Y-116919D02*
D03*
X48799D02*
D03*
X50374D02*
D03*
X51949D02*
D03*
X53524D02*
D03*
Y-128376D02*
D03*
X51949D02*
D03*
X50374D02*
D03*
X48799D02*
D03*
X47224D02*
D03*
D29*
X56102Y-119498D02*
D03*
Y-121073D02*
D03*
Y-122648D02*
D03*
Y-124223D02*
D03*
Y-125797D02*
D03*
X44646D02*
D03*
Y-124223D02*
D03*
Y-122648D02*
D03*
Y-121073D02*
D03*
Y-119498D02*
D03*
D30*
X178150Y-137795D02*
D03*
X184055D02*
D03*
X247753Y-106004D02*
D03*
X241848D02*
D03*
X28543Y-122567D02*
D03*
X34449D02*
D03*
X196850Y-45276D02*
D03*
X202756D02*
D03*
X62008Y-151450D02*
D03*
X67913D02*
D03*
X227024Y-137795D02*
D03*
X221118D02*
D03*
X142717Y-44291D02*
D03*
X148622D02*
D03*
X197835Y-105315D02*
D03*
X203740D02*
D03*
D31*
X216752Y-125797D02*
D03*
X228169D02*
D03*
D32*
X276575Y-115157D02*
D03*
Y-121063D02*
D03*
X97638Y-126969D02*
D03*
Y-121063D02*
D03*
X90551Y-26575D02*
D03*
Y-32480D02*
D03*
X50132Y-146653D02*
D03*
Y-140748D02*
D03*
D33*
X236663Y-98327D02*
D03*
Y-67027D02*
D03*
X254380Y-98327D02*
D03*
Y-67027D02*
D03*
D34*
X207283Y-10925D02*
D03*
X192323D02*
D03*
X138386D02*
D03*
X153347D02*
D03*
D35*
X171653Y-87598D02*
D03*
D36*
X177165Y-90551D02*
D03*
D37*
Y-88583D02*
D03*
Y-86614D02*
D03*
Y-84646D02*
D03*
X166142D02*
D03*
Y-86614D02*
D03*
Y-88583D02*
D03*
Y-90551D02*
D03*
D38*
X174606Y-82087D02*
D03*
X172638D02*
D03*
X170669D02*
D03*
X168701D02*
D03*
Y-93110D02*
D03*
X170669D02*
D03*
X172638D02*
D03*
X174606D02*
D03*
D39*
X93898Y-68898D02*
D03*
X101378D02*
D03*
X97638Y-76772D02*
D03*
X84449D02*
D03*
X76968D02*
D03*
X80709Y-68898D02*
D03*
D40*
X111221Y-113681D02*
D03*
D41*
Y-112106D02*
D03*
X106102D02*
D03*
Y-113681D02*
D03*
D42*
X111024Y-109547D02*
D03*
X109449D02*
D03*
X107874D02*
D03*
X106299D02*
D03*
X106299Y-115847D02*
D03*
X107874D02*
D03*
X109449D02*
D03*
X111024D02*
D03*
D43*
X149803Y-23924D02*
D03*
X147835D02*
D03*
X145866D02*
D03*
X143898D02*
D03*
X141929D02*
D03*
Y-35524D02*
D03*
X143898D02*
D03*
X145866D02*
D03*
X147835D02*
D03*
X149803D02*
D03*
X203740Y-35918D02*
D03*
X201772D02*
D03*
X199803D02*
D03*
X197835D02*
D03*
X195866D02*
D03*
Y-24318D02*
D03*
X197835D02*
D03*
X199803D02*
D03*
X201772D02*
D03*
X203740D02*
D03*
D44*
X145866Y-29724D02*
D03*
X199803Y-30118D02*
D03*
D45*
X427165Y-73898D02*
D03*
Y-68898D02*
D03*
X410433Y-63898D02*
D03*
Y-68898D02*
D03*
Y-73898D02*
D03*
D46*
X427165Y-63898D02*
D03*
D47*
X423799Y-56850D02*
D03*
X413799D02*
D03*
Y-81417D02*
D03*
X423799D02*
D03*
D48*
X174705Y-149606D02*
D03*
X187500D02*
D03*
X218228D02*
D03*
X231024D02*
D03*
D49*
X40000Y-95473D02*
D03*
Y-93504D02*
D03*
Y-91536D02*
D03*
Y-89567D02*
D03*
Y-87598D02*
D03*
Y-85630D02*
D03*
Y-83661D02*
D03*
Y-81693D02*
D03*
Y-79724D02*
D03*
Y-77756D02*
D03*
Y-75787D02*
D03*
Y-73819D02*
D03*
X33110Y-72835D02*
D03*
Y-74803D02*
D03*
Y-76772D02*
D03*
Y-78740D02*
D03*
Y-80709D02*
D03*
Y-82677D02*
D03*
Y-84646D02*
D03*
Y-86614D02*
D03*
Y-88583D02*
D03*
Y-90551D02*
D03*
Y-92520D02*
D03*
Y-94488D02*
D03*
D50*
X222342Y-33858D02*
D03*
Y-26378D02*
D03*
X212598Y-33858D02*
D03*
Y-26378D02*
D03*
X186811Y-35236D02*
D03*
Y-27756D02*
D03*
X168826Y-33465D02*
D03*
Y-25984D02*
D03*
X159449Y-33465D02*
D03*
Y-25984D02*
D03*
X131890Y-25984D02*
D03*
Y-33465D02*
D03*
X212795Y-101575D02*
D03*
Y-109055D02*
D03*
D51*
X22638Y-44035D02*
D03*
X28543D02*
D03*
X156299Y-92520D02*
D03*
X150394D02*
D03*
D52*
X212657Y-56299D02*
D03*
X205453D02*
D03*
X209055Y-64370D02*
D03*
D53*
X115157Y-125787D02*
D03*
Y-131693D02*
D03*
X250000Y-36220D02*
D03*
Y-30315D02*
D03*
X250984Y-46260D02*
D03*
Y-52165D02*
D03*
X76870Y-20768D02*
D03*
Y-14862D02*
D03*
X67913Y-69291D02*
D03*
Y-75197D02*
D03*
D54*
X125000Y-137992D02*
D03*
Y-125787D02*
D03*
X240354Y-23622D02*
D03*
Y-35827D02*
D03*
X49114Y-15157D02*
D03*
Y-27362D02*
D03*
X60039Y-78937D02*
D03*
Y-66732D02*
D03*
D55*
X395571Y-79075D02*
D03*
Y-86279D02*
D03*
X403642Y-82677D02*
D03*
D56*
X304134Y-114183D02*
D03*
X292323D02*
D03*
X310039D02*
D03*
D57*
X286811Y-124872D02*
D03*
X315551D02*
D03*
X286811Y-117274D02*
D03*
X315551D02*
D03*
D58*
X156496Y-81299D02*
D03*
Y-76181D02*
D03*
D103*
X37205Y-98819D02*
D03*
D104*
Y-70473D02*
D03*
D107*
X31496Y-78740D02*
X33110D01*
X29528Y-76771D02*
X31496Y-78740D01*
X28740Y-90350D02*
X30508Y-88583D01*
X33110D01*
X30493Y-97105D02*
X33110Y-94488D01*
X253937Y-52165D02*
X255906Y-54134D01*
X250984Y-52165D02*
X253937D01*
X254380Y-67027D02*
X255313Y-67961D01*
Y-72406D02*
Y-67961D01*
X253937Y-91819D02*
X254380Y-92262D01*
Y-98327D02*
Y-92262D01*
X236663Y-67027D02*
X240108Y-70473D01*
X242126D01*
X244634Y-98327D02*
X246063Y-96898D01*
X236663Y-98327D02*
X244634D01*
X49114Y-9941D02*
X49213Y-9843D01*
X49114Y-15157D02*
Y-9941D01*
X76575Y-15157D02*
X76870Y-14862D01*
X49114Y-15157D02*
X76575D01*
X195669Y-84508D02*
X195866Y-84705D01*
X195669Y-84508D02*
Y-80709D01*
X222461Y-62992D02*
X222657Y-63189D01*
X226083D01*
X145866Y-23924D02*
Y-14370D01*
X147835Y-23924D02*
Y-20472D01*
X149803Y-23924D02*
Y-22244D01*
X150394Y-21654D01*
X143898Y-23924D02*
Y-20768D01*
X142815Y-19685D02*
X143898Y-20768D01*
X140945Y-21654D02*
X141929Y-22638D01*
Y-23924D02*
Y-22638D01*
X147835Y-20472D02*
X148622Y-19685D01*
X196850Y-45276D02*
X199164Y-47590D01*
Y-48288D02*
Y-47590D01*
X179331Y-48594D02*
X180236Y-49500D01*
X179331Y-48594D02*
Y-44035D01*
X202756Y-45866D02*
X208661Y-51772D01*
X211646Y-49500D02*
X215295Y-53150D01*
X209343Y-49500D02*
X211646D01*
X206417Y-46575D02*
X209343Y-49500D01*
X202756Y-45866D02*
Y-45276D01*
X215295Y-53150D02*
X220862D01*
X218228Y-50472D02*
X220472Y-48228D01*
X220862Y-53150D02*
X222830Y-51181D01*
X199803Y-24318D02*
Y-17717D01*
X181870Y-27362D02*
X182264Y-27756D01*
X186811D01*
X168826Y-38669D02*
X170669Y-40512D01*
X168826Y-38669D02*
Y-33465D01*
X159449D02*
X168826D01*
X148622Y-44291D02*
X152756D01*
X148622D02*
Y-41339D01*
X147835Y-40551D02*
X148622Y-41339D01*
X147835Y-40551D02*
Y-35524D01*
X125197Y-31496D02*
X127165Y-33465D01*
X131890D01*
X331693Y-30512D02*
X343504D01*
X275590D02*
X276575Y-31496D01*
X264764Y-30512D02*
X275590D01*
X264567Y-30315D02*
X264764Y-30512D01*
X250000Y-30315D02*
X264567D01*
X250000D02*
Y-26663D01*
X246959Y-23622D02*
X250000Y-26663D01*
X240354Y-23622D02*
X246959D01*
X222342Y-39272D02*
Y-33858D01*
X212598D02*
X222342D01*
X202756Y-45276D02*
Y-42618D01*
X201772Y-41634D02*
X202756Y-42618D01*
X201772Y-41634D02*
Y-35918D01*
X436024Y-89563D02*
Y-83465D01*
X401378Y-61024D02*
X406496D01*
X382874Y-71063D02*
Y-66929D01*
X355315Y-87913D02*
X361890D01*
X286811Y-117274D02*
Y-113681D01*
X315551Y-124872D02*
X320866D01*
X315551D02*
Y-117274D01*
Y-115157D01*
X314577Y-114183D02*
X315551Y-115157D01*
X310039Y-114183D02*
X314577D01*
X288376Y-110236D02*
X292323Y-114183D01*
X278644Y-110236D02*
X288376D01*
X286811Y-124872D02*
Y-117274D01*
X275728Y-105177D02*
Y-99449D01*
X222342Y-98327D02*
Y-96337D01*
X202461Y-95768D02*
X221773D01*
X222342Y-96337D01*
X207401Y-106299D02*
X207677D01*
X206417Y-105315D02*
X207401Y-106299D01*
X53539Y-136216D02*
X62008Y-144685D01*
X53539Y-136216D02*
Y-130744D01*
X62008Y-151450D02*
Y-144685D01*
X67913Y-151450D02*
X74803D01*
X125000Y-143701D02*
Y-137992D01*
X121457D02*
X125000D01*
X115157Y-131693D02*
X121457Y-137992D01*
X103150Y-112106D02*
X106102D01*
X102362Y-111319D02*
X103150Y-112106D01*
X276575Y-112305D02*
X278644Y-110236D01*
X234367Y-46260D02*
X237905Y-49797D01*
Y-52165D02*
Y-49797D01*
X226083Y-55709D02*
X241732D01*
X245079Y-59055D01*
X231575Y-66083D02*
Y-59055D01*
X224626Y-73032D02*
X231575Y-66083D01*
X264764Y-35512D02*
X319442D01*
X341535Y-125984D02*
Y-97745D01*
X334358Y-133161D02*
X341535Y-125984D01*
X368307Y-97913D02*
X374606Y-91614D01*
X363976Y-36417D02*
Y-31645D01*
X359981Y-27650D02*
X363976Y-31645D01*
X32480Y-59287D02*
X38618Y-53150D01*
X32480Y-59606D02*
Y-59287D01*
X193941Y-22244D02*
X195866Y-24169D01*
Y-24318D02*
Y-24169D01*
X206417Y-46575D02*
Y-42323D01*
X222830Y-51181D02*
X226378D01*
X231299Y-46260D01*
X234367D01*
X54685Y-131890D02*
X57087D01*
X225529Y-47241D02*
Y-46472D01*
X224541Y-48228D02*
X225529Y-47241D01*
X389764Y-65158D02*
X393898Y-61024D01*
X389764Y-76575D02*
Y-65158D01*
Y-76575D02*
X392264Y-79075D01*
X395571D01*
X366142Y-47244D02*
X374606Y-55709D01*
X363976Y-47244D02*
X366142D01*
X319442Y-35512D02*
X327304Y-27650D01*
X359981D01*
X363976Y-47244D02*
Y-36417D01*
X220472Y-48228D02*
X224541D01*
X218228Y-78029D02*
Y-60512D01*
X212598Y-83659D02*
X218228Y-78029D01*
X198819Y-95768D02*
X202461D01*
X125984Y-122567D02*
X140748D01*
X125000Y-123551D02*
X125984Y-122567D01*
X125000Y-125787D02*
Y-123551D01*
X339302Y-95512D02*
X341535Y-97745D01*
X331693Y-95512D02*
X339302D01*
X230217Y-116831D02*
Y-113681D01*
X59724Y-59606D02*
X66535D01*
X56653Y-56535D02*
X59724Y-59606D01*
X116142Y-67913D02*
X132776D01*
X107283Y-59055D02*
X116142Y-67913D01*
X53150Y-83661D02*
X56102Y-86614D01*
Y-114120D02*
Y-86614D01*
X53150Y-83661D02*
Y-73622D01*
X80709Y-54134D02*
X85630Y-49213D01*
X53150Y-73622D02*
X60039Y-66732D01*
X65354D02*
X67913Y-69291D01*
X60039Y-66732D02*
X65354D01*
X60039D02*
Y-62992D01*
X56653Y-59606D02*
X60039Y-62992D01*
X56653Y-59606D02*
Y-56535D01*
X54685Y-61378D02*
X60039Y-66732D01*
X54685Y-61378D02*
Y-56535D01*
X80709Y-68898D02*
Y-54134D01*
X76968Y-84715D02*
Y-76772D01*
Y-84715D02*
X78533Y-86279D01*
X84449Y-79331D02*
Y-76772D01*
Y-79331D02*
X85630Y-80512D01*
X87598D01*
X89567Y-78543D01*
Y-60512D02*
X91024Y-59055D01*
X89567Y-78543D02*
Y-60512D01*
X96457Y-76772D02*
X97638D01*
X92520Y-80709D02*
X96457Y-76772D01*
X38618Y-53150D02*
X41457D01*
X329055Y-50512D02*
X331693D01*
X322835Y-44291D02*
X329055Y-50512D01*
X257028Y-27559D02*
Y-13917D01*
X248031Y-4921D02*
X257028Y-13917D01*
X109252Y-4921D02*
X248031D01*
X90551Y-23622D02*
X109252Y-4921D01*
X90551Y-26575D02*
Y-23622D01*
Y-35236D02*
Y-32480D01*
X88386Y-37402D02*
X90551Y-35236D01*
X73819Y-37402D02*
X88386D01*
X38169Y-47244D02*
X41457D01*
X37866Y-47547D02*
X38169Y-47244D01*
X32055Y-47547D02*
X37866D01*
X28543Y-44035D02*
X32055Y-47547D01*
X90945Y-56102D02*
X93898Y-59055D01*
X83661Y-56102D02*
X90945D01*
X60039Y-47244D02*
X63976D01*
X111024Y-117565D02*
X113189Y-119730D01*
X132776Y-67913D02*
X135827Y-70965D01*
Y-77756D02*
Y-70965D01*
X93898Y-68898D02*
Y-64961D01*
X167323Y-44035D02*
X176181Y-52894D01*
X158721Y-44035D02*
X167323D01*
X153543Y-49213D02*
X158721Y-44035D01*
X85630Y-49213D02*
X153543Y-49213D01*
X91024Y-59055D02*
X93898D01*
X78533Y-86279D02*
X84842D01*
X101378Y-68898D02*
Y-59055D01*
X97638Y-84114D02*
Y-76772D01*
X95472Y-86279D02*
X97638Y-84114D01*
X92323Y-86279D02*
X95472D01*
X146063Y-62008D02*
X195118D01*
X427165Y-73898D02*
X435118D01*
X436024Y-74803D01*
Y-75984D02*
Y-74803D01*
X232903Y-113118D02*
X233514Y-113729D01*
Y-119225D02*
Y-113729D01*
X203740Y-105315D02*
X206417D01*
X197835D02*
Y-100394D01*
X202461Y-95768D01*
X180335Y-88583D02*
X182087Y-86831D01*
X181870Y-86614D02*
X182087Y-86831D01*
X177165Y-86614D02*
X181870D01*
X185558Y-108787D02*
Y-106004D01*
Y-110531D02*
Y-108787D01*
X183071Y-106299D02*
X185558Y-108787D01*
X180236Y-106299D02*
X183071D01*
X177165Y-88583D02*
X180335D01*
X185558Y-106004D02*
X186247Y-105315D01*
X188976D01*
X212795Y-118898D02*
X219587D01*
X226026Y-119225D02*
X233514D01*
X137402Y-44291D02*
X142717D01*
X136417Y-43307D02*
X137402Y-44291D01*
X132677Y-43307D02*
X136417D01*
X201772Y-23924D02*
Y-20472D01*
X202559Y-19685D01*
X203740Y-23228D02*
X204724Y-22244D01*
X203740Y-24318D02*
Y-23228D01*
X150394Y-38386D02*
X152362D01*
X149803Y-37795D02*
X150394Y-38386D01*
X149803Y-37795D02*
Y-35524D01*
X204724Y-39370D02*
X205709D01*
X203740Y-38386D02*
X204724Y-39370D01*
X203740Y-38386D02*
Y-35918D01*
X197835Y-40551D02*
Y-35918D01*
Y-44291D02*
Y-40551D01*
X199803Y-38583D02*
Y-35918D01*
X197835Y-40551D02*
X199803Y-38583D01*
X196850Y-45276D02*
X197835Y-44291D01*
X195866Y-44291D02*
X196850Y-45276D01*
X195866Y-44291D02*
Y-35918D01*
X197835Y-23924D02*
Y-20768D01*
X196752Y-19685D02*
X197835Y-20768D01*
X192717Y-19685D02*
X196752D01*
X187795Y-14764D02*
X192717Y-19685D01*
X187795Y-14764D02*
Y-11811D01*
X188681Y-10925D01*
X192323D01*
X202559Y-19685D02*
X206890D01*
X212205Y-14370D01*
Y-11614D01*
X211516Y-10925D02*
X212205Y-11614D01*
X207283Y-10925D02*
X211516D01*
X253780Y-40512D02*
X264764D01*
X250984Y-43307D02*
X253780Y-40512D01*
X250984Y-46260D02*
Y-43307D01*
X241848Y-46260D02*
X250984D01*
X245079Y-59055D02*
X257028D01*
X258484Y-60512D01*
X264764D01*
X225492Y-56299D02*
X226083Y-55709D01*
X212657Y-56299D02*
X225492D01*
X205453D02*
Y-52894D01*
X168826Y-25984D02*
X172173Y-22638D01*
X159449Y-25984D02*
X168826D01*
X159449D02*
Y-22638D01*
X158465Y-21654D02*
X159449Y-22638D01*
X150394Y-21654D02*
X158465D01*
X131890Y-25984D02*
Y-22638D01*
X132874Y-21654D01*
X140945D01*
X153347Y-10925D02*
X157579D01*
X158268Y-11614D01*
Y-14370D02*
Y-11614D01*
X152953Y-19685D02*
X158268Y-14370D01*
X148622Y-19685D02*
X152953D01*
X134744Y-10925D02*
X138386D01*
X133858Y-11811D02*
X134744Y-10925D01*
X133858Y-14764D02*
Y-11811D01*
Y-14764D02*
X138779Y-19685D01*
X142815D01*
X145866Y-38386D02*
Y-35524D01*
X143898Y-40354D02*
X145866Y-38386D01*
X143898Y-40354D02*
Y-35524D01*
Y-43110D02*
Y-40354D01*
X142717Y-44291D02*
X143898Y-43110D01*
X141929Y-43504D02*
X142717Y-44291D01*
X141929Y-43504D02*
Y-35524D01*
X152756Y-86614D02*
X166142D01*
X149803Y-83661D02*
X152756Y-86614D01*
X149803Y-87367D02*
Y-83661D01*
Y-87367D02*
X151019Y-88583D01*
X166142D01*
X170669Y-111417D02*
Y-106299D01*
X138779Y-69291D02*
X146063Y-62008D01*
X138779Y-92520D02*
Y-69291D01*
X156496Y-76181D02*
Y-66339D01*
X158465Y-64370D01*
X209055Y-66732D02*
Y-64370D01*
X207401Y-68386D02*
X209055Y-66732D01*
X201496Y-68386D02*
X207401D01*
X195118Y-62008D02*
X201496Y-68386D01*
X273622Y-129921D02*
X273775D01*
X276575Y-127121D01*
Y-121063D01*
Y-115157D02*
Y-112305D01*
X102362Y-102362D02*
Y-101969D01*
Y-111319D02*
Y-102362D01*
X53539Y-130744D02*
X54685Y-131890D01*
X56102Y-114120D02*
X62992Y-121010D01*
X60039Y-53150D02*
X63976D01*
X63976Y-53150D01*
X166339Y-97441D02*
X168701Y-95079D01*
Y-93110D01*
X43307Y-79724D02*
X45276Y-77756D01*
X40000Y-79724D02*
X43307D01*
X33110Y-78740D02*
X36083D01*
X37067Y-79724D01*
X40000D01*
X63976Y-53150D02*
X66535D01*
X36417Y-90551D02*
X37185D01*
X38169Y-89567D01*
X40000D01*
D108*
X61024Y-33465D02*
X70964D01*
X76870Y-27559D01*
X192913Y-121860D02*
Y-108858D01*
Y-121860D02*
X203927Y-132874D01*
X97638Y-110628D02*
Y-100193D01*
Y-121063D02*
Y-110628D01*
X90947Y-103937D02*
X97638Y-110628D01*
X80266Y-103937D02*
X90947D01*
X72097Y-95768D02*
X80266Y-103937D01*
X236221Y-114331D02*
Y-104331D01*
X356496Y-126516D02*
X395571Y-87441D01*
Y-86279D01*
X356496Y-150394D02*
Y-126516D01*
X123819Y-25984D02*
Y-25787D01*
X131890Y-17717D01*
X182874Y-35236D02*
X186811D01*
X179134Y-31496D02*
X182874Y-35236D01*
X51824Y-151450D02*
X62008D01*
X50132Y-149758D02*
X51824Y-151450D01*
X50132Y-149758D02*
Y-146653D01*
X207677Y-41063D02*
Y-37402D01*
X206417Y-42323D02*
X207677Y-41063D01*
X181870Y-75512D02*
X184547Y-72835D01*
X198740D01*
X201772Y-75866D01*
Y-79724D02*
Y-75866D01*
Y-79724D02*
X204724Y-82677D01*
X255051Y-136811D02*
X279764Y-161524D01*
X345366D02*
X356496Y-150394D01*
X279764Y-161524D02*
X345366D01*
X155637D02*
X279764D01*
X145563Y-151450D02*
X155637Y-161524D01*
X145563Y-151450D02*
Y-127382D01*
X140748Y-122567D02*
X145563Y-127382D01*
X72835Y-55512D02*
Y-45276D01*
X61024Y-33465D02*
X72835Y-45276D01*
X52165Y-33465D02*
X61024D01*
X78642Y-97441D02*
X100390D01*
X72835Y-91634D02*
X78642Y-97441D01*
X72835Y-91634D02*
Y-55512D01*
X70472Y-53150D02*
X72835Y-55512D01*
X66535Y-53150D02*
X70472D01*
X72097Y-95768D02*
X72342D01*
X45276Y-77756D02*
X45276Y-77756D01*
X48228D01*
X250000Y-36220D02*
X264055D01*
X264764Y-35512D01*
X49114Y-30413D02*
X52165Y-33465D01*
X115157Y-125787D02*
X125000D01*
X115157D02*
Y-121699D01*
X113189Y-119730D02*
X115157Y-121699D01*
X158465Y-64370D02*
X170945D01*
X410433Y-77756D02*
Y-73898D01*
X405512Y-82677D02*
X410433Y-77756D01*
X181870Y-86614D02*
Y-75512D01*
X209842Y-119882D02*
X210827Y-118898D01*
X212795D01*
X233514Y-119225D02*
X235285Y-120996D01*
Y-123204D02*
Y-120996D01*
X215177Y-124223D02*
X216752Y-125797D01*
X228150Y-124223D02*
X228799Y-124872D01*
X233617D01*
X235285Y-123204D01*
X211033Y-124223D02*
X215177D01*
X209842Y-123031D02*
X211033Y-124223D01*
X209842Y-123031D02*
Y-119882D01*
X237052Y-132874D02*
X240005Y-135827D01*
X203927Y-132874D02*
X237052D01*
X192913Y-108858D02*
X196457Y-105315D01*
X197835D01*
X255051Y-136811D02*
Y-133161D01*
X236221Y-114331D02*
X255051Y-133161D01*
X191929Y-57087D02*
Y-47559D01*
X403642Y-82677D02*
X405512D01*
X407480Y-73898D02*
X410433D01*
X406496Y-72913D02*
X407480Y-73898D01*
X406496Y-72913D02*
Y-69882D01*
X407480Y-68898D01*
X410433D01*
X120079Y-38189D02*
X125197Y-43307D01*
X120079Y-38189D02*
Y-29724D01*
X123819Y-25984D01*
X131890D01*
X156102Y-25984D02*
X159449D01*
X153543Y-28543D02*
X156102Y-25984D01*
X153543Y-37205D02*
Y-28543D01*
X152362Y-38386D02*
X153543Y-37205D01*
X209842Y-26378D02*
X212598D01*
X207677Y-28543D02*
X209842Y-26378D01*
X207677Y-37402D02*
Y-28543D01*
X205709Y-39370D02*
X207677Y-37402D01*
X249606Y-35827D02*
X250000Y-36220D01*
X240354Y-35827D02*
X249606D01*
X234473D02*
X240354D01*
X231450Y-32803D02*
X234473Y-35827D01*
X231450Y-32803D02*
Y-28970D01*
X228858Y-26378D02*
X231450Y-28970D01*
X222342Y-26378D02*
X228858D01*
X212598D02*
X222342D01*
X208465Y-22244D02*
X212598Y-26378D01*
X204724Y-22244D02*
X208465D01*
X203740Y-51181D02*
X205453Y-52894D01*
X195551Y-51181D02*
X203740D01*
X191929Y-47559D02*
X195551Y-51181D01*
X191929Y-47559D02*
Y-24213D01*
X190354Y-22638D02*
X191929Y-24213D01*
X172173Y-22638D02*
X190354D01*
X186811Y-44035D02*
Y-35236D01*
X76870Y-27559D02*
Y-20768D01*
X186811Y-53150D02*
Y-44035D01*
X183071Y-56890D02*
X186811Y-53150D01*
X183071Y-59055D02*
Y-56890D01*
X180551Y-68032D02*
X183071Y-65512D01*
X174606Y-68032D02*
X180551D01*
X170945Y-64370D02*
X174606Y-68032D01*
X152165Y-64370D02*
X158465D01*
X149803Y-66732D02*
X152165Y-64370D01*
X149803Y-83661D02*
Y-66732D01*
X240005Y-135827D02*
X250984D01*
X100390Y-97441D02*
X166339D01*
X97638Y-100193D02*
X100390Y-97441D01*
X49114Y-30413D02*
Y-27362D01*
D109*
X129626Y-116142D02*
D03*
X162402Y-53150D02*
D03*
X379724Y-116142D02*
D03*
D110*
X8858Y-102362D02*
D03*
Y-66929D02*
D03*
X32283Y-100906D02*
D03*
Y-68386D02*
D03*
D111*
X295276Y-121073D02*
D03*
X307087D02*
D03*
D112*
X421260Y-133858D02*
D03*
X433071Y-19685D02*
D03*
X27559Y-27559D02*
D03*
X19685Y-145669D02*
D03*
D113*
X225295Y-107972D02*
D03*
X227264Y-104035D02*
D03*
X53701Y-43740D02*
D03*
Y-50630D02*
D03*
X46811Y-43740D02*
D03*
Y-50630D02*
D03*
X52342Y-124616D02*
D03*
X48406D02*
D03*
X52342Y-120679D02*
D03*
X48406D02*
D03*
X29528Y-76771D02*
D03*
X28740Y-90350D02*
D03*
X30493Y-97105D02*
D03*
X255906Y-54134D02*
D03*
X255313Y-72406D02*
D03*
X253937Y-91819D02*
D03*
X242126Y-70473D02*
D03*
X246063Y-96898D02*
D03*
X49213Y-9843D02*
D03*
X42244Y-60059D02*
D03*
X195866Y-84705D02*
D03*
X222461Y-62992D02*
D03*
X145866Y-14370D02*
D03*
X199164Y-48288D02*
D03*
X180236Y-49500D02*
D03*
X208661Y-51772D02*
D03*
X218228Y-50472D02*
D03*
X199803Y-17717D02*
D03*
X181870Y-27362D02*
D03*
X170669Y-40512D02*
D03*
X152756Y-44291D02*
D03*
X125197Y-31496D02*
D03*
X343504Y-30512D02*
D03*
X276575Y-31496D02*
D03*
X222342Y-39272D02*
D03*
X436024Y-89563D02*
D03*
X406496Y-61024D02*
D03*
X382874Y-66929D02*
D03*
X361890Y-87913D02*
D03*
X286811Y-113681D02*
D03*
X320866Y-124872D02*
D03*
X275728Y-105177D02*
D03*
X223917Y-93508D02*
D03*
X227067Y-93937D02*
D03*
X232283Y-95768D02*
D03*
X189961Y-118012D02*
D03*
X210039Y-98819D02*
D03*
X207677Y-106299D02*
D03*
X143701Y-91398D02*
D03*
X170669Y-86614D02*
D03*
X172638Y-88583D02*
D03*
X166142Y-76181D02*
D03*
X61614Y-83661D02*
D03*
X43307Y-73819D02*
D03*
X25591Y-121699D02*
D03*
X67913Y-124872D02*
D03*
X45276Y-141732D02*
D03*
X74803Y-151450D02*
D03*
X125000Y-143701D02*
D03*
X106299Y-106528D02*
D03*
X101378Y-113681D02*
D03*
X258484Y-106408D02*
D03*
X250984Y-110834D02*
D03*
X356241Y-52894D02*
D03*
X344716Y-56330D02*
D03*
X310740Y-62008D02*
D03*
X271654Y-103484D02*
D03*
X245079Y-62008D02*
D03*
X237905Y-52165D02*
D03*
X231575Y-59055D02*
D03*
X236663Y-91819D02*
D03*
X343504Y-88583D02*
D03*
X374606Y-91614D02*
D03*
X354331Y-62992D02*
D03*
X354331Y-92520D02*
D03*
X236221Y-104331D02*
D03*
X393701Y-96898D02*
D03*
X179134Y-31496D02*
D03*
X193941Y-22244D02*
D03*
X340551Y-48228D02*
D03*
X32480Y-59606D02*
D03*
X17717Y-45512D02*
D03*
X48268Y-88583D02*
D03*
X131890Y-17717D02*
D03*
X57087Y-131890D02*
D03*
X206417Y-42323D02*
D03*
X374606Y-55709D02*
D03*
X218228Y-60512D02*
D03*
X212598Y-83659D02*
D03*
X211614Y-137795D02*
D03*
X231299Y-75787D02*
D03*
X204724Y-82677D02*
D03*
X198819Y-95768D02*
D03*
X262795Y-149606D02*
D03*
X334358Y-133161D02*
D03*
X230217Y-116831D02*
D03*
X66535Y-59606D02*
D03*
X72097Y-95768D02*
D03*
X107283Y-59055D02*
D03*
X48228Y-77756D02*
D03*
X92520Y-80709D02*
D03*
X322835Y-44291D02*
D03*
X257028Y-27559D02*
D03*
X73819Y-37402D02*
D03*
X16732Y-54134D02*
D03*
X83661Y-56102D02*
D03*
X35669Y-45276D02*
D03*
X319882Y-86614D02*
D03*
X36417Y-41673D02*
D03*
X315945Y-73819D02*
D03*
X63976Y-47244D02*
D03*
X97441Y-130905D02*
D03*
X105118Y-138779D02*
D03*
X156102Y-109055D02*
D03*
X236516Y-82677D02*
D03*
X170669Y-99803D02*
D03*
X160433Y-106299D02*
D03*
X147638Y-111221D02*
D03*
X135827Y-77756D02*
D03*
X93898Y-64961D02*
D03*
X210630Y-46260D02*
D03*
X176181Y-52894D02*
D03*
X383858Y-84646D02*
D03*
X344488Y-67913D02*
D03*
X232903Y-113118D02*
D03*
X218504Y-99410D02*
D03*
X181870Y-75512D02*
D03*
X180236Y-106299D02*
D03*
Y-92520D02*
D03*
X188976Y-105315D02*
D03*
X196850Y-110337D02*
D03*
X215551Y-116142D02*
D03*
X227067Y-116831D02*
D03*
X250984Y-135827D02*
D03*
X191929Y-57087D02*
D03*
X183071Y-59055D02*
D03*
Y-65512D02*
D03*
X170669Y-106299D02*
D03*
X273622Y-129921D02*
D03*
X138779Y-92520D02*
D03*
X102362Y-102362D02*
D03*
X62992Y-121010D02*
D03*
X36649Y-87367D02*
D03*
X36417Y-90551D02*
D03*
X48031Y-94488D02*
D03*
X48799Y-100394D02*
D03*
X38386Y-136811D02*
D03*
X40354Y-124223D02*
D03*
X21654Y-87598D02*
D03*
X25885Y-94488D02*
D03*
X41339Y-104331D02*
D03*
X51949Y-110827D02*
D03*
X38386Y-117126D02*
D03*
X18701Y-115157D02*
D03*
Y-79724D02*
D03*
X27559D02*
D03*
X36417Y-82677D02*
D03*
X47244D02*
D03*
M02*
