G04*
G04 #@! TF.GenerationSoftware,Altium Limited,Altium Designer,18.1.9 (240)*
G04*
G04 Layer_Color=8421504*
%FSLAX25Y25*%
%MOIN*%
G70*
G01*
G75*
%ADD16R,0.07677X0.09646*%
%ADD17O,0.00787X0.03543*%
%ADD18R,0.02756X0.05118*%
%ADD19R,0.19685X0.19685*%
%ADD20R,0.07874X0.03543*%
%ADD21R,0.03543X0.07874*%
%ADD22R,0.05118X0.02756*%
%ADD23R,0.07874X0.03937*%
%ADD24R,0.01063X0.03976*%
%ADD25R,0.03976X0.01063*%
%ADD26R,0.12795X0.12795*%
%ADD27R,0.06693X0.06693*%
%ADD28R,0.00787X0.02953*%
%ADD29R,0.02953X0.00787*%
%ADD30R,0.03150X0.03150*%
%ADD31R,0.03543X0.06299*%
%ADD32R,0.03543X0.02362*%
%ADD33R,0.05118X0.06102*%
%ADD34R,0.03543X0.05118*%
%ADD35R,0.06299X0.06299*%
%ADD36O,0.02362X0.00984*%
%ADD37R,0.02362X0.00984*%
%ADD38R,0.00984X0.02362*%
%ADD39R,0.03150X0.03543*%
%ADD40O,0.02756X0.00787*%
%ADD41R,0.02756X0.00787*%
%ADD42R,0.00787X0.01772*%
%ADD43R,0.00945X0.02362*%
%ADD44R,0.09400X0.06500*%
%ADD45R,0.04724X0.02362*%
%ADD46O,0.04724X0.02362*%
%ADD47R,0.02362X0.04724*%
%ADD48R,0.02165X0.05906*%
%ADD49R,0.02756X0.01181*%
%ADD50R,0.05118X0.03543*%
%ADD51R,0.02362X0.03543*%
%ADD52R,0.02402X0.04646*%
%ADD53R,0.03150X0.03150*%
%ADD54R,0.06299X0.03543*%
%ADD55R,0.04646X0.02402*%
%ADD56R,0.02756X0.05906*%
%ADD57R,0.03937X0.03150*%
%ADD58R,0.03150X0.01181*%
G36*
X50039Y-46535D02*
X45512D01*
Y-42008D01*
X50039D01*
Y-46535D01*
D02*
G37*
G36*
X55988Y-46539D02*
X51461D01*
Y-42004D01*
X55988D01*
Y-46539D01*
D02*
G37*
G36*
X50042Y-52483D02*
X45508D01*
Y-47957D01*
X50042D01*
Y-52483D01*
D02*
G37*
G36*
X55990Y-52486D02*
X51457D01*
Y-47953D01*
X55990D01*
Y-52486D01*
D02*
G37*
G36*
X52492Y-124767D02*
X48254D01*
Y-120529D01*
X52492D01*
Y-124767D01*
D02*
G37*
G36*
X300516Y-66279D02*
X288056D01*
Y-53815D01*
X300516D01*
Y-66279D01*
D02*
G37*
G36*
X229827Y-105606D02*
X226669D01*
Y-101669D01*
X229827D01*
Y-105606D01*
D02*
G37*
G36*
X225886Y-105610D02*
X222729D01*
Y-101666D01*
X225886D01*
Y-105610D01*
D02*
G37*
G36*
X229822Y-110336D02*
X226674D01*
Y-106398D01*
X229822D01*
Y-110336D01*
D02*
G37*
G36*
X225881Y-110340D02*
X222733D01*
X222733Y-106394D01*
X225881D01*
Y-110340D01*
D02*
G37*
D16*
X226279Y-106004D02*
D03*
D17*
X230217Y-113681D02*
D03*
X228642D02*
D03*
X227067D02*
D03*
X225492D02*
D03*
X223917D02*
D03*
X222342D02*
D03*
Y-98327D02*
D03*
X223917D02*
D03*
X225492D02*
D03*
X227067D02*
D03*
X228642D02*
D03*
X230217D02*
D03*
D18*
X234367Y-46260D02*
D03*
X241848D02*
D03*
X206496Y-149606D02*
D03*
X199016D02*
D03*
X248819D02*
D03*
X241339D02*
D03*
X363721Y-47244D02*
D03*
X356241D02*
D03*
X363976Y-36417D02*
D03*
X356496D02*
D03*
X179331Y-44035D02*
D03*
X186811D02*
D03*
X30315Y-54134D02*
D03*
X22835D02*
D03*
X92323Y-86279D02*
D03*
X84842D02*
D03*
X93898Y-59055D02*
D03*
X101378D02*
D03*
X393898Y-61024D02*
D03*
X401378D02*
D03*
X132677Y-43307D02*
D03*
X125197D02*
D03*
X195669Y-80709D02*
D03*
X188189D02*
D03*
D19*
X294291Y-60039D02*
D03*
D20*
X264764Y-30512D02*
D03*
Y-35512D02*
D03*
Y-40512D02*
D03*
Y-45512D02*
D03*
Y-50512D02*
D03*
Y-55512D02*
D03*
Y-60512D02*
D03*
Y-65512D02*
D03*
Y-70512D02*
D03*
Y-75512D02*
D03*
Y-80512D02*
D03*
Y-85512D02*
D03*
Y-90512D02*
D03*
Y-95512D02*
D03*
X331693D02*
D03*
Y-90512D02*
D03*
Y-85512D02*
D03*
Y-80512D02*
D03*
Y-75512D02*
D03*
Y-70512D02*
D03*
Y-65512D02*
D03*
Y-60512D02*
D03*
Y-55512D02*
D03*
Y-50512D02*
D03*
Y-45512D02*
D03*
Y-40512D02*
D03*
Y-35512D02*
D03*
Y-30512D02*
D03*
D21*
X275728Y-99449D02*
D03*
X280728D02*
D03*
X285728D02*
D03*
X290728D02*
D03*
X295728D02*
D03*
X300728D02*
D03*
X305728D02*
D03*
X310728D02*
D03*
X315728D02*
D03*
X320728D02*
D03*
D22*
X436024Y-75984D02*
D03*
Y-83465D02*
D03*
X170669Y-111417D02*
D03*
Y-118898D02*
D03*
X224626Y-73032D02*
D03*
Y-80512D02*
D03*
X226083Y-63189D02*
D03*
Y-55709D02*
D03*
X382874Y-71063D02*
D03*
Y-78543D02*
D03*
X185558Y-118012D02*
D03*
Y-110531D02*
D03*
X174606Y-75512D02*
D03*
Y-68032D02*
D03*
D23*
X368307Y-97913D02*
D03*
D03*
X355315Y-87913D02*
D03*
X368307Y-77913D02*
D03*
X355315Y-67913D02*
D03*
D24*
X44842Y-56535D02*
D03*
X46811D02*
D03*
X48779D02*
D03*
X50748D02*
D03*
X52716D02*
D03*
X54685D02*
D03*
X56653D02*
D03*
Y-37953D02*
D03*
X54685D02*
D03*
X52716D02*
D03*
X50748D02*
D03*
X48779D02*
D03*
X46811D02*
D03*
X44842D02*
D03*
D25*
X60039Y-53150D02*
D03*
Y-51181D02*
D03*
Y-49213D02*
D03*
Y-47244D02*
D03*
Y-45276D02*
D03*
Y-43307D02*
D03*
Y-41339D02*
D03*
X41457D02*
D03*
Y-43307D02*
D03*
Y-45276D02*
D03*
Y-47244D02*
D03*
Y-49213D02*
D03*
Y-51181D02*
D03*
Y-53150D02*
D03*
D26*
X50748Y-47244D02*
D03*
D27*
X50374Y-122648D02*
D03*
D28*
X47224Y-116919D02*
D03*
X48799D02*
D03*
X50374D02*
D03*
X51949D02*
D03*
X53524D02*
D03*
Y-128376D02*
D03*
X51949D02*
D03*
X50374D02*
D03*
X48799D02*
D03*
X47224D02*
D03*
D29*
X56102Y-119498D02*
D03*
Y-121073D02*
D03*
Y-122648D02*
D03*
Y-124223D02*
D03*
Y-125797D02*
D03*
X44646D02*
D03*
Y-124223D02*
D03*
Y-122648D02*
D03*
Y-121073D02*
D03*
Y-119498D02*
D03*
D30*
X178150Y-137795D02*
D03*
X184055D02*
D03*
X247753Y-106004D02*
D03*
X241848D02*
D03*
X28543Y-122567D02*
D03*
X34449D02*
D03*
X196850Y-45276D02*
D03*
X202756D02*
D03*
X62008Y-151450D02*
D03*
X67913D02*
D03*
X227024Y-137795D02*
D03*
X221118D02*
D03*
X142717Y-44291D02*
D03*
X148622D02*
D03*
X197835Y-105315D02*
D03*
X203740D02*
D03*
D31*
X216752Y-125797D02*
D03*
X228169D02*
D03*
D32*
X276575Y-115157D02*
D03*
Y-121063D02*
D03*
X97638Y-126969D02*
D03*
Y-121063D02*
D03*
X90551Y-26575D02*
D03*
Y-32480D02*
D03*
X50132Y-146653D02*
D03*
Y-140748D02*
D03*
D33*
X236663Y-98327D02*
D03*
Y-67027D02*
D03*
X254380Y-98327D02*
D03*
Y-67027D02*
D03*
D34*
X207283Y-10925D02*
D03*
X192323D02*
D03*
X138386D02*
D03*
X153347D02*
D03*
D35*
X171653Y-87598D02*
D03*
D36*
X177165Y-90551D02*
D03*
D37*
Y-88583D02*
D03*
Y-86614D02*
D03*
Y-84646D02*
D03*
X166142D02*
D03*
Y-86614D02*
D03*
Y-88583D02*
D03*
Y-90551D02*
D03*
D38*
X174606Y-82087D02*
D03*
X172638D02*
D03*
X170669D02*
D03*
X168701D02*
D03*
Y-93110D02*
D03*
X170669D02*
D03*
X172638D02*
D03*
X174606D02*
D03*
D39*
X93898Y-68898D02*
D03*
X101378D02*
D03*
X97638Y-76772D02*
D03*
X84449D02*
D03*
X76968D02*
D03*
X80709Y-68898D02*
D03*
D40*
X111221Y-113681D02*
D03*
D41*
Y-112106D02*
D03*
X106102D02*
D03*
Y-113681D02*
D03*
D42*
X111024Y-109547D02*
D03*
X109449D02*
D03*
X107874D02*
D03*
X106299D02*
D03*
X106299Y-115847D02*
D03*
X107874D02*
D03*
X109449D02*
D03*
X111024D02*
D03*
D43*
X149803Y-23924D02*
D03*
X147835D02*
D03*
X145866D02*
D03*
X143898D02*
D03*
X141929D02*
D03*
Y-35524D02*
D03*
X143898D02*
D03*
X145866D02*
D03*
X147835D02*
D03*
X149803D02*
D03*
X203740Y-35918D02*
D03*
X201772D02*
D03*
X199803D02*
D03*
X197835D02*
D03*
X195866D02*
D03*
Y-24318D02*
D03*
X197835D02*
D03*
X199803D02*
D03*
X201772D02*
D03*
X203740D02*
D03*
D44*
X145866Y-29724D02*
D03*
X199803Y-30118D02*
D03*
D45*
X427165Y-73898D02*
D03*
Y-68898D02*
D03*
X410433Y-63898D02*
D03*
Y-68898D02*
D03*
Y-73898D02*
D03*
D46*
X427165Y-63898D02*
D03*
D47*
X423799Y-56850D02*
D03*
X413799D02*
D03*
Y-81417D02*
D03*
X423799D02*
D03*
D48*
X174705Y-149606D02*
D03*
X187500D02*
D03*
X218228D02*
D03*
X231024D02*
D03*
D49*
X40000Y-95473D02*
D03*
Y-93504D02*
D03*
Y-91536D02*
D03*
Y-89567D02*
D03*
Y-87598D02*
D03*
Y-85630D02*
D03*
Y-83661D02*
D03*
Y-81693D02*
D03*
Y-79724D02*
D03*
Y-77756D02*
D03*
Y-75787D02*
D03*
Y-73819D02*
D03*
X33110Y-72835D02*
D03*
Y-74803D02*
D03*
Y-76772D02*
D03*
Y-78740D02*
D03*
Y-80709D02*
D03*
Y-82677D02*
D03*
Y-84646D02*
D03*
Y-86614D02*
D03*
Y-88583D02*
D03*
Y-90551D02*
D03*
Y-92520D02*
D03*
Y-94488D02*
D03*
D50*
X222342Y-33858D02*
D03*
Y-26378D02*
D03*
X212598Y-33858D02*
D03*
Y-26378D02*
D03*
X186811Y-35236D02*
D03*
Y-27756D02*
D03*
X168826Y-33465D02*
D03*
Y-25984D02*
D03*
X159449Y-33465D02*
D03*
Y-25984D02*
D03*
X131890Y-25984D02*
D03*
Y-33465D02*
D03*
X212795Y-101575D02*
D03*
Y-109055D02*
D03*
D51*
X22638Y-44035D02*
D03*
X28543D02*
D03*
X156299Y-92520D02*
D03*
X150394D02*
D03*
D52*
X212657Y-56299D02*
D03*
X205453D02*
D03*
X209055Y-64370D02*
D03*
D53*
X115157Y-125787D02*
D03*
Y-131693D02*
D03*
X250000Y-36220D02*
D03*
Y-30315D02*
D03*
X250984Y-46260D02*
D03*
Y-52165D02*
D03*
X76870Y-20768D02*
D03*
Y-14862D02*
D03*
X67913Y-69291D02*
D03*
Y-75197D02*
D03*
D54*
X125000Y-137992D02*
D03*
Y-125787D02*
D03*
X240354Y-23622D02*
D03*
Y-35827D02*
D03*
X49114Y-15157D02*
D03*
Y-27362D02*
D03*
X60039Y-78937D02*
D03*
Y-66732D02*
D03*
D55*
X395571Y-79075D02*
D03*
Y-86279D02*
D03*
X403642Y-82677D02*
D03*
D56*
X304134Y-114183D02*
D03*
X292323D02*
D03*
X310039D02*
D03*
D57*
X286811Y-124872D02*
D03*
X315551D02*
D03*
X286811Y-117274D02*
D03*
X315551D02*
D03*
D58*
X156496Y-81299D02*
D03*
Y-76181D02*
D03*
M02*
