G04*
G04 #@! TF.GenerationSoftware,Altium Limited,Altium Designer,18.1.9 (240)*
G04*
G04 Layer_Color=8388736*
%FSLAX25Y25*%
%MOIN*%
G70*
G01*
G75*
%ADD58R,0.03150X0.01181*%
%ADD59R,0.08477X0.10446*%
%ADD60O,0.01181X0.03937*%
%ADD61R,0.03556X0.05918*%
%ADD62R,0.20485X0.20485*%
%ADD63R,0.08674X0.04343*%
%ADD64R,0.04343X0.08674*%
%ADD65R,0.05918X0.03556*%
%ADD66R,0.10236X0.06299*%
%ADD67R,0.01457X0.04370*%
%ADD68R,0.04370X0.01457*%
%ADD69R,0.13189X0.13189*%
%ADD70R,0.07087X0.07087*%
%ADD71R,0.01181X0.03347*%
%ADD72R,0.03347X0.01181*%
%ADD73R,0.03950X0.03950*%
%ADD74R,0.04343X0.07099*%
%ADD75R,0.04343X0.03162*%
%ADD76R,0.05918X0.06902*%
%ADD77R,0.04343X0.05918*%
%ADD78R,0.06693X0.06693*%
%ADD79O,0.02756X0.01378*%
%ADD80R,0.02756X0.01378*%
%ADD81R,0.01378X0.02756*%
%ADD82R,0.03950X0.04343*%
%ADD83O,0.03150X0.01181*%
%ADD84R,0.01181X0.02165*%
%ADD85R,0.01339X0.02756*%
%ADD86R,0.09794X0.06894*%
%ADD87R,0.05524X0.03162*%
%ADD88O,0.05524X0.03162*%
%ADD89R,0.03162X0.05524*%
%ADD90R,0.02965X0.06706*%
%ADD91R,0.03150X0.01575*%
%ADD92R,0.05918X0.04343*%
%ADD93R,0.03162X0.04343*%
%ADD94R,0.03202X0.05446*%
%ADD95R,0.03950X0.03950*%
%ADD96R,0.07099X0.04343*%
%ADD97R,0.05446X0.03202*%
%ADD98R,0.03556X0.06706*%
%ADD99R,0.04737X0.03950*%
%ADD100R,0.03950X0.01981*%
%ADD101C,0.06800*%
%ADD102O,0.05118X0.02756*%
%ADD103O,0.02559X0.03740*%
%ADD104C,0.02559*%
%ADD105C,0.04343*%
%ADD106C,0.14961*%
D58*
X111221Y-112106D02*
D03*
X106102D02*
D03*
Y-113681D02*
D03*
D59*
X226279Y-106004D02*
D03*
D60*
X230217Y-113681D02*
D03*
X228642D02*
D03*
X227067D02*
D03*
X225492D02*
D03*
X223917D02*
D03*
X222342D02*
D03*
Y-98327D02*
D03*
X223917D02*
D03*
X225492D02*
D03*
X227067D02*
D03*
X228642D02*
D03*
X230217D02*
D03*
D61*
X234367Y-46260D02*
D03*
X241848D02*
D03*
X206496Y-149606D02*
D03*
X199016D02*
D03*
X248819D02*
D03*
X241339D02*
D03*
X363721Y-47244D02*
D03*
X356241D02*
D03*
X363976Y-36417D02*
D03*
X356496D02*
D03*
X179331Y-44035D02*
D03*
X186811D02*
D03*
X30315Y-54134D02*
D03*
X22835D02*
D03*
X92323Y-86279D02*
D03*
X84842D02*
D03*
X93898Y-59055D02*
D03*
X101378D02*
D03*
X393898Y-61024D02*
D03*
X401378D02*
D03*
X132677Y-43307D02*
D03*
X125197D02*
D03*
X195669Y-80709D02*
D03*
X188189D02*
D03*
D62*
X294291Y-60039D02*
D03*
D63*
X264764Y-30512D02*
D03*
Y-35512D02*
D03*
Y-40512D02*
D03*
Y-45512D02*
D03*
Y-50512D02*
D03*
Y-55512D02*
D03*
Y-60512D02*
D03*
Y-65512D02*
D03*
Y-70512D02*
D03*
Y-75512D02*
D03*
Y-80512D02*
D03*
Y-85512D02*
D03*
Y-90512D02*
D03*
Y-95512D02*
D03*
X331693D02*
D03*
Y-90512D02*
D03*
Y-85512D02*
D03*
Y-80512D02*
D03*
Y-75512D02*
D03*
Y-70512D02*
D03*
Y-65512D02*
D03*
Y-60512D02*
D03*
Y-55512D02*
D03*
Y-50512D02*
D03*
Y-45512D02*
D03*
Y-40512D02*
D03*
Y-35512D02*
D03*
Y-30512D02*
D03*
D64*
X275728Y-99449D02*
D03*
X280728D02*
D03*
X285728D02*
D03*
X290728D02*
D03*
X295728D02*
D03*
X300728D02*
D03*
X305728D02*
D03*
X310728D02*
D03*
X315728D02*
D03*
X320728D02*
D03*
D65*
X436024Y-75984D02*
D03*
Y-83465D02*
D03*
X170669Y-111417D02*
D03*
Y-118898D02*
D03*
X224626Y-73032D02*
D03*
Y-80512D02*
D03*
X226083Y-63189D02*
D03*
Y-55709D02*
D03*
X382874Y-71063D02*
D03*
Y-78543D02*
D03*
X185558Y-118012D02*
D03*
Y-110531D02*
D03*
X174606Y-75512D02*
D03*
Y-68032D02*
D03*
D66*
X368307Y-97913D02*
D03*
D03*
X355315Y-87913D02*
D03*
X368307Y-77913D02*
D03*
X355315Y-67913D02*
D03*
D67*
X44842Y-56535D02*
D03*
X46811D02*
D03*
X48779D02*
D03*
X50748D02*
D03*
X52716D02*
D03*
X54685D02*
D03*
X56653D02*
D03*
Y-37953D02*
D03*
X54685D02*
D03*
X52716D02*
D03*
X50748D02*
D03*
X48779D02*
D03*
X46811D02*
D03*
X44842D02*
D03*
D68*
X60039Y-53150D02*
D03*
Y-51181D02*
D03*
Y-49213D02*
D03*
Y-47244D02*
D03*
Y-45276D02*
D03*
Y-43307D02*
D03*
Y-41339D02*
D03*
X41457D02*
D03*
Y-43307D02*
D03*
Y-45276D02*
D03*
Y-47244D02*
D03*
Y-49213D02*
D03*
Y-51181D02*
D03*
Y-53150D02*
D03*
D69*
X50748Y-47244D02*
D03*
D70*
X50374Y-122648D02*
D03*
D71*
X47224Y-116919D02*
D03*
X48799D02*
D03*
X50374D02*
D03*
X51949D02*
D03*
X53524D02*
D03*
Y-128376D02*
D03*
X51949D02*
D03*
X50374D02*
D03*
X48799D02*
D03*
X47224D02*
D03*
D72*
X56102Y-119498D02*
D03*
Y-121073D02*
D03*
Y-122648D02*
D03*
Y-124223D02*
D03*
Y-125797D02*
D03*
X44646D02*
D03*
Y-124223D02*
D03*
Y-122648D02*
D03*
Y-121073D02*
D03*
Y-119498D02*
D03*
D73*
X178150Y-137795D02*
D03*
X184055D02*
D03*
X247753Y-106004D02*
D03*
X241848D02*
D03*
X28543Y-122567D02*
D03*
X34449D02*
D03*
X196850Y-45276D02*
D03*
X202756D02*
D03*
X62008Y-151450D02*
D03*
X67913D02*
D03*
X227024Y-137795D02*
D03*
X221118D02*
D03*
X142717Y-44291D02*
D03*
X148622D02*
D03*
X197835Y-105315D02*
D03*
X203740D02*
D03*
D74*
X216752Y-125797D02*
D03*
X228169D02*
D03*
D75*
X276575Y-115157D02*
D03*
Y-121063D02*
D03*
X97638Y-126969D02*
D03*
Y-121063D02*
D03*
X90551Y-26575D02*
D03*
Y-32480D02*
D03*
X50132Y-146653D02*
D03*
Y-140748D02*
D03*
D76*
X236663Y-98327D02*
D03*
Y-67027D02*
D03*
X254380Y-98327D02*
D03*
Y-67027D02*
D03*
D77*
X207283Y-10925D02*
D03*
X192323D02*
D03*
X138386D02*
D03*
X153347D02*
D03*
D78*
X171653Y-87598D02*
D03*
D79*
X177165Y-90551D02*
D03*
D80*
Y-88583D02*
D03*
Y-86614D02*
D03*
Y-84646D02*
D03*
X166142D02*
D03*
Y-86614D02*
D03*
Y-88583D02*
D03*
Y-90551D02*
D03*
D81*
X174606Y-82087D02*
D03*
X172638D02*
D03*
X170669D02*
D03*
X168701D02*
D03*
Y-93110D02*
D03*
X170669D02*
D03*
X172638D02*
D03*
X174606D02*
D03*
D82*
X93898Y-68898D02*
D03*
X101378D02*
D03*
X97638Y-76772D02*
D03*
X84449D02*
D03*
X76968D02*
D03*
X80709Y-68898D02*
D03*
D83*
X111221Y-113681D02*
D03*
D84*
X111024Y-109547D02*
D03*
X109449D02*
D03*
X107874D02*
D03*
X106299D02*
D03*
X106299Y-115847D02*
D03*
X107874D02*
D03*
X109449D02*
D03*
X111024D02*
D03*
D85*
X149803Y-23924D02*
D03*
X147835D02*
D03*
X145866D02*
D03*
X143898D02*
D03*
X141929D02*
D03*
Y-35524D02*
D03*
X143898D02*
D03*
X145866D02*
D03*
X147835D02*
D03*
X149803D02*
D03*
X203740Y-35918D02*
D03*
X201772D02*
D03*
X199803D02*
D03*
X197835D02*
D03*
X195866D02*
D03*
Y-24318D02*
D03*
X197835D02*
D03*
X199803D02*
D03*
X201772D02*
D03*
X203740D02*
D03*
D86*
X145866Y-29724D02*
D03*
X199803Y-30118D02*
D03*
D87*
X427165Y-73898D02*
D03*
Y-68898D02*
D03*
X410433Y-63898D02*
D03*
Y-68898D02*
D03*
Y-73898D02*
D03*
D88*
X427165Y-63898D02*
D03*
D89*
X423799Y-56850D02*
D03*
X413799D02*
D03*
Y-81417D02*
D03*
X423799D02*
D03*
D90*
X174705Y-149606D02*
D03*
X187500D02*
D03*
X218228D02*
D03*
X231024D02*
D03*
D91*
X40000Y-95473D02*
D03*
Y-93504D02*
D03*
Y-91536D02*
D03*
Y-89567D02*
D03*
Y-87598D02*
D03*
Y-85630D02*
D03*
Y-83661D02*
D03*
Y-81693D02*
D03*
Y-79724D02*
D03*
Y-77756D02*
D03*
Y-75787D02*
D03*
Y-73819D02*
D03*
X33110Y-72835D02*
D03*
Y-74803D02*
D03*
Y-76772D02*
D03*
Y-78740D02*
D03*
Y-80709D02*
D03*
Y-82677D02*
D03*
Y-84646D02*
D03*
Y-86614D02*
D03*
Y-88583D02*
D03*
Y-90551D02*
D03*
Y-92520D02*
D03*
Y-94488D02*
D03*
D92*
X222342Y-33858D02*
D03*
Y-26378D02*
D03*
X212598Y-33858D02*
D03*
Y-26378D02*
D03*
X186811Y-35236D02*
D03*
Y-27756D02*
D03*
X168826Y-33465D02*
D03*
Y-25984D02*
D03*
X159449Y-33465D02*
D03*
Y-25984D02*
D03*
X131890Y-25984D02*
D03*
Y-33465D02*
D03*
X212795Y-101575D02*
D03*
Y-109055D02*
D03*
D93*
X22638Y-44035D02*
D03*
X28543D02*
D03*
X156299Y-92520D02*
D03*
X150394D02*
D03*
D94*
X212657Y-56299D02*
D03*
X205453D02*
D03*
X209055Y-64370D02*
D03*
D95*
X115157Y-125787D02*
D03*
Y-131693D02*
D03*
X250000Y-36220D02*
D03*
Y-30315D02*
D03*
X250984Y-46260D02*
D03*
Y-52165D02*
D03*
X76870Y-20768D02*
D03*
Y-14862D02*
D03*
X67913Y-69291D02*
D03*
Y-75197D02*
D03*
D96*
X125000Y-137992D02*
D03*
Y-125787D02*
D03*
X240354Y-23622D02*
D03*
Y-35827D02*
D03*
X49114Y-15157D02*
D03*
Y-27362D02*
D03*
X60039Y-78937D02*
D03*
Y-66732D02*
D03*
D97*
X395571Y-79075D02*
D03*
Y-86279D02*
D03*
X403642Y-82677D02*
D03*
D98*
X304134Y-114183D02*
D03*
X292323D02*
D03*
X310039D02*
D03*
D99*
X286811Y-124872D02*
D03*
X315551D02*
D03*
X286811Y-117274D02*
D03*
X315551D02*
D03*
D100*
X156496Y-81299D02*
D03*
Y-76181D02*
D03*
D101*
X129626Y-116142D02*
D03*
X162402Y-53150D02*
D03*
X379724Y-116142D02*
D03*
D102*
X8858Y-102362D02*
D03*
Y-66929D02*
D03*
X32283Y-100906D02*
D03*
Y-68386D02*
D03*
D103*
X37205Y-98819D02*
D03*
D104*
Y-70473D02*
D03*
D105*
X295276Y-121073D02*
D03*
X307087D02*
D03*
D106*
X421260Y-133858D02*
D03*
X433071Y-19685D02*
D03*
X27559Y-27559D02*
D03*
X19685Y-145669D02*
D03*
M02*
