G04*
G04 #@! TF.GenerationSoftware,Altium Limited,Altium Designer,18.1.9 (240)*
G04*
G04 Layer_Color=65535*
%FSLAX25Y25*%
%MOIN*%
G70*
G01*
G75*
%ADD10C,0.00394*%
%ADD11C,0.00787*%
%ADD12C,0.00500*%
%ADD13C,0.00984*%
%ADD14C,0.00197*%
%ADD15C,0.01000*%
D10*
X230610Y-95374D02*
G03*
X230610Y-95374I-394J0D01*
G01*
X206693Y-18209D02*
Y-14429D01*
Y-7382D02*
Y-3642D01*
X192913Y-18209D02*
Y-14390D01*
Y-7421D02*
Y-3642D01*
X199803D01*
X192913Y-18209D02*
X206693D01*
X199803Y-3642D02*
X206693D01*
X145866D02*
X152756D01*
X138976Y-18209D02*
X152756D01*
X138976Y-3642D02*
X145866D01*
X138976Y-7421D02*
Y-3642D01*
Y-18209D02*
Y-14390D01*
X152756Y-7382D02*
Y-3642D01*
Y-18209D02*
Y-14429D01*
X105315Y-111024D02*
Y-109291D01*
Y-116181D02*
Y-114862D01*
X112106Y-111122D02*
Y-109370D01*
Y-116142D02*
Y-114803D01*
X150984Y-23524D02*
X152066D01*
X139666Y-35924D02*
Y-23524D01*
X152066Y-35924D02*
Y-23524D01*
X150965Y-35924D02*
X152066D01*
X139666D02*
X140769D01*
X139666Y-23524D02*
X140748D01*
X193603Y-23918D02*
X194685D01*
X193603Y-36318D02*
X194705D01*
X204902D02*
X206003D01*
Y-23918D01*
X193603Y-36318D02*
Y-23918D01*
X204921D02*
X206003D01*
X416221Y-55354D02*
X421693D01*
X416142Y-82913D02*
X421693D01*
X425945Y-82913D02*
X428642D01*
X408957D02*
X411142D01*
X408957Y-61437D02*
Y-55354D01*
Y-82913D02*
Y-76142D01*
Y-55354D02*
X411614D01*
X425866D02*
X428642D01*
Y-61555D02*
Y-55354D01*
Y-82913D02*
Y-76122D01*
X35079Y-66929D02*
X40984D01*
X29173Y-66929D02*
X29173Y-66929D01*
X12441Y-66929D02*
X29173D01*
X-1339Y-102362D02*
X5551D01*
X12441D02*
X29173D01*
X35079Y-102362D02*
X40984D01*
Y-97441D01*
Y-71850D02*
Y-66929D01*
X-1339Y-102362D02*
Y-66929D01*
X5551D01*
D11*
X44811Y-60937D02*
G03*
X44811Y-60937I-276J0D01*
G01*
X41526Y-119498D02*
G03*
X41526Y-119498I-10J0D01*
G01*
X213032Y-51555D02*
G03*
X213032Y-51555I-394J0D01*
G01*
X391220Y-79094D02*
G03*
X391220Y-79094I-394J0D01*
G01*
X159809Y-85039D02*
G03*
X159809Y-85039I-557J0D01*
G01*
X244801Y-50197D02*
Y-42323D01*
X231415Y-50197D02*
X244801D01*
X231415D02*
Y-42323D01*
X244801D01*
X432087Y-86417D02*
X439961D01*
X432087D02*
Y-73032D01*
X439961D01*
Y-86417D02*
Y-73032D01*
X175197Y-140551D02*
X187008D01*
Y-135039D01*
X175197D02*
X187008D01*
X175197Y-140551D02*
Y-135039D01*
X196063Y-153543D02*
Y-145669D01*
X209449D01*
Y-153543D02*
Y-145669D01*
X196063Y-153543D02*
X209449D01*
X238386D02*
Y-145669D01*
X251772D01*
Y-153543D02*
Y-145669D01*
X238386Y-153543D02*
X251772D01*
X213405Y-130522D02*
X231516D01*
Y-121073D01*
X213405D02*
X231516D01*
X213405Y-130522D02*
Y-121073D01*
X166732Y-121850D02*
X174606D01*
X166732D02*
Y-108465D01*
X174606D01*
Y-121850D02*
Y-108465D01*
X273425Y-123622D02*
Y-112598D01*
Y-123622D02*
X279724D01*
Y-112598D01*
X273425D02*
X279724D01*
X238895Y-103248D02*
X250706D01*
X238895Y-108760D02*
Y-103248D01*
Y-108760D02*
X250706D01*
Y-103248D01*
X220689Y-83465D02*
X228563D01*
X220689D02*
Y-70079D01*
X228563D01*
Y-83465D02*
Y-70079D01*
X222146Y-52756D02*
X230020D01*
Y-66142D02*
Y-52756D01*
X222146Y-66142D02*
X230020D01*
X222146D02*
Y-52756D01*
X179527Y-95472D02*
Y-79724D01*
X163779D02*
X179527D01*
X163779Y-95472D02*
Y-79724D01*
Y-95472D02*
X179527D01*
X353288Y-51181D02*
Y-43307D01*
X366674D01*
Y-51181D02*
Y-43307D01*
X353288Y-51181D02*
X366674D01*
X353543Y-40354D02*
Y-32480D01*
X366929D01*
Y-40354D02*
Y-32480D01*
X353543Y-40354D02*
X366929D01*
X172047Y-153937D02*
X190157D01*
Y-145276D01*
X172047D02*
X190157D01*
X172047Y-153937D02*
Y-145276D01*
X94488Y-118504D02*
X100787D01*
Y-129528D02*
Y-118504D01*
X94488Y-129528D02*
X100787D01*
X94488D02*
Y-118504D01*
X37402Y-125322D02*
Y-119811D01*
X25591Y-125322D02*
X37402D01*
X25591D02*
Y-119811D01*
X37402D01*
X176378Y-47972D02*
X189764D01*
Y-40098D01*
X176378D02*
X189764D01*
X176378Y-47972D02*
Y-40098D01*
X205709Y-48031D02*
Y-42520D01*
X193898Y-48031D02*
X205709D01*
X193898D02*
Y-42520D01*
X205709D01*
X226279Y-37205D02*
Y-23031D01*
X218406D02*
X226279D01*
X218406Y-37205D02*
Y-23031D01*
Y-37205D02*
X226279D01*
X216535D02*
Y-23031D01*
X208661D02*
X216535D01*
X208661Y-37205D02*
Y-23031D01*
Y-37205D02*
X216535D01*
X190748Y-38583D02*
Y-24409D01*
X182874D02*
X190748D01*
X182874Y-38583D02*
Y-24409D01*
Y-38583D02*
X190748D01*
X19882Y-50197D02*
X33268D01*
X19882Y-58071D02*
Y-50197D01*
Y-58071D02*
X33268D01*
Y-50197D01*
X87402Y-35039D02*
X93701D01*
X87402D02*
Y-24016D01*
X93701D01*
Y-35039D02*
Y-24016D01*
X81890Y-82342D02*
X95276D01*
X81890Y-90216D02*
Y-82342D01*
Y-90216D02*
X95276D01*
Y-82342D01*
X90945Y-62992D02*
X104331D01*
Y-55118D01*
X90945D02*
X104331D01*
X90945Y-62992D02*
Y-55118D01*
X31102Y-47185D02*
Y-40886D01*
X20079Y-47185D02*
X31102D01*
X20079D02*
Y-40886D01*
X31102D01*
X112402Y-134646D02*
X117913D01*
X112402D02*
Y-122835D01*
X117913D01*
Y-134646D02*
Y-122835D01*
X129331Y-140945D02*
Y-122835D01*
X120669D02*
X129331D01*
X120669Y-140945D02*
Y-122835D01*
Y-140945D02*
X129331D01*
X70866Y-154206D02*
Y-148694D01*
X59055Y-154206D02*
X70866D01*
X59055D02*
Y-148694D01*
X70866D01*
X46983Y-138189D02*
X53282D01*
Y-149213D02*
Y-138189D01*
X46983Y-149213D02*
X53282D01*
X46983D02*
Y-138189D01*
X172763Y-36811D02*
Y-22638D01*
X164889D02*
X172763D01*
X164889Y-36811D02*
Y-22638D01*
Y-36811D02*
X172763D01*
X163386D02*
Y-22638D01*
X155512D02*
X163386D01*
X155512Y-36811D02*
Y-22638D01*
Y-36811D02*
X163386D01*
X127953D02*
Y-22638D01*
Y-36811D02*
X135827D01*
Y-22638D01*
X127953D02*
X135827D01*
X390945Y-64961D02*
X404331D01*
Y-57087D01*
X390945D02*
X404331D01*
X390945Y-64961D02*
Y-57087D01*
X378937Y-81496D02*
Y-68110D01*
Y-81496D02*
X386811D01*
Y-68110D01*
X378937D02*
X386811D01*
X236024Y-38780D02*
Y-20669D01*
Y-38780D02*
X244685D01*
Y-20669D01*
X236024D02*
X244685D01*
X247244Y-27362D02*
X252756D01*
Y-39173D02*
Y-27362D01*
X247244Y-39173D02*
X252756D01*
X247244D02*
Y-27362D01*
X248228Y-55118D02*
X253740D01*
X248228D02*
Y-43307D01*
X253740D01*
Y-55118D02*
Y-43307D01*
X215571Y-153937D02*
X233681D01*
Y-145276D01*
X215571D02*
X233681D01*
X215571Y-153937D02*
Y-145276D01*
X218165Y-140551D02*
Y-135039D01*
X229977D01*
Y-140551D02*
Y-135039D01*
X218165Y-140551D02*
X229977D01*
X151575Y-47047D02*
Y-41535D01*
X139764Y-47047D02*
X151575D01*
X139764D02*
Y-41535D01*
X151575D01*
X122244Y-39370D02*
X135630D01*
X122244Y-47244D02*
Y-39370D01*
Y-47244D02*
X135630D01*
Y-39370D01*
X206693Y-108071D02*
Y-102559D01*
X194882Y-108071D02*
X206693D01*
X194882D02*
Y-102559D01*
X206693D01*
X74114Y-11909D02*
X79626D01*
Y-23720D02*
Y-11909D01*
X74114Y-23720D02*
X79626D01*
X74114D02*
Y-11909D01*
X44783Y-30315D02*
Y-12205D01*
Y-30315D02*
X53445D01*
Y-12205D01*
X44783D02*
X53445D01*
X185236Y-76772D02*
X198622D01*
X185236Y-84646D02*
Y-76772D01*
Y-84646D02*
X198622D01*
Y-76772D01*
X189495Y-120965D02*
Y-107579D01*
X181621D02*
X189495D01*
X181621Y-120965D02*
Y-107579D01*
Y-120965D02*
X189495D01*
X153740Y-74410D02*
X159252D01*
Y-83071D02*
Y-74410D01*
X153740Y-83071D02*
X159252D01*
X153740D02*
Y-74410D01*
X147835Y-95669D02*
Y-89370D01*
X158858D01*
Y-95669D02*
Y-89370D01*
X147835Y-95669D02*
X158858D01*
X65158Y-78150D02*
X70669D01*
X65158D02*
Y-66339D01*
X70669D01*
Y-78150D02*
Y-66339D01*
X64370Y-81890D02*
Y-63779D01*
X55709D02*
X64370D01*
X55709Y-81890D02*
Y-63779D01*
Y-81890D02*
X64370D01*
X178543Y-78465D02*
Y-65079D01*
X170669D02*
X178543D01*
X170669Y-78465D02*
Y-65079D01*
Y-78465D02*
X178543D01*
X208858Y-112402D02*
Y-98228D01*
Y-112402D02*
X216732D01*
Y-98228D01*
X208858D02*
X216732D01*
D12*
X252522Y-82677D02*
G03*
X252522Y-82677I-7000J0D01*
G01*
X231594Y-113878D02*
Y-98130D01*
X220965Y-113878D02*
Y-98130D01*
X262795Y-27598D02*
Y-1024D01*
X333661D01*
Y-27598D02*
Y-1024D01*
X262795Y-101417D02*
Y-98465D01*
Y-101417D02*
X272638D01*
X323819D02*
X333661D01*
Y-98465D01*
X262953Y-25827D02*
X333504D01*
X40709Y-57284D02*
Y-55118D01*
Y-57284D02*
X43071D01*
X40709Y-39370D02*
Y-37205D01*
X43071D01*
X59016D02*
X60787D01*
Y-39370D02*
Y-37205D01*
X58622Y-57284D02*
X60787D01*
Y-54921D01*
X56476Y-128750D02*
Y-126939D01*
X54665Y-128750D02*
X56476D01*
X44272D02*
X46083D01*
X44272D02*
Y-126939D01*
X56476Y-118356D02*
Y-116545D01*
X54665D02*
X56476D01*
X44272D02*
X46083D01*
X44272Y-118356D02*
Y-116545D01*
X233711Y-94488D02*
X257333D01*
Y-70866D01*
X233711D02*
X257333D01*
X233711Y-94488D02*
Y-70866D01*
X214961Y-63090D02*
Y-57579D01*
X211260Y-63090D02*
X214961D01*
X203150D02*
Y-57579D01*
Y-63090D02*
X206850D01*
X396850Y-76772D02*
X402362D01*
Y-80472D02*
Y-76772D01*
X396850Y-88583D02*
X402362D01*
Y-84882D01*
X294882Y-115955D02*
X301575D01*
X289764Y-126191D02*
X312598D01*
X287992Y-122254D02*
Y-119892D01*
X314370Y-122254D02*
Y-119892D01*
D13*
X288976Y-111230D02*
G03*
X288976Y-111230I-394J0D01*
G01*
D14*
X96102Y-69882D02*
X99173D01*
X91732Y-75787D02*
X95394D01*
X99882D02*
X103543D01*
Y-69882D01*
X91732Y-75787D02*
Y-69882D01*
X79173Y-75787D02*
X82244D01*
X82953Y-69882D02*
X86614D01*
X74803D02*
X78465D01*
X74803Y-75787D02*
Y-69882D01*
X86614Y-75787D02*
Y-69882D01*
D15*
X233681Y-55512D02*
Y-51576D01*
X235649D01*
X236305Y-52232D01*
Y-53544D01*
X235649Y-54200D01*
X233681D01*
X234993D02*
X236305Y-55512D01*
X237617D02*
X238929D01*
X238273D01*
Y-51576D01*
X237617Y-52232D01*
X242864Y-55512D02*
Y-51576D01*
X240897Y-53544D01*
X243520D01*
X340550Y-11811D02*
X337270D01*
X336614Y-12467D01*
Y-13779D01*
X337270Y-14435D01*
X340550D01*
X339894Y-15747D02*
X340550Y-16403D01*
Y-17715D01*
X339894Y-18371D01*
X339238D01*
X338582Y-17715D01*
X337926Y-18371D01*
X337270D01*
X336614Y-17715D01*
Y-16403D01*
X337270Y-15747D01*
X337926D01*
X338582Y-16403D01*
X339238Y-15747D01*
X339894D01*
X338582Y-16403D02*
Y-17715D01*
X442913Y-74803D02*
X446849D01*
Y-76771D01*
X446193Y-77427D01*
X444881D01*
X444225Y-76771D01*
Y-74803D01*
Y-76115D02*
X442913Y-77427D01*
Y-81363D02*
Y-78739D01*
X445537Y-81363D01*
X446193D01*
X446849Y-80707D01*
Y-79395D01*
X446193Y-78739D01*
X446849Y-85299D02*
Y-82675D01*
X444881D01*
X445537Y-83987D01*
Y-84642D01*
X444881Y-85299D01*
X443569D01*
X442913Y-84642D01*
Y-83331D01*
X443569Y-82675D01*
X374014Y-65616D02*
Y-64304D01*
Y-64960D01*
X370735D01*
X370079Y-64304D01*
Y-63648D01*
X370735Y-62992D01*
X370079Y-69552D02*
Y-66928D01*
X372703Y-69552D01*
X373358D01*
X374014Y-68896D01*
Y-67584D01*
X373358Y-66928D01*
X66929Y-50985D02*
Y-54265D01*
X67585Y-54921D01*
X68897D01*
X69553Y-54265D01*
Y-50985D01*
X70865D02*
X73489D01*
Y-51641D01*
X70865Y-54265D01*
Y-54921D01*
X57087Y-110238D02*
Y-113517D01*
X57743Y-114173D01*
X59054D01*
X59710Y-113517D01*
Y-110238D01*
X62990Y-114173D02*
Y-110238D01*
X61022Y-112205D01*
X63646D01*
X191600Y-136484D02*
X190944Y-135828D01*
X189632D01*
X188976Y-136484D01*
Y-139108D01*
X189632Y-139764D01*
X190944D01*
X191600Y-139108D01*
X192912Y-139764D02*
X194224D01*
X193568D01*
Y-135828D01*
X192912Y-136484D01*
X196192D02*
X196848Y-135828D01*
X198160D01*
X198816Y-136484D01*
Y-137140D01*
X198160Y-137796D01*
X198816Y-138452D01*
Y-139108D01*
X198160Y-139764D01*
X196848D01*
X196192Y-139108D01*
Y-138452D01*
X196848Y-137796D01*
X196192Y-137140D01*
Y-136484D01*
X196848Y-137796D02*
X198160D01*
X198819Y-159449D02*
Y-155513D01*
X200787D01*
X201443Y-156169D01*
Y-157481D01*
X200787Y-158137D01*
X198819D01*
X200131D02*
X201443Y-159449D01*
X205379D02*
X202755D01*
X205379Y-156825D01*
Y-156169D01*
X204722Y-155513D01*
X203411D01*
X202755Y-156169D01*
X206690Y-159449D02*
X208002D01*
X207346D01*
Y-155513D01*
X206690Y-156169D01*
X240158Y-159449D02*
Y-155513D01*
X242125D01*
X242781Y-156169D01*
Y-157481D01*
X242125Y-158137D01*
X240158D01*
X241469D02*
X242781Y-159449D01*
X246717D02*
X244093D01*
X246717Y-156825D01*
Y-156169D01*
X246061Y-155513D01*
X244749D01*
X244093Y-156169D01*
X248029D02*
X248685Y-155513D01*
X249997D01*
X250653Y-156169D01*
Y-158793D01*
X249997Y-159449D01*
X248685D01*
X248029Y-158793D01*
Y-156169D01*
X233711Y-129921D02*
Y-125986D01*
X235679D01*
X236334Y-126641D01*
Y-127953D01*
X235679Y-128609D01*
X233711D01*
X235022D02*
X236334Y-129921D01*
X240270D02*
X237646D01*
X240270Y-127297D01*
Y-126641D01*
X239614Y-125986D01*
X238302D01*
X237646Y-126641D01*
X243550Y-129921D02*
Y-125986D01*
X241582Y-127953D01*
X244206D01*
X167323Y-106299D02*
Y-102364D01*
X169291D01*
X169947Y-103019D01*
Y-104331D01*
X169291Y-104987D01*
X167323D01*
X168635D02*
X169947Y-106299D01*
X171259Y-102364D02*
X173882D01*
Y-103019D01*
X171259Y-105643D01*
Y-106299D01*
X271654Y-121850D02*
X267718D01*
Y-119883D01*
X268374Y-119227D01*
X269686D01*
X270342Y-119883D01*
Y-121850D01*
Y-120538D02*
X271654Y-119227D01*
Y-115947D02*
X267718D01*
X269686Y-117915D01*
Y-115291D01*
X242781Y-110893D02*
X242125Y-110238D01*
X240813D01*
X240158Y-110893D01*
Y-113517D01*
X240813Y-114173D01*
X242125D01*
X242781Y-113517D01*
X246717Y-114173D02*
X244093D01*
X246717Y-111549D01*
Y-110893D01*
X246061Y-110238D01*
X244749D01*
X244093Y-110893D01*
X249997Y-114173D02*
Y-110238D01*
X248029Y-112205D01*
X250653D01*
X236876Y-59712D02*
X236220Y-59056D01*
X234908D01*
X234252Y-59712D01*
Y-60368D01*
X234908Y-61024D01*
X236220D01*
X236876Y-61680D01*
Y-62336D01*
X236220Y-62992D01*
X234908D01*
X234252Y-62336D01*
X238188Y-59056D02*
Y-62992D01*
X239500Y-61680D01*
X240811Y-62992D01*
Y-59056D01*
X244091Y-62992D02*
Y-59056D01*
X242124Y-61024D01*
X244747D01*
X220472Y-89370D02*
Y-85435D01*
X222440D01*
X223096Y-86090D01*
Y-87402D01*
X222440Y-88058D01*
X220472D01*
X221784D02*
X223096Y-89370D01*
X227032D02*
X224408D01*
X227032Y-86746D01*
Y-86090D01*
X226376Y-85435D01*
X225064D01*
X224408Y-86090D01*
X230968Y-85435D02*
X229656Y-86090D01*
X228344Y-87402D01*
Y-88714D01*
X229000Y-89370D01*
X230312D01*
X230968Y-88714D01*
Y-88058D01*
X230312Y-87402D01*
X228344D01*
X220689Y-64961D02*
X216753D01*
Y-62993D01*
X217409Y-62337D01*
X218721D01*
X219377Y-62993D01*
Y-64961D01*
Y-63649D02*
X220689Y-62337D01*
Y-61025D02*
Y-59713D01*
Y-60369D01*
X216753D01*
X217409Y-61025D01*
X220033Y-57745D02*
X220689Y-57089D01*
Y-55777D01*
X220033Y-55121D01*
X217409D01*
X216753Y-55777D01*
Y-57089D01*
X217409Y-57745D01*
X218065D01*
X218721Y-57089D01*
Y-55121D01*
X183071Y-1970D02*
Y-5906D01*
X185695D01*
X187007D02*
X188319D01*
X187663D01*
Y-1970D01*
X187007Y-2626D01*
X155512Y-1970D02*
Y-5906D01*
X158136D01*
X162071D02*
X159448D01*
X162071Y-3282D01*
Y-2626D01*
X161415Y-1970D01*
X160103D01*
X159448Y-2626D01*
X108923Y-69226D02*
Y-66602D01*
X108267Y-65946D01*
X106955D01*
X106299Y-66602D01*
Y-69226D01*
X106955Y-69882D01*
X108267D01*
X107611Y-68570D02*
X108923Y-69882D01*
X108267D02*
X108923Y-69226D01*
X112859Y-69882D02*
X110235D01*
X112859Y-67258D01*
Y-66602D01*
X112203Y-65946D01*
X110891D01*
X110235Y-66602D01*
X114173Y-103643D02*
Y-106923D01*
X114829Y-107579D01*
X116141D01*
X116797Y-106923D01*
Y-103643D01*
X118109Y-106923D02*
X118765Y-107579D01*
X120077D01*
X120733Y-106923D01*
Y-104299D01*
X120077Y-103643D01*
X118765D01*
X118109Y-104299D01*
Y-104955D01*
X118765Y-105611D01*
X120733D01*
X233681Y-115956D02*
Y-119236D01*
X234337Y-119892D01*
X235649D01*
X236305Y-119236D01*
Y-115956D01*
X240241D02*
X238929Y-116612D01*
X237617Y-117924D01*
Y-119236D01*
X238273Y-119892D01*
X239585D01*
X240241Y-119236D01*
Y-118580D01*
X239585Y-117924D01*
X237617D01*
X211260Y-14273D02*
Y-17553D01*
X211916Y-18209D01*
X213228D01*
X213884Y-17553D01*
Y-14273D01*
X217819D02*
X215196D01*
Y-16241D01*
X216508Y-15585D01*
X217163D01*
X217819Y-16241D01*
Y-17553D01*
X217163Y-18209D01*
X215851D01*
X215196Y-17553D01*
X155512Y-41340D02*
Y-44620D01*
X156168Y-45276D01*
X157480D01*
X158136Y-44620D01*
Y-41340D01*
X159448Y-41996D02*
X160103Y-41340D01*
X161415D01*
X162071Y-41996D01*
Y-42652D01*
X161415Y-43308D01*
X160759D01*
X161415D01*
X162071Y-43964D01*
Y-44620D01*
X161415Y-45276D01*
X160103D01*
X159448Y-44620D01*
X415354Y-47245D02*
Y-50525D01*
X416010Y-51181D01*
X417322D01*
X417978Y-50525D01*
Y-47245D01*
X421914Y-51181D02*
X419290D01*
X421914Y-48557D01*
Y-47901D01*
X421258Y-47245D01*
X419946D01*
X419290Y-47901D01*
X182874Y-90930D02*
Y-94209D01*
X183530Y-94865D01*
X184842D01*
X185498Y-94209D01*
Y-90930D01*
X186810Y-94865D02*
X188122D01*
X187466D01*
Y-90930D01*
X186810Y-91586D01*
X179789Y-156169D02*
X179133Y-155513D01*
X177821D01*
X177165Y-156169D01*
Y-156825D01*
X177821Y-157481D01*
X179133D01*
X179789Y-158137D01*
Y-158793D01*
X179133Y-159449D01*
X177821D01*
X177165Y-158793D01*
X181101Y-155513D02*
Y-159449D01*
X182413Y-158137D01*
X183725Y-159449D01*
Y-155513D01*
X185037Y-156169D02*
X185693Y-155513D01*
X187005D01*
X187661Y-156169D01*
Y-156825D01*
X187005Y-157481D01*
X186349D01*
X187005D01*
X187661Y-158137D01*
Y-158793D01*
X187005Y-159449D01*
X185693D01*
X185037Y-158793D01*
X221128Y-156169D02*
X220472Y-155513D01*
X219160D01*
X218504Y-156169D01*
Y-156825D01*
X219160Y-157481D01*
X220472D01*
X221128Y-158137D01*
Y-158793D01*
X220472Y-159449D01*
X219160D01*
X218504Y-158793D01*
X222440Y-155513D02*
Y-159449D01*
X223752Y-158137D01*
X225063Y-159449D01*
Y-155513D01*
X228999Y-159449D02*
X226375D01*
X228999Y-156825D01*
Y-156169D01*
X228343Y-155513D01*
X227031D01*
X226375Y-156169D01*
X313647Y-132547D02*
X312991Y-131891D01*
X311680D01*
X311024Y-132547D01*
Y-133203D01*
X311680Y-133859D01*
X312991D01*
X313647Y-134515D01*
Y-135171D01*
X312991Y-135827D01*
X311680D01*
X311024Y-135171D01*
X314959Y-131891D02*
Y-135827D01*
X316271Y-134515D01*
X317583Y-135827D01*
Y-131891D01*
X318895Y-135827D02*
X320207D01*
X319551D01*
Y-131891D01*
X318895Y-132547D01*
X55709Y-143701D02*
Y-139765D01*
X57677D01*
X58333Y-140421D01*
Y-141733D01*
X57677Y-142389D01*
X55709D01*
X57021D02*
X58333Y-143701D01*
X62268D02*
X59644D01*
X62268Y-141077D01*
Y-140421D01*
X61612Y-139765D01*
X60300D01*
X59644Y-140421D01*
X63580D02*
X64236Y-139765D01*
X65548D01*
X66204Y-140421D01*
Y-141077D01*
X65548Y-141733D01*
X64892D01*
X65548D01*
X66204Y-142389D01*
Y-143045D01*
X65548Y-143701D01*
X64236D01*
X63580Y-143045D01*
X91732Y-129921D02*
X87796D01*
Y-127953D01*
X88453Y-127297D01*
X89764D01*
X90420Y-127953D01*
Y-129921D01*
Y-128609D02*
X91732Y-127297D01*
Y-123362D02*
Y-125986D01*
X89109Y-123362D01*
X88453D01*
X87796Y-124018D01*
Y-125330D01*
X88453Y-125986D01*
X91732Y-119426D02*
Y-122050D01*
X89109Y-119426D01*
X88453D01*
X87796Y-120082D01*
Y-121394D01*
X88453Y-122050D01*
X356299Y-29528D02*
Y-25592D01*
X358267D01*
X358923Y-26248D01*
Y-27560D01*
X358267Y-28216D01*
X356299D01*
X357611D02*
X358923Y-29528D01*
X360235D02*
X361547D01*
X360891D01*
Y-25592D01*
X360235Y-26248D01*
X363515D02*
X364171Y-25592D01*
X365483D01*
X366139Y-26248D01*
Y-26904D01*
X365483Y-27560D01*
X366139Y-28216D01*
Y-28872D01*
X365483Y-29528D01*
X364171D01*
X363515Y-28872D01*
Y-28216D01*
X364171Y-27560D01*
X363515Y-26904D01*
Y-26248D01*
X364171Y-27560D02*
X365483D01*
X356299Y-57087D02*
Y-53151D01*
X358267D01*
X358923Y-53807D01*
Y-55119D01*
X358267Y-55775D01*
X356299D01*
X357611D02*
X358923Y-57087D01*
X360235D02*
X361547D01*
X360891D01*
Y-53151D01*
X360235Y-53807D01*
X363515Y-53151D02*
X366139D01*
Y-53807D01*
X363515Y-56431D01*
Y-57087D01*
X92520Y-53445D02*
Y-49509D01*
X94488D01*
X95144Y-50165D01*
Y-51477D01*
X94488Y-52133D01*
X92520D01*
X93832D02*
X95144Y-53445D01*
X96455D02*
X97767D01*
X97111D01*
Y-49509D01*
X96455Y-50165D01*
X102359Y-49509D02*
X101047Y-50165D01*
X99735Y-51477D01*
Y-52789D01*
X100391Y-53445D01*
X101703D01*
X102359Y-52789D01*
Y-52133D01*
X101703Y-51477D01*
X99735D01*
X84646Y-96457D02*
Y-92521D01*
X86614D01*
X87270Y-93177D01*
Y-94489D01*
X86614Y-95145D01*
X84646D01*
X85958D02*
X87270Y-96457D01*
X88581D02*
X89893D01*
X89237D01*
Y-92521D01*
X88581Y-93177D01*
X94485Y-92521D02*
X91861D01*
Y-94489D01*
X93173Y-93833D01*
X93829D01*
X94485Y-94489D01*
Y-95801D01*
X93829Y-96457D01*
X92517D01*
X91861Y-95801D01*
X7874Y-45276D02*
Y-41340D01*
X9842D01*
X10498Y-41996D01*
Y-43308D01*
X9842Y-43964D01*
X7874D01*
X9186D02*
X10498Y-45276D01*
X11810D02*
X13122D01*
X12466D01*
Y-41340D01*
X11810Y-41996D01*
X15089D02*
X15745Y-41340D01*
X17057D01*
X17713Y-41996D01*
Y-42652D01*
X17057Y-43308D01*
X16401D01*
X17057D01*
X17713Y-43964D01*
Y-44620D01*
X17057Y-45276D01*
X15745D01*
X15089Y-44620D01*
X96102Y-24409D02*
X100038D01*
Y-26377D01*
X99382Y-27033D01*
X98070D01*
X97414Y-26377D01*
Y-24409D01*
Y-25721D02*
X96102Y-27033D01*
Y-28345D02*
Y-29657D01*
Y-29001D01*
X100038D01*
X99382Y-28345D01*
X96102Y-34249D02*
Y-31625D01*
X98726Y-34249D01*
X99382D01*
X100038Y-33593D01*
Y-32281D01*
X99382Y-31625D01*
X21654Y-63779D02*
Y-59844D01*
X23621D01*
X24277Y-60500D01*
Y-61812D01*
X23621Y-62468D01*
X21654D01*
X22965D02*
X24277Y-63779D01*
X25589D02*
X26901D01*
X26245D01*
Y-59844D01*
X25589Y-60500D01*
X28869Y-63779D02*
X30181D01*
X29525D01*
Y-59844D01*
X28869Y-60500D01*
X124016Y-53445D02*
Y-49509D01*
X125984D01*
X126640Y-50165D01*
Y-51477D01*
X125984Y-52133D01*
X124016D01*
X125328D02*
X126640Y-53445D01*
X127952D02*
X129263D01*
X128607D01*
Y-49509D01*
X127952Y-50165D01*
X131231D02*
X131887Y-49509D01*
X133199D01*
X133855Y-50165D01*
Y-52789D01*
X133199Y-53445D01*
X131887D01*
X131231Y-52789D01*
Y-50165D01*
X188976Y-74803D02*
Y-70867D01*
X190944D01*
X191600Y-71523D01*
Y-72835D01*
X190944Y-73491D01*
X188976D01*
X190288D02*
X191600Y-74803D01*
X192912Y-74147D02*
X193568Y-74803D01*
X194880D01*
X195536Y-74147D01*
Y-71523D01*
X194880Y-70867D01*
X193568D01*
X192912Y-71523D01*
Y-72179D01*
X193568Y-72835D01*
X195536D01*
X149606Y-102362D02*
Y-98427D01*
X151574D01*
X152230Y-99082D01*
Y-100394D01*
X151574Y-101050D01*
X149606D01*
X150918D02*
X152230Y-102362D01*
X153542Y-99082D02*
X154198Y-98427D01*
X155510D01*
X156166Y-99082D01*
Y-99738D01*
X155510Y-100394D01*
X156166Y-101050D01*
Y-101706D01*
X155510Y-102362D01*
X154198D01*
X153542Y-101706D01*
Y-101050D01*
X154198Y-100394D01*
X153542Y-99738D01*
Y-99082D01*
X154198Y-100394D02*
X155510D01*
X379626Y-53150D02*
X383562D01*
Y-55117D01*
X382906Y-55773D01*
X381594D01*
X380938Y-55117D01*
Y-53150D01*
Y-54461D02*
X379626Y-55773D01*
X383562Y-59709D02*
X382906Y-58397D01*
X381594Y-57085D01*
X380282D01*
X379626Y-57741D01*
Y-59053D01*
X380282Y-59709D01*
X380938D01*
X381594Y-59053D01*
Y-57085D01*
X182677Y-105905D02*
Y-101970D01*
X184645D01*
X185301Y-102626D01*
Y-103938D01*
X184645Y-104594D01*
X182677D01*
X183989D02*
X185301Y-105905D01*
X189237Y-101970D02*
X186613D01*
Y-103938D01*
X187925Y-103282D01*
X188581D01*
X189237Y-103938D01*
Y-105250D01*
X188581Y-105905D01*
X187269D01*
X186613Y-105250D01*
X389764Y-54134D02*
Y-50198D01*
X391732D01*
X392388Y-50854D01*
Y-52166D01*
X391732Y-52822D01*
X389764D01*
X391076D02*
X392388Y-54134D01*
X393700Y-50854D02*
X394356Y-50198D01*
X395667D01*
X396323Y-50854D01*
Y-51510D01*
X395667Y-52166D01*
X395011D01*
X395667D01*
X396323Y-52822D01*
Y-53478D01*
X395667Y-54134D01*
X394356D01*
X393700Y-53478D01*
X180637Y-53445D02*
Y-49509D01*
X182605D01*
X183261Y-50165D01*
Y-51477D01*
X182605Y-52133D01*
X180637D01*
X181949D02*
X183261Y-53445D01*
X187197D02*
X184573D01*
X187197Y-50821D01*
Y-50165D01*
X186541Y-49509D01*
X185229D01*
X184573Y-50165D01*
X171289Y-61665D02*
Y-57730D01*
X173257D01*
X173913Y-58386D01*
Y-59698D01*
X173257Y-60353D01*
X171289D01*
X172601D02*
X173913Y-61665D01*
X175225D02*
X176537D01*
X175881D01*
Y-57730D01*
X175225Y-58386D01*
X208332Y-72179D02*
Y-69555D01*
X207677Y-68899D01*
X206365D01*
X205709Y-69555D01*
Y-72179D01*
X206365Y-72835D01*
X207677D01*
X207021Y-71523D02*
X208332Y-72835D01*
X207677D02*
X208332Y-72179D01*
X211612Y-72835D02*
Y-68899D01*
X209644Y-70867D01*
X212268D01*
X393372Y-96785D02*
Y-94161D01*
X392716Y-93505D01*
X391404D01*
X390748Y-94161D01*
Y-96785D01*
X391404Y-97441D01*
X392716D01*
X392060Y-96129D02*
X393372Y-97441D01*
X392716D02*
X393372Y-96785D01*
X394684Y-94161D02*
X395340Y-93505D01*
X396652D01*
X397308Y-94161D01*
Y-94817D01*
X396652Y-95473D01*
X395996D01*
X396652D01*
X397308Y-96129D01*
Y-96785D01*
X396652Y-97441D01*
X395340D01*
X394684Y-96785D01*
X81088Y-64423D02*
Y-61799D01*
X80432Y-61143D01*
X79120D01*
X78465Y-61799D01*
Y-64423D01*
X79120Y-65079D01*
X80432D01*
X79777Y-63767D02*
X81088Y-65079D01*
X80432D02*
X81088Y-64423D01*
X82400Y-65079D02*
X83712D01*
X83056D01*
Y-61143D01*
X82400Y-61799D01*
X10498Y-107088D02*
X9186D01*
X9842D01*
Y-110368D01*
X9186Y-111024D01*
X8530D01*
X7874Y-110368D01*
X11810Y-107744D02*
X12466Y-107088D01*
X13778D01*
X14434Y-107744D01*
Y-108400D01*
X13778Y-109056D01*
X13122D01*
X13778D01*
X14434Y-109712D01*
Y-110368D01*
X13778Y-111024D01*
X12466D01*
X11810Y-110368D01*
X153543Y-68899D02*
Y-72835D01*
X155511D01*
X156167Y-72179D01*
Y-69555D01*
X155511Y-68899D01*
X153543D01*
X157479Y-72835D02*
X158791D01*
X158135D01*
Y-68899D01*
X157479Y-69555D01*
X61679Y-156169D02*
X61023Y-155513D01*
X59711D01*
X59055Y-156169D01*
Y-158793D01*
X59711Y-159449D01*
X61023D01*
X61679Y-158793D01*
X65615Y-159449D02*
X62991D01*
X65615Y-156825D01*
Y-156169D01*
X64959Y-155513D01*
X63647D01*
X62991Y-156169D01*
X66927D02*
X67583Y-155513D01*
X68894D01*
X69550Y-156169D01*
Y-156825D01*
X68894Y-157481D01*
X68239D01*
X68894D01*
X69550Y-158137D01*
Y-158793D01*
X68894Y-159449D01*
X67583D01*
X66927Y-158793D01*
X132350Y-135171D02*
X131694Y-135827D01*
Y-137139D01*
X132350Y-137795D01*
X134974D01*
X135630Y-137139D01*
Y-135827D01*
X134974Y-135171D01*
X135630Y-131236D02*
Y-133860D01*
X133006Y-131236D01*
X132350D01*
X131694Y-131892D01*
Y-133204D01*
X132350Y-133860D01*
X135630Y-127300D02*
Y-129924D01*
X133006Y-127300D01*
X132350D01*
X131694Y-127956D01*
Y-129268D01*
X132350Y-129924D01*
X112862Y-143045D02*
X112206Y-143701D01*
Y-145013D01*
X112862Y-145669D01*
X115486D01*
X116142Y-145013D01*
Y-143701D01*
X115486Y-143045D01*
X116142Y-139110D02*
Y-141734D01*
X113518Y-139110D01*
X112862D01*
X112206Y-139766D01*
Y-141078D01*
X112862Y-141734D01*
X116142Y-137798D02*
Y-136486D01*
Y-137142D01*
X112206D01*
X112862Y-137798D01*
X102689Y-98419D02*
X103345Y-97763D01*
Y-96451D01*
X102689Y-95795D01*
X100065D01*
X99409Y-96451D01*
Y-97763D01*
X100065Y-98419D01*
X99409Y-102355D02*
Y-99731D01*
X102033Y-102355D01*
X102689D01*
X103345Y-101699D01*
Y-100387D01*
X102689Y-99731D01*
Y-103666D02*
X103345Y-104322D01*
Y-105634D01*
X102689Y-106290D01*
X100065D01*
X99409Y-105634D01*
Y-104322D01*
X100065Y-103666D01*
X102689D01*
X234218Y-136484D02*
X233562Y-135828D01*
X232250D01*
X231594Y-136484D01*
Y-139108D01*
X232250Y-139764D01*
X233562D01*
X234218Y-139108D01*
X235530Y-139764D02*
X236842D01*
X236186D01*
Y-135828D01*
X235530Y-136484D01*
X238810Y-139108D02*
X239466Y-139764D01*
X240778D01*
X241434Y-139108D01*
Y-136484D01*
X240778Y-135828D01*
X239466D01*
X238810Y-136484D01*
Y-137140D01*
X239466Y-137796D01*
X241434D01*
X249868Y-57744D02*
X249212Y-57088D01*
X247900D01*
X247244Y-57744D01*
Y-60368D01*
X247900Y-61024D01*
X249212D01*
X249868Y-60368D01*
X251180Y-61024D02*
X252492D01*
X251836D01*
Y-57088D01*
X251180Y-57744D01*
X254460Y-57088D02*
X257083D01*
Y-57744D01*
X254460Y-60368D01*
Y-61024D01*
X75459Y-6563D02*
X74803Y-5907D01*
X73491D01*
X72835Y-6563D01*
Y-9187D01*
X73491Y-9843D01*
X74803D01*
X75459Y-9187D01*
X76770Y-9843D02*
X78082D01*
X77426D01*
Y-5907D01*
X76770Y-6563D01*
X82674Y-5907D02*
X81362Y-6563D01*
X80050Y-7875D01*
Y-9187D01*
X80706Y-9843D01*
X82018D01*
X82674Y-9187D01*
Y-8531D01*
X82018Y-7875D01*
X80050D01*
X47159Y-6563D02*
X46503Y-5907D01*
X45191D01*
X44535Y-6563D01*
Y-9187D01*
X45191Y-9843D01*
X46503D01*
X47159Y-9187D01*
X48471Y-9843D02*
X49783D01*
X49127D01*
Y-5907D01*
X48471Y-6563D01*
X54375Y-5907D02*
X51751D01*
Y-7875D01*
X53063Y-7219D01*
X53719D01*
X54375Y-7875D01*
Y-9187D01*
X53719Y-9843D01*
X52407D01*
X51751Y-9187D01*
X70209Y-82348D02*
X70865Y-81692D01*
Y-80380D01*
X70209Y-79724D01*
X67585D01*
X66929Y-80380D01*
Y-81692D01*
X67585Y-82348D01*
X66929Y-83660D02*
Y-84972D01*
Y-84316D01*
X70865D01*
X70209Y-83660D01*
X66929Y-88908D02*
X70865D01*
X68897Y-86940D01*
Y-89564D01*
X61902Y-87270D02*
X62558Y-86614D01*
Y-85302D01*
X61902Y-84646D01*
X59278D01*
X58622Y-85302D01*
Y-86614D01*
X59278Y-87270D01*
X58622Y-88581D02*
Y-89893D01*
Y-89237D01*
X62558D01*
X61902Y-88581D01*
Y-91861D02*
X62558Y-92517D01*
Y-93829D01*
X61902Y-94485D01*
X61246D01*
X60590Y-93829D01*
Y-93173D01*
Y-93829D01*
X59934Y-94485D01*
X59278D01*
X58622Y-93829D01*
Y-92517D01*
X59278Y-91861D01*
X230972Y-32809D02*
X230316Y-33465D01*
Y-34777D01*
X230972Y-35433D01*
X233596D01*
X234252Y-34777D01*
Y-33465D01*
X233596Y-32809D01*
X234252Y-31497D02*
Y-30185D01*
Y-30841D01*
X230316D01*
X230972Y-31497D01*
X234252Y-25594D02*
Y-28218D01*
X231628Y-25594D01*
X230972D01*
X230316Y-26250D01*
Y-27562D01*
X230972Y-28218D01*
X248689Y-22967D02*
X248033Y-23623D01*
Y-24935D01*
X248689Y-25591D01*
X251312D01*
X251969Y-24935D01*
Y-23623D01*
X251312Y-22967D01*
X251969Y-21655D02*
Y-20343D01*
Y-20999D01*
X248033D01*
X248689Y-21655D01*
X251969Y-18375D02*
Y-17063D01*
Y-17719D01*
X248033D01*
X248689Y-18375D01*
X143392Y-50165D02*
X142736Y-49509D01*
X141425D01*
X140769Y-50165D01*
Y-52789D01*
X141425Y-53445D01*
X142736D01*
X143392Y-52789D01*
X144704Y-53445D02*
X146016D01*
X145360D01*
Y-49509D01*
X144704Y-50165D01*
X147984D02*
X148640Y-49509D01*
X149952D01*
X150608Y-50165D01*
Y-52789D01*
X149952Y-53445D01*
X148640D01*
X147984Y-52789D01*
Y-50165D01*
X167980Y-17061D02*
X167324Y-17717D01*
Y-19029D01*
X167980Y-19685D01*
X170604D01*
X171260Y-19029D01*
Y-17717D01*
X170604Y-17061D01*
Y-15749D02*
X171260Y-15093D01*
Y-13781D01*
X170604Y-13126D01*
X167980D01*
X167324Y-13781D01*
Y-15093D01*
X167980Y-15749D01*
X168636D01*
X169292Y-15093D01*
Y-13126D01*
X158138Y-17061D02*
X157482Y-17717D01*
Y-19029D01*
X158138Y-19685D01*
X160761D01*
X161417Y-19029D01*
Y-17717D01*
X160761Y-17061D01*
X158138Y-15749D02*
X157482Y-15093D01*
Y-13781D01*
X158138Y-13126D01*
X158793D01*
X159450Y-13781D01*
X160105Y-13126D01*
X160761D01*
X161417Y-13781D01*
Y-15093D01*
X160761Y-15749D01*
X160105D01*
X159450Y-15093D01*
X158793Y-15749D01*
X158138D01*
X159450Y-15093D02*
Y-13781D01*
X130577Y-16405D02*
X129921Y-15749D01*
X128609D01*
X127953Y-16405D01*
Y-19029D01*
X128609Y-19685D01*
X129921D01*
X130577Y-19029D01*
X131888Y-15749D02*
X134512D01*
Y-16405D01*
X131888Y-19029D01*
Y-19685D01*
X212113Y-91586D02*
X211457Y-90930D01*
X210145D01*
X209489Y-91586D01*
Y-94209D01*
X210145Y-94865D01*
X211457D01*
X212113Y-94209D01*
X216049Y-90930D02*
X214737Y-91586D01*
X213425Y-92897D01*
Y-94209D01*
X214081Y-94865D01*
X215393D01*
X216049Y-94209D01*
Y-93553D01*
X215393Y-92897D01*
X213425D01*
X200065Y-97114D02*
X199409Y-96458D01*
X198097D01*
X197441Y-97114D01*
Y-99738D01*
X198097Y-100394D01*
X199409D01*
X200065Y-99738D01*
X204000Y-96458D02*
X201377D01*
Y-98426D01*
X202689Y-97770D01*
X203344D01*
X204000Y-98426D01*
Y-99738D01*
X203344Y-100394D01*
X202033D01*
X201377Y-99738D01*
X199313Y-50165D02*
X198657Y-49509D01*
X197345D01*
X196689Y-50165D01*
Y-52789D01*
X197345Y-53445D01*
X198657D01*
X199313Y-52789D01*
X202593Y-53445D02*
Y-49509D01*
X200625Y-51477D01*
X203249D01*
X221130Y-42652D02*
X220474Y-43308D01*
Y-44620D01*
X221130Y-45276D01*
X223753D01*
X224410Y-44620D01*
Y-43308D01*
X223753Y-42652D01*
X221130Y-41340D02*
X220474Y-40684D01*
Y-39372D01*
X221130Y-38716D01*
X221786D01*
X222442Y-39372D01*
Y-40028D01*
Y-39372D01*
X223097Y-38716D01*
X223753D01*
X224410Y-39372D01*
Y-40684D01*
X223753Y-41340D01*
X210709Y-42652D02*
X210053Y-43308D01*
Y-44620D01*
X210709Y-45276D01*
X213333D01*
X213989Y-44620D01*
Y-43308D01*
X213333Y-42652D01*
X213989Y-38716D02*
Y-41340D01*
X211365Y-38716D01*
X210709D01*
X210053Y-39372D01*
Y-40684D01*
X210709Y-41340D01*
X180445Y-32151D02*
X181101Y-31495D01*
Y-30184D01*
X180445Y-29528D01*
X177821D01*
X177165Y-30184D01*
Y-31495D01*
X177821Y-32151D01*
X177165Y-33463D02*
Y-34775D01*
Y-34119D01*
X181101D01*
X180445Y-33463D01*
M02*
