G04*
G04 #@! TF.GenerationSoftware,Altium Limited,Altium Designer,18.1.9 (240)*
G04*
G04 Layer_Color=8388736*
%FSLAX25Y25*%
%MOIN*%
G70*
G01*
G75*
%ADD58R,0.07099X0.04343*%
%ADD59R,0.03556X0.05918*%
%ADD60R,0.04343X0.05918*%
%ADD61O,0.03937X0.01181*%
%ADD62R,0.10446X0.08477*%
%ADD63C,0.06693*%
%ADD64R,0.06706X0.14186*%
%ADD65R,0.04737X0.14580*%
%ADD66C,0.04724*%
%ADD67R,0.06154X0.04186*%
%ADD68R,0.05918X0.03556*%
%ADD69R,0.06902X0.06706*%
%ADD70R,0.05709X0.02165*%
%ADD71R,0.05524X0.03162*%
%ADD72O,0.05524X0.03162*%
%ADD73R,0.03162X0.05524*%
%ADD74R,0.20485X0.20485*%
%ADD75R,0.08674X0.04343*%
%ADD76R,0.04343X0.08674*%
%ADD77R,0.04370X0.01457*%
%ADD78R,0.01457X0.04370*%
%ADD79R,0.13189X0.13189*%
%ADD80R,0.03950X0.03950*%
%ADD81R,0.03162X0.04343*%
%ADD82R,0.05918X0.06902*%
%ADD83R,0.06693X0.06693*%
%ADD84O,0.02756X0.01378*%
%ADD85R,0.02756X0.01378*%
%ADD86R,0.01378X0.02756*%
%ADD87R,0.03950X0.04343*%
%ADD88R,0.01339X0.02756*%
%ADD89R,0.09794X0.06894*%
%ADD90R,0.02965X0.06706*%
%ADD91R,0.03950X0.03950*%
%ADD92R,0.05918X0.04343*%
%ADD93R,0.04343X0.03162*%
%ADD94R,0.05446X0.03202*%
%ADD95R,0.03556X0.06706*%
%ADD96R,0.04737X0.03950*%
%ADD97R,0.03950X0.01981*%
%ADD98C,0.14961*%
%ADD99C,0.07887*%
%ADD100C,0.06343*%
%ADD101C,0.05512*%
%ADD102C,0.04343*%
D58*
X147673Y140551D02*
D03*
Y128347D02*
D03*
X137795Y140551D02*
D03*
Y128347D02*
D03*
X101575Y34055D02*
D03*
Y22638D02*
D03*
X289567Y24213D02*
D03*
Y36417D02*
D03*
X72244Y59842D02*
D03*
Y72047D02*
D03*
X48228Y62992D02*
D03*
Y75197D02*
D03*
D59*
X311221Y77756D02*
D03*
X318701D02*
D03*
X318701Y89567D02*
D03*
X311221D02*
D03*
X107087Y66142D02*
D03*
X99606D02*
D03*
X122228Y82677D02*
D03*
X129709D02*
D03*
X325590Y53740D02*
D03*
X318110D02*
D03*
X274410Y133161D02*
D03*
X266929D02*
D03*
X107087Y44488D02*
D03*
X99606D02*
D03*
Y55315D02*
D03*
X107087D02*
D03*
D60*
X97146Y75590D02*
D03*
X104626D02*
D03*
X151575Y28740D02*
D03*
X159055D02*
D03*
X196850Y151083D02*
D03*
X181890D02*
D03*
X116732D02*
D03*
X131693D02*
D03*
D61*
X132480Y29528D02*
D03*
Y31102D02*
D03*
Y32677D02*
D03*
Y34252D02*
D03*
Y35827D02*
D03*
Y37402D02*
D03*
X117126D02*
D03*
Y35827D02*
D03*
Y34252D02*
D03*
Y32677D02*
D03*
Y31102D02*
D03*
Y29528D02*
D03*
D62*
X124803Y33465D02*
D03*
D63*
X119291Y71653D02*
D03*
X19291Y61417D02*
D03*
X224213Y121063D02*
D03*
X155965Y145276D02*
D03*
D64*
X44882Y9843D02*
D03*
X71260D02*
D03*
D65*
X54134Y32480D02*
D03*
X62008D02*
D03*
D66*
X287795Y81496D02*
D03*
X288583Y89567D02*
D03*
X43807Y82571D02*
D03*
D67*
X12992Y53839D02*
D03*
Y46161D02*
D03*
D68*
X27953Y53347D02*
D03*
Y45866D02*
D03*
X393701Y114961D02*
D03*
Y107480D02*
D03*
X309055Y52756D02*
D03*
Y60236D02*
D03*
X146850Y78937D02*
D03*
Y86417D02*
D03*
X166535Y127362D02*
D03*
Y134843D02*
D03*
X54921Y109646D02*
D03*
Y117126D02*
D03*
X45630Y109646D02*
D03*
Y117126D02*
D03*
X64213Y109646D02*
D03*
Y117126D02*
D03*
X382874Y114961D02*
D03*
Y107480D02*
D03*
X372047Y114961D02*
D03*
Y107480D02*
D03*
X100787Y126969D02*
D03*
Y134449D02*
D03*
D69*
X6890Y70669D02*
D03*
Y94685D02*
D03*
Y78740D02*
D03*
Y86614D02*
D03*
D70*
X17421Y77559D02*
D03*
Y80118D02*
D03*
Y82677D02*
D03*
Y85236D02*
D03*
Y87795D02*
D03*
D71*
X407087Y77598D02*
D03*
Y82598D02*
D03*
X390354Y87598D02*
D03*
Y82598D02*
D03*
Y77598D02*
D03*
D72*
X407087Y87598D02*
D03*
D73*
X403721Y94646D02*
D03*
X393721D02*
D03*
Y70079D02*
D03*
X403721D02*
D03*
D74*
X233465Y58268D02*
D03*
D75*
X262992Y28740D02*
D03*
Y33740D02*
D03*
Y38740D02*
D03*
Y43740D02*
D03*
Y48740D02*
D03*
Y53740D02*
D03*
Y58740D02*
D03*
Y63740D02*
D03*
Y68740D02*
D03*
Y73740D02*
D03*
Y78740D02*
D03*
Y83740D02*
D03*
Y88740D02*
D03*
Y93740D02*
D03*
X196063D02*
D03*
Y88740D02*
D03*
Y83740D02*
D03*
Y78740D02*
D03*
Y73740D02*
D03*
Y68740D02*
D03*
Y63740D02*
D03*
Y58740D02*
D03*
Y53740D02*
D03*
Y48740D02*
D03*
Y43740D02*
D03*
Y38740D02*
D03*
Y33740D02*
D03*
Y28740D02*
D03*
D76*
X252028Y97677D02*
D03*
X247028D02*
D03*
X242028D02*
D03*
X237028D02*
D03*
X232028D02*
D03*
X227028D02*
D03*
X222028D02*
D03*
X217028D02*
D03*
X212028D02*
D03*
X207028D02*
D03*
D77*
X55276Y96063D02*
D03*
Y94095D02*
D03*
Y92126D02*
D03*
Y90158D02*
D03*
Y88189D02*
D03*
Y86221D02*
D03*
Y84252D02*
D03*
X73858D02*
D03*
Y86221D02*
D03*
Y88189D02*
D03*
Y90158D02*
D03*
Y92126D02*
D03*
Y94095D02*
D03*
Y96063D02*
D03*
D78*
X58661Y80866D02*
D03*
X60630D02*
D03*
X62598D02*
D03*
X64567D02*
D03*
X66535D02*
D03*
X68504D02*
D03*
X70473D02*
D03*
Y99449D02*
D03*
X68504D02*
D03*
X66535D02*
D03*
X64567D02*
D03*
X62598D02*
D03*
X60630D02*
D03*
X58661D02*
D03*
D79*
X64567Y90158D02*
D03*
D80*
X289370Y66535D02*
D03*
X295276D02*
D03*
X169488Y108268D02*
D03*
X163583D02*
D03*
X288583Y43740D02*
D03*
X294488D02*
D03*
X249035Y122571D02*
D03*
X243130D02*
D03*
X143898Y38958D02*
D03*
X137992D02*
D03*
D81*
X148622Y20079D02*
D03*
X142717D02*
D03*
D82*
X156693Y67028D02*
D03*
Y98327D02*
D03*
X174409Y67028D02*
D03*
Y98327D02*
D03*
D83*
X126772Y57874D02*
D03*
D84*
X132283Y54921D02*
D03*
D85*
Y56890D02*
D03*
Y58858D02*
D03*
Y60827D02*
D03*
X121260D02*
D03*
Y58858D02*
D03*
Y56890D02*
D03*
Y54921D02*
D03*
D86*
X129724Y63386D02*
D03*
X127756D02*
D03*
X125787D02*
D03*
X123819D02*
D03*
Y52362D02*
D03*
X125787D02*
D03*
X127756D02*
D03*
X129724D02*
D03*
D87*
X119685Y100236D02*
D03*
X127165D02*
D03*
X123425Y92362D02*
D03*
X106102D02*
D03*
X98622D02*
D03*
X102362Y100236D02*
D03*
D88*
X127953Y136024D02*
D03*
X125984D02*
D03*
X124016D02*
D03*
X122047D02*
D03*
X120079D02*
D03*
Y124424D02*
D03*
X122047D02*
D03*
X124016D02*
D03*
X125984D02*
D03*
X127953D02*
D03*
X193701D02*
D03*
X191732D02*
D03*
X189764D02*
D03*
X187795D02*
D03*
X185827D02*
D03*
Y136024D02*
D03*
X187795D02*
D03*
X189764D02*
D03*
X191732D02*
D03*
X193701D02*
D03*
D89*
X124016Y130224D02*
D03*
X189764D02*
D03*
D90*
X285728Y53543D02*
D03*
X298524D02*
D03*
X242835Y133161D02*
D03*
X255630D02*
D03*
D91*
X185827Y118110D02*
D03*
Y112205D02*
D03*
X279724Y36417D02*
D03*
Y30512D02*
D03*
X120079Y118110D02*
D03*
Y112205D02*
D03*
X80709Y65748D02*
D03*
Y59842D02*
D03*
X39764Y75197D02*
D03*
Y69291D02*
D03*
D92*
X212992Y127854D02*
D03*
Y135335D02*
D03*
X203543Y127854D02*
D03*
Y135335D02*
D03*
X175591Y134449D02*
D03*
Y126969D02*
D03*
X110236Y134055D02*
D03*
Y126575D02*
D03*
D93*
X74410Y111614D02*
D03*
Y117520D02*
D03*
X82284Y117520D02*
D03*
Y111614D02*
D03*
D94*
X365059Y86279D02*
D03*
Y79075D02*
D03*
X373130Y82677D02*
D03*
D95*
X172638Y18307D02*
D03*
X160827D02*
D03*
X178543D02*
D03*
D96*
X155315Y7618D02*
D03*
X184055D02*
D03*
X155315Y15216D02*
D03*
X184055D02*
D03*
D97*
X112779Y79724D02*
D03*
Y84842D02*
D03*
D98*
X421260Y27559D02*
D03*
X433071Y145669D02*
D03*
X31496Y137795D02*
D03*
X19685Y19685D02*
D03*
D99*
X6890Y68898D02*
D03*
Y96457D02*
D03*
D100*
X17520Y72835D02*
D03*
Y92520D02*
D03*
D101*
X335630Y97598D02*
D03*
Y87598D02*
D03*
Y77598D02*
D03*
Y67598D02*
D03*
D102*
X163779Y11417D02*
D03*
X175591D02*
D03*
M02*
