G04*
G04 #@! TF.GenerationSoftware,Altium Limited,Altium Designer,18.1.9 (240)*
G04*
G04 Layer_Physical_Order=1*
G04 Layer_Color=255*
%FSLAX25Y25*%
%MOIN*%
G70*
G01*
G75*
%ADD12C,0.01181*%
%ADD14C,0.00787*%
%ADD17C,0.01000*%
%ADD18R,0.06299X0.03543*%
%ADD19R,0.02756X0.05118*%
%ADD20R,0.03543X0.05118*%
%ADD21O,0.03543X0.00787*%
%ADD22R,0.09646X0.07677*%
%ADD23C,0.05906*%
%ADD24R,0.05906X0.13386*%
%ADD25R,0.03937X0.13780*%
%ADD26C,0.03937*%
%ADD27R,0.05354X0.03386*%
%ADD28R,0.05118X0.02756*%
%ADD29R,0.06102X0.05906*%
%ADD30R,0.05315X0.01772*%
%ADD31R,0.04724X0.02362*%
%ADD32O,0.04724X0.02362*%
%ADD33R,0.02362X0.04724*%
%ADD34R,0.19685X0.19685*%
%ADD35R,0.07874X0.03543*%
%ADD36R,0.03543X0.07874*%
%ADD37R,0.03976X0.01063*%
%ADD38R,0.01063X0.03976*%
%ADD39R,0.12795X0.12795*%
%ADD40R,0.03150X0.03150*%
%ADD41R,0.02362X0.03543*%
%ADD42R,0.05118X0.06102*%
%ADD43R,0.06299X0.06299*%
%ADD44O,0.02362X0.00984*%
%ADD45R,0.02362X0.00984*%
%ADD46R,0.00984X0.02362*%
%ADD47R,0.03150X0.03543*%
%ADD48R,0.00945X0.02362*%
%ADD49R,0.09400X0.06500*%
%ADD50R,0.02165X0.05906*%
%ADD51R,0.03150X0.03150*%
%ADD52R,0.05118X0.03543*%
%ADD53R,0.03543X0.02362*%
%ADD54R,0.04646X0.02402*%
%ADD55R,0.02756X0.05906*%
%ADD56R,0.03937X0.03150*%
%ADD57R,0.03150X0.01181*%
%ADD66C,0.04724*%
%ADD103C,0.01968*%
%ADD104C,0.00600*%
%ADD105C,0.25591*%
%ADD106C,0.07087*%
%ADD107C,0.05543*%
%ADD108C,0.03543*%
%ADD109C,0.02362*%
G36*
X137008Y154724D02*
Y147244D01*
X135827Y146063D01*
X133016D01*
X126717Y139764D01*
X124803D01*
Y154921D01*
X125787Y155905D01*
X135827D01*
X137008Y154724D01*
D02*
G37*
G36*
X124016D02*
Y141339D01*
X122441Y139764D01*
X121260D01*
X118504Y142520D01*
X114960Y146063D01*
X113386Y146063D01*
X112205Y147244D01*
X112205Y155118D01*
X112992Y155905D01*
X122835D01*
X124016Y154724D01*
D02*
G37*
G36*
X202756Y154331D02*
Y146850D01*
X201575Y145669D01*
X198765D01*
X192465Y139370D01*
X190551D01*
Y154527D01*
X191535Y155512D01*
X201575D01*
X202756Y154331D01*
D02*
G37*
G36*
X189764D02*
Y140945D01*
X188189Y139370D01*
X187008D01*
X184252Y142126D01*
X180708Y145669D01*
X179134Y145669D01*
X177953Y146850D01*
X177953Y154724D01*
X178740Y155512D01*
X188583D01*
X189764Y154331D01*
D02*
G37*
G36*
X155965Y142461D02*
X155965Y132795D01*
X155571Y132402D01*
X131555D01*
X130709Y133248D01*
Y139035D01*
Y141176D01*
X134292Y144291D01*
X154134D01*
X155965Y142461D01*
D02*
G37*
G36*
X221713Y138673D02*
Y132374D01*
X221319Y131980D01*
X197303D01*
X196457Y132827D01*
Y138614D01*
Y138673D01*
X196909Y139067D01*
X221319D01*
X221713Y138673D01*
D02*
G37*
G36*
X182496Y138123D02*
Y132480D01*
X180724Y130709D01*
X160646D01*
X159858Y131496D01*
Y138189D01*
X160777Y139108D01*
X181512D01*
X182496Y138123D01*
D02*
G37*
G36*
X117126D02*
Y132480D01*
X115354Y130709D01*
X95276D01*
X94488Y131496D01*
Y138189D01*
X95407Y139108D01*
X116142D01*
X117126Y138123D01*
D02*
G37*
G36*
X51968Y82677D02*
X53543Y81102D01*
X53543Y72441D01*
X52756Y71653D01*
X36220Y71653D01*
X36220Y84410D01*
X38090Y86279D01*
X46764Y86279D01*
X47160Y86015D01*
X47816Y85884D01*
X48472Y86015D01*
X48868Y86279D01*
X51968D01*
Y82677D01*
D02*
G37*
G36*
X140984Y59556D02*
X141150Y59390D01*
X141240Y59173D01*
Y59055D01*
Y56791D01*
Y56674D01*
X141150Y56457D01*
X140984Y56291D01*
X140767Y56201D01*
X131398D01*
X131217Y56276D01*
X131079Y56414D01*
X131004Y56595D01*
Y56693D01*
Y59547D01*
Y59567D01*
X131019Y59603D01*
X131047Y59631D01*
X131083Y59646D01*
X140767D01*
X140984Y59556D01*
D02*
G37*
G36*
X140098Y40855D02*
X140264Y40689D01*
X140354Y40472D01*
Y40354D01*
Y37500D01*
Y37383D01*
X140264Y37165D01*
X140098Y36999D01*
X139881Y36909D01*
X130985D01*
X130768Y36999D01*
X130602Y37165D01*
X130512Y37383D01*
Y37500D01*
Y38091D01*
X130502Y38187D01*
X130429Y38364D01*
X130293Y38500D01*
X130116Y38573D01*
X130020Y38583D01*
X128638D01*
X128504Y38638D01*
X128402Y38740D01*
X128347Y38874D01*
Y38946D01*
Y40945D01*
X139881D01*
X140098Y40855D01*
D02*
G37*
G36*
X92077Y44844D02*
X92722Y44577D01*
X93302Y44189D01*
X93796Y43696D01*
X94183Y43115D01*
X94450Y42470D01*
X94587Y41786D01*
Y41437D01*
Y30315D01*
X94619Y29989D01*
X94869Y29385D01*
X95330Y28924D01*
X95933Y28674D01*
X96260Y28642D01*
X104192D01*
X104662Y28447D01*
X105022Y28087D01*
X105217Y27617D01*
Y27362D01*
Y16043D01*
Y15828D01*
X105052Y15430D01*
X104747Y15125D01*
X104349Y14961D01*
X85827D01*
X70473Y30512D01*
Y38748D01*
X70453Y38946D01*
X70301Y39312D01*
X70021Y39593D01*
X69655Y39744D01*
X69457Y39764D01*
X66694D01*
X66260Y39944D01*
X65928Y40276D01*
X65748Y40710D01*
Y40945D01*
Y44488D01*
Y44586D01*
X65823Y44767D01*
X65961Y44905D01*
X66142Y44980D01*
X91392D01*
X92077Y44844D01*
D02*
G37*
D12*
X148622Y20079D02*
X159055D01*
X129528Y39764D02*
X135827D01*
X297638Y66535D02*
X306496D01*
X295276D02*
X297638D01*
X306496D02*
X309055Y63976D01*
Y60236D02*
Y63976D01*
X62598Y92126D02*
X64567Y90158D01*
X55276Y92126D02*
X62598D01*
X372047Y114961D02*
X375984Y111024D01*
X379331D01*
X382874Y107480D01*
X382874Y107480D01*
X393701D01*
X220472Y123577D02*
Y132795D01*
X191732Y138222D02*
Y142366D01*
X187795Y138071D02*
Y140945D01*
X50246Y86221D02*
X55276D01*
X114960Y138583D02*
X115026Y138648D01*
X119501D01*
X180708Y138222D02*
X181069Y138583D01*
X185039D01*
X21654Y77559D02*
X22047Y77165D01*
X17421Y77559D02*
X21654D01*
X125696Y128543D02*
X125984Y128255D01*
X390354Y82598D02*
Y87598D01*
X373130Y82677D02*
X373209Y82598D01*
X390354D01*
X159055Y20079D02*
X160827Y18307D01*
X115748Y61417D02*
Y65354D01*
X112779Y84842D02*
Y88724D01*
Y84842D02*
X115761D01*
X117926Y82677D01*
X122228D01*
X156299Y43307D02*
X168504D01*
X130709D02*
X135039D01*
X168504D02*
X172441Y39370D01*
Y19488D02*
Y39370D01*
X12992Y46161D02*
X13287Y45866D01*
X27953D01*
X115748Y61417D02*
X116535Y60630D01*
X115748Y57874D02*
Y61417D01*
X108794Y60630D02*
X113961Y55463D01*
X92520Y60630D02*
X108794D01*
X113961Y51394D02*
Y55463D01*
X127756Y46260D02*
X130709Y43307D01*
X72244Y72047D02*
Y74213D01*
X70866Y75590D02*
X72244Y74213D01*
X60669Y75590D02*
X70866D01*
X58661Y77598D02*
X60669Y75590D01*
X58661Y77598D02*
Y80866D01*
X14567Y87795D02*
X17421D01*
X12205Y85433D02*
X14567Y87795D01*
X12205Y68504D02*
Y85433D01*
X88189Y64961D02*
X92520Y60630D01*
X113961Y51394D02*
X117913Y47441D01*
X121471D01*
X170079Y118110D02*
X185827D01*
X166535Y121653D02*
X170079Y118110D01*
X166535Y121653D02*
Y127362D01*
X185827Y122441D02*
X185827Y118110D01*
X189764Y122047D02*
X189764Y118898D01*
X188976Y118110D02*
X189764Y118898D01*
X185827Y118110D02*
X188976D01*
X185827D02*
X187795Y120079D01*
X187795Y122047D02*
X187795Y120079D01*
X217368Y120472D02*
X220472Y123577D01*
X195276Y120472D02*
X217368D01*
X193701Y122047D02*
X195276Y120472D01*
X189764Y130224D02*
Y136024D01*
X191732Y124424D02*
Y128255D01*
X125984Y138616D02*
Y141339D01*
X122047Y138976D02*
Y140748D01*
X124016Y130224D02*
Y136024D01*
X125984Y124424D02*
Y128255D01*
X155118Y123971D02*
Y133252D01*
X151620Y120472D02*
X155118Y123971D01*
X129528Y120472D02*
X151620D01*
X128740Y138616D02*
X132251D01*
X127953Y122047D02*
X129528Y120472D01*
X100787Y121760D02*
Y126969D01*
Y121760D02*
X104437Y118110D01*
X120079D01*
X122047Y122047D02*
X122047Y120079D01*
X120079Y118110D02*
X122047Y120079D01*
X120079Y118110D02*
X123228D01*
X124016Y118898D01*
X124016Y122047D02*
X124016Y118898D01*
X120079Y122441D02*
X120079Y118110D01*
X131693Y150295D02*
Y151083D01*
X116732Y150295D02*
Y151083D01*
D14*
X148819Y36614D02*
Y45669D01*
X130034Y63695D02*
Y82352D01*
X129724Y63386D02*
X130034Y63695D01*
X129709Y82677D02*
X130034Y82352D01*
X132480Y37402D02*
X136436D01*
X137992Y38958D01*
Y39764D01*
X135827D02*
X137992D01*
X112402Y35827D02*
X117126D01*
X101575Y25000D02*
X112402Y35827D01*
X101575Y22638D02*
Y25000D01*
X111917Y37402D02*
X117126D01*
X108571Y34055D02*
X111917Y37402D01*
X101575Y34055D02*
X108571D01*
X191732Y73740D02*
X196063D01*
X190039D02*
X191732D01*
X188583Y75197D02*
X190039Y73740D01*
X187563Y78740D02*
X196063D01*
X184252Y65748D02*
Y75429D01*
X187563Y78740D01*
X158661Y88583D02*
X178543D01*
X156102Y86417D02*
X180905D01*
X144949Y97571D02*
X156102Y86417D01*
X180905D02*
X188228Y93740D01*
X156693Y90551D02*
X158661Y88583D01*
X156693Y90551D02*
Y98327D01*
Y101378D02*
X163583Y108268D01*
X156693Y98327D02*
Y101378D01*
X174409Y98327D02*
Y103347D01*
X169488Y108268D02*
X174409Y103347D01*
X188228Y93740D02*
X196063D01*
X309055Y52756D02*
X310039Y53740D01*
X318110D01*
X269724Y38740D02*
X274724Y43740D01*
X288583D01*
X293071Y48228D01*
X304528D01*
X309055Y52756D01*
X285728Y53543D02*
Y60532D01*
X289370Y64173D01*
Y66535D01*
X124803Y33465D02*
X125591Y32677D01*
X132480D01*
X262992Y38740D02*
X269724D01*
X194488Y138222D02*
X198064D01*
X198425Y138583D01*
X126772Y57874D02*
X127756Y58858D01*
X125787D02*
X126772Y57874D01*
X123819Y60827D02*
X125787Y58858D01*
X123819Y60827D02*
Y63386D01*
X127756Y58858D02*
Y63386D01*
X49213Y84252D02*
X55276D01*
X48868Y84842D02*
X50246Y86221D01*
X196063Y43740D02*
X199252D01*
X201968Y46457D01*
X87795Y114173D02*
Y117307D01*
X85827Y119276D02*
X87795Y117307D01*
X84039Y119276D02*
X85827D01*
X82284Y117520D02*
X84039Y119276D01*
X191247Y128740D02*
X191732Y128255D01*
X365059Y86279D02*
Y118209D01*
X367717Y120866D01*
X380709D01*
X382874Y118701D01*
Y114961D02*
Y118701D01*
X196063Y68740D02*
X196299Y68504D01*
X205906D01*
X354724Y87795D02*
X356240Y86279D01*
X365059D01*
X407087Y87598D02*
X411417Y91929D01*
Y114567D01*
X406693Y119291D02*
X411417Y114567D01*
X394882Y119291D02*
X406693D01*
X393701Y118110D02*
X394882Y119291D01*
X393701Y114961D02*
Y118110D01*
X196063Y93740D02*
Y104134D01*
X200591Y108661D01*
X205118D01*
X235039Y112598D02*
X273425D01*
X278346Y117520D01*
Y129224D01*
X274410Y133161D02*
X278346Y129224D01*
X207028Y97677D02*
Y101240D01*
X206299Y101969D02*
X207028Y101240D01*
X198425Y101969D02*
X206299D01*
X75622Y102331D02*
X77716Y100236D01*
X67791Y103618D02*
X79453D01*
X83465Y99606D01*
X69457Y102331D02*
X75622D01*
X68504Y101378D02*
X69457Y102331D01*
X66548Y102375D02*
X67791Y103618D01*
X68504Y99449D02*
Y101378D01*
X66535Y99449D02*
Y102362D01*
X66548Y102375D01*
X168996Y92913D02*
X174409Y98327D01*
X162598Y92913D02*
X168996D01*
X146850Y89335D02*
X147673Y90158D01*
X146850Y86417D02*
Y89335D01*
X125220Y97571D02*
X144949D01*
X122555Y100236D02*
X125220Y97571D01*
X119685Y100236D02*
X122555D01*
X117323Y92362D02*
X123425D01*
X83465Y88976D02*
Y99606D01*
Y88976D02*
X90945Y81496D01*
X104331D01*
X106102Y83268D01*
Y92362D01*
X257323Y38740D02*
X262992D01*
X253543Y42520D02*
X257323Y38740D01*
X253543Y42520D02*
Y62205D01*
X250847Y73228D02*
X256693Y79075D01*
X250194Y74803D02*
X255405Y80014D01*
X217077Y74803D02*
X250194D01*
X209842Y67569D02*
X217077Y74803D01*
X102362Y100236D02*
X108898D01*
X121496Y105905D02*
X127165Y100236D01*
X116181Y105905D02*
X121496D01*
X112244Y109843D02*
X116181Y105905D01*
X112205Y109843D02*
X112244D01*
X64213Y119724D02*
X66535Y122047D01*
X64213Y117126D02*
Y119724D01*
X148819Y28740D02*
X151575D01*
X147244Y27165D02*
X148819Y28740D01*
X146063Y27165D02*
X147244D01*
X138976Y29528D02*
X139370Y29921D01*
X139442Y32927D02*
X139764D01*
X137617Y31102D02*
X139442Y32927D01*
X132480Y29528D02*
X138976D01*
X132480Y31102D02*
X137617D01*
X135433Y35827D02*
X136220Y35040D01*
X151969Y45669D02*
X153150Y46850D01*
X151969Y35039D02*
Y45669D01*
X148819D02*
X152075Y48925D01*
X132480Y35827D02*
X135433D01*
X113961Y28346D02*
Y28921D01*
X114567Y29528D01*
X117126D01*
X297638Y66535D02*
X298524Y65650D01*
Y53543D02*
Y65650D01*
X249035Y122571D02*
X255630Y129165D01*
Y133161D01*
X266929D01*
X128740Y88583D02*
X134646D01*
X96850Y86614D02*
X102756D01*
X112779Y79724D02*
X112992Y79512D01*
Y71260D02*
Y79512D01*
X118307Y62205D02*
X119685Y60827D01*
X121260D01*
X134055Y54921D02*
X135827Y53150D01*
X132283Y54921D02*
X134055D01*
X195984Y48819D02*
X196063Y48740D01*
X189961Y48819D02*
X195984D01*
X186221Y48228D02*
Y50787D01*
X184843Y46850D02*
X186221Y48228D01*
X153150Y46850D02*
X184843D01*
X186221Y50787D02*
X189173Y53740D01*
X196063D01*
X150000Y56693D02*
X182087D01*
X140945Y65748D02*
X150000Y56693D01*
X140945Y65748D02*
Y82284D01*
X134646Y88583D02*
X140945Y82284D01*
X91339Y92126D02*
X96850Y86614D01*
X91339Y92126D02*
Y118504D01*
X88386Y121457D02*
X91339Y118504D01*
X80512Y121457D02*
X88386D01*
X79134Y120079D02*
X80512Y121457D01*
X79134Y109843D02*
Y120079D01*
X78347Y109055D02*
X79134Y109843D01*
X76968Y109055D02*
X78347D01*
X76968Y109055D02*
X76968Y109055D01*
X74410Y111614D02*
X76968Y109055D01*
X74410Y117520D02*
Y123228D01*
X73228Y124409D02*
X74410Y123228D01*
X57874Y124409D02*
X73228D01*
X54921Y121457D02*
X57874Y124409D01*
X54921Y117126D02*
Y121457D01*
X94646Y92362D02*
X98622D01*
X93307Y93701D02*
X94646Y92362D01*
X93307Y93701D02*
Y121653D01*
X88583Y126378D02*
X93307Y121653D01*
X51621Y126378D02*
X88583D01*
X45630Y120387D02*
X51621Y126378D01*
X45630Y117126D02*
Y120387D01*
X152075Y48925D02*
X182480D01*
X311221Y89567D02*
X317717Y83071D01*
X330157D01*
X288583Y89567D02*
X311221D01*
X258077Y99280D02*
X271980D01*
X255405Y96609D02*
X258077Y99280D01*
X281693Y89567D02*
X288583D01*
X271980Y99280D02*
X281693Y89567D01*
X255405Y80014D02*
Y96609D01*
X330157Y83071D02*
X335630Y77598D01*
X209842Y59842D02*
Y67569D01*
X207480Y40945D02*
Y48819D01*
Y57480D02*
X209842Y59842D01*
X205276Y38740D02*
X207480Y40945D01*
X186221Y42913D02*
X190394Y38740D01*
X196063D02*
X205276D01*
X190394D02*
X196063D01*
X271586Y97705D02*
X287795Y81496D01*
X291080Y77953D02*
X310827D01*
X287795Y81238D02*
Y81496D01*
X258729Y97705D02*
X271586D01*
X256693Y95669D02*
X258729Y97705D01*
X256693Y79075D02*
Y95669D01*
X311221Y77559D02*
X321181Y67598D01*
X335630D01*
X287795Y81238D02*
X291080Y77953D01*
X310827D02*
X311221Y77559D01*
X217323Y73228D02*
X250847D01*
X211417Y67323D02*
X217323Y73228D01*
X211417Y56496D02*
Y67323D01*
X208661Y53740D02*
X211417Y56496D01*
X196063Y53740D02*
X208661D01*
X115748Y57874D02*
X116732Y56890D01*
X116602Y54921D02*
X121260D01*
X113870Y57653D02*
X116602Y54921D01*
X113870Y57653D02*
Y62221D01*
X109949Y66142D02*
X113870Y62221D01*
X107087Y66142D02*
X109949D01*
X127756Y46260D02*
Y52362D01*
X121471Y47441D02*
X123819Y49789D01*
Y52362D01*
X116732Y56890D02*
X121260D01*
X116535Y60630D02*
X118307Y58858D01*
X121260D01*
X185039Y138583D02*
X185827Y137795D01*
Y136024D02*
Y137795D01*
X191732Y136024D02*
Y138222D01*
X187795Y136024D02*
Y138071D01*
X185827Y122441D02*
X185827Y124424D01*
X187795Y122047D02*
X187795Y124424D01*
X189764Y122047D02*
X189764Y124424D01*
X193701Y122047D02*
Y124424D01*
Y137434D02*
X194488Y138222D01*
X193701Y136024D02*
Y137434D01*
X125984Y136024D02*
Y138616D01*
X120079Y136024D02*
Y138071D01*
X119501Y138648D02*
X120079Y138071D01*
X122047Y136024D02*
Y138976D01*
X127953Y137828D02*
X128740Y138616D01*
X127953Y136024D02*
Y137828D01*
Y122047D02*
Y124424D01*
X124016Y122047D02*
X124016Y124424D01*
X122047Y122047D02*
X122047Y124424D01*
X120079Y122441D02*
X120079Y124424D01*
X107087Y55315D02*
X110236D01*
X111811Y53740D01*
Y47244D02*
Y53740D01*
X113779Y32677D02*
X117126D01*
X117126Y37402D02*
X117126Y37402D01*
D17*
X196063Y88740D02*
X196221Y88583D01*
X205906D01*
X367717Y107480D02*
X372047D01*
Y101969D02*
Y107480D01*
Y101969D02*
X374016Y100000D01*
X401968D01*
X403721Y98248D01*
Y94646D02*
Y98248D01*
D18*
X147673Y140551D02*
D03*
Y128347D02*
D03*
X137795Y140551D02*
D03*
Y128347D02*
D03*
X101575Y34055D02*
D03*
Y22638D02*
D03*
X289567Y24213D02*
D03*
Y36417D02*
D03*
X72244Y59842D02*
D03*
Y72047D02*
D03*
X48228Y62992D02*
D03*
Y75197D02*
D03*
D19*
X311221Y77756D02*
D03*
X318701D02*
D03*
X318701Y89567D02*
D03*
X311221D02*
D03*
X107087Y66142D02*
D03*
X99606D02*
D03*
X122228Y82677D02*
D03*
X129709D02*
D03*
X325590Y53740D02*
D03*
X318110D02*
D03*
X274410Y133161D02*
D03*
X266929D02*
D03*
X107087Y44488D02*
D03*
X99606D02*
D03*
Y55315D02*
D03*
X107087D02*
D03*
D20*
X97146Y75590D02*
D03*
X104626D02*
D03*
X151575Y28740D02*
D03*
X159055D02*
D03*
X196850Y151083D02*
D03*
X181890D02*
D03*
X116732D02*
D03*
X131693D02*
D03*
D21*
X132480Y29528D02*
D03*
Y31102D02*
D03*
Y32677D02*
D03*
Y34252D02*
D03*
Y35827D02*
D03*
Y37402D02*
D03*
X117126D02*
D03*
Y35827D02*
D03*
Y34252D02*
D03*
Y32677D02*
D03*
Y31102D02*
D03*
Y29528D02*
D03*
D22*
X124803Y33465D02*
D03*
D23*
X119291Y71653D02*
D03*
X19291Y61417D02*
D03*
X224213Y121063D02*
D03*
X155965Y145276D02*
D03*
D24*
X44882Y9843D02*
D03*
X71260D02*
D03*
D25*
X54134Y32480D02*
D03*
X62008D02*
D03*
D26*
X287795Y81496D02*
D03*
X288583Y89567D02*
D03*
X43807Y82571D02*
D03*
D27*
X12992Y53839D02*
D03*
Y46161D02*
D03*
D28*
X27953Y53347D02*
D03*
Y45866D02*
D03*
X393701Y114961D02*
D03*
Y107480D02*
D03*
X309055Y52756D02*
D03*
Y60236D02*
D03*
X146850Y78937D02*
D03*
Y86417D02*
D03*
X166535Y127362D02*
D03*
Y134843D02*
D03*
X54921Y109646D02*
D03*
Y117126D02*
D03*
X45630Y109646D02*
D03*
Y117126D02*
D03*
X64213Y109646D02*
D03*
Y117126D02*
D03*
X382874Y114961D02*
D03*
Y107480D02*
D03*
X372047Y114961D02*
D03*
Y107480D02*
D03*
X100787Y126969D02*
D03*
Y134449D02*
D03*
D29*
X6890Y70669D02*
D03*
Y94685D02*
D03*
Y78740D02*
D03*
Y86614D02*
D03*
D30*
X17421Y77559D02*
D03*
Y80118D02*
D03*
Y82677D02*
D03*
Y85236D02*
D03*
Y87795D02*
D03*
D31*
X407087Y77598D02*
D03*
Y82598D02*
D03*
X390354Y87598D02*
D03*
Y82598D02*
D03*
Y77598D02*
D03*
D32*
X407087Y87598D02*
D03*
D33*
X403721Y94646D02*
D03*
X393721D02*
D03*
Y70079D02*
D03*
X403721D02*
D03*
D34*
X233465Y58268D02*
D03*
D35*
X262992Y28740D02*
D03*
Y33740D02*
D03*
Y38740D02*
D03*
Y43740D02*
D03*
Y48740D02*
D03*
Y53740D02*
D03*
Y58740D02*
D03*
Y63740D02*
D03*
Y68740D02*
D03*
Y73740D02*
D03*
Y78740D02*
D03*
Y83740D02*
D03*
Y88740D02*
D03*
Y93740D02*
D03*
X196063D02*
D03*
Y88740D02*
D03*
Y83740D02*
D03*
Y78740D02*
D03*
Y73740D02*
D03*
Y68740D02*
D03*
Y63740D02*
D03*
Y58740D02*
D03*
Y53740D02*
D03*
Y48740D02*
D03*
Y43740D02*
D03*
Y38740D02*
D03*
Y33740D02*
D03*
Y28740D02*
D03*
D36*
X252028Y97677D02*
D03*
X247028D02*
D03*
X242028D02*
D03*
X237028D02*
D03*
X232028D02*
D03*
X227028D02*
D03*
X222028D02*
D03*
X217028D02*
D03*
X212028D02*
D03*
X207028D02*
D03*
D37*
X55276Y96063D02*
D03*
Y94095D02*
D03*
Y92126D02*
D03*
Y90158D02*
D03*
Y88189D02*
D03*
Y86221D02*
D03*
Y84252D02*
D03*
X73858D02*
D03*
Y86221D02*
D03*
Y88189D02*
D03*
Y90158D02*
D03*
Y92126D02*
D03*
Y94095D02*
D03*
Y96063D02*
D03*
D38*
X58661Y80866D02*
D03*
X60630D02*
D03*
X62598D02*
D03*
X64567D02*
D03*
X66535D02*
D03*
X68504D02*
D03*
X70473D02*
D03*
Y99449D02*
D03*
X68504D02*
D03*
X66535D02*
D03*
X64567D02*
D03*
X62598D02*
D03*
X60630D02*
D03*
X58661D02*
D03*
D39*
X64567Y90158D02*
D03*
D40*
X289370Y66535D02*
D03*
X295276D02*
D03*
X169488Y108268D02*
D03*
X163583D02*
D03*
X288583Y43740D02*
D03*
X294488D02*
D03*
X249035Y122571D02*
D03*
X243130D02*
D03*
X143898Y38958D02*
D03*
X137992D02*
D03*
D41*
X148622Y20079D02*
D03*
X142717D02*
D03*
D42*
X156693Y67028D02*
D03*
Y98327D02*
D03*
X174409Y67028D02*
D03*
Y98327D02*
D03*
D43*
X126772Y57874D02*
D03*
D44*
X132283Y54921D02*
D03*
D45*
Y56890D02*
D03*
Y58858D02*
D03*
Y60827D02*
D03*
X121260D02*
D03*
Y58858D02*
D03*
Y56890D02*
D03*
Y54921D02*
D03*
D46*
X129724Y63386D02*
D03*
X127756D02*
D03*
X125787D02*
D03*
X123819D02*
D03*
Y52362D02*
D03*
X125787D02*
D03*
X127756D02*
D03*
X129724D02*
D03*
D47*
X119685Y100236D02*
D03*
X127165D02*
D03*
X123425Y92362D02*
D03*
X106102D02*
D03*
X98622D02*
D03*
X102362Y100236D02*
D03*
D48*
X127953Y136024D02*
D03*
X125984D02*
D03*
X124016D02*
D03*
X122047D02*
D03*
X120079D02*
D03*
Y124424D02*
D03*
X122047D02*
D03*
X124016D02*
D03*
X125984D02*
D03*
X127953D02*
D03*
X193701D02*
D03*
X191732D02*
D03*
X189764D02*
D03*
X187795D02*
D03*
X185827D02*
D03*
Y136024D02*
D03*
X187795D02*
D03*
X189764D02*
D03*
X191732D02*
D03*
X193701D02*
D03*
D49*
X124016Y130224D02*
D03*
X189764D02*
D03*
D50*
X285728Y53543D02*
D03*
X298524D02*
D03*
X242835Y133161D02*
D03*
X255630D02*
D03*
D51*
X185827Y118110D02*
D03*
Y112205D02*
D03*
X279724Y36417D02*
D03*
Y30512D02*
D03*
X120079Y118110D02*
D03*
Y112205D02*
D03*
X80709Y65748D02*
D03*
Y59842D02*
D03*
X39764Y75197D02*
D03*
Y69291D02*
D03*
D52*
X212992Y127854D02*
D03*
Y135335D02*
D03*
X203543Y127854D02*
D03*
Y135335D02*
D03*
X175591Y134449D02*
D03*
Y126969D02*
D03*
X110236Y134055D02*
D03*
Y126575D02*
D03*
D53*
X74410Y111614D02*
D03*
Y117520D02*
D03*
X82284Y117520D02*
D03*
Y111614D02*
D03*
D54*
X365059Y86279D02*
D03*
Y79075D02*
D03*
X373130Y82677D02*
D03*
D55*
X172638Y18307D02*
D03*
X160827D02*
D03*
X178543D02*
D03*
D56*
X155315Y7618D02*
D03*
X184055D02*
D03*
X155315Y15216D02*
D03*
X184055D02*
D03*
D57*
X112779Y79724D02*
D03*
Y84842D02*
D03*
D66*
X335630Y97598D02*
D03*
Y87598D02*
D03*
Y77598D02*
D03*
Y67598D02*
D03*
D103*
X159055Y28740D02*
X162402D01*
X178543Y18307D02*
Y22638D01*
X294488Y43740D02*
X297244D01*
X289567Y20669D02*
Y24213D01*
X96949Y71358D02*
X97146Y71555D01*
Y75590D01*
X114469Y65354D02*
X115748D01*
X109843Y69980D02*
X114469Y65354D01*
X109843Y69980D02*
Y70374D01*
X104626Y75590D02*
X109843Y70374D01*
X155315Y7618D02*
Y15216D01*
Y17717D01*
X146635Y38958D02*
X146653Y38976D01*
X143898Y38958D02*
X146635D01*
X109547Y27362D02*
Y27854D01*
Y27362D02*
X113976Y22933D01*
X139862D01*
X142717Y20079D01*
X101575Y34055D02*
X104528Y37008D01*
X71260Y39764D02*
X116142D01*
X127165Y42126D02*
X129528Y39764D01*
X118504Y42126D02*
X127165D01*
X116142Y39764D02*
X118504Y42126D01*
X54134Y32480D02*
Y42126D01*
X55748Y43740D01*
X67283D01*
X71260Y39764D01*
Y31528D02*
Y39764D01*
Y31528D02*
X86449Y16339D01*
X99547D01*
X101575Y18366D01*
Y22638D01*
X6890Y70669D02*
Y78740D01*
Y86614D02*
Y94685D01*
Y78740D02*
Y86614D01*
X110236Y123228D02*
Y126575D01*
X137795Y124817D02*
Y128543D01*
X203543Y124817D02*
Y127854D01*
X175591Y123577D02*
Y126969D01*
X12992Y53839D02*
Y56890D01*
X48228Y59842D02*
Y62992D01*
X72244Y56693D02*
Y59842D01*
X96850Y66142D02*
X99606D01*
X96850Y55315D02*
X99606D01*
X124803Y33465D02*
Y38740D01*
X44882Y9843D02*
Y18307D01*
Y9843D02*
X71260D01*
X62008Y32480D02*
X71260Y23228D01*
Y9843D02*
Y23228D01*
X337047Y53150D02*
X344488Y60590D01*
X320118Y36220D02*
X337047Y53150D01*
X325590Y53740D02*
X326181Y53150D01*
X337047D01*
X289567Y36417D02*
X289764Y36220D01*
X320118D01*
X344488Y60590D02*
Y94095D01*
X340984Y97598D02*
X344488Y94095D01*
X335630Y97598D02*
X340984D01*
X220472Y137828D02*
X224410Y133891D01*
X95669Y137434D02*
X100755Y142520D01*
X95669Y119276D02*
Y137434D01*
X161417Y122047D02*
Y133161D01*
X100755Y142520D02*
X102756D01*
X136221Y115354D02*
X154724D01*
X161417Y122047D01*
X178543Y18307D02*
X180965D01*
X184055Y15216D01*
Y7618D02*
Y15216D01*
X99606Y44488D02*
Y55315D01*
X72244Y59842D02*
X80709D01*
X41929Y69291D02*
X48228Y62992D01*
X39764Y69291D02*
X41929D01*
X128347Y112205D02*
X129528Y111024D01*
X120079Y112205D02*
X128347D01*
X119291Y130224D02*
X124016D01*
X115642Y126575D02*
X119291Y130224D01*
X110236Y126575D02*
X115642D01*
X124016Y130224D02*
X125696Y128543D01*
X137795D01*
X147173D01*
X183661Y107087D02*
X185827Y109252D01*
Y112205D01*
X189764Y130224D02*
X191247Y128740D01*
X196457D01*
X197343Y127854D01*
X203543D01*
X212992D01*
X184948Y130224D02*
X189764D01*
X181693Y126969D02*
X184948Y130224D01*
X175591Y126969D02*
X181693D01*
X203937Y28740D02*
X233465Y58268D01*
X196063Y28740D02*
X203937D01*
X249213Y87795D02*
X252028Y90610D01*
Y97677D01*
X242835Y133161D02*
Y140945D01*
Y133161D02*
X243130Y132866D01*
Y122571D02*
Y132866D01*
X274213Y30512D02*
X279724D01*
X272441Y28740D02*
X274213Y30512D01*
X262992Y28740D02*
X272441D01*
X279724Y51575D02*
X281693Y53543D01*
X285728D01*
X286024Y24213D02*
X289567D01*
X279724Y30512D02*
X286024Y24213D01*
X155965Y145276D02*
Y155512D01*
X160689Y160236D01*
X315748D01*
X349213Y126772D01*
Y86614D02*
Y126772D01*
Y86614D02*
X356752Y79075D01*
X365059D01*
X224410Y121260D02*
Y133891D01*
Y113779D02*
Y121260D01*
X216535Y113386D02*
X224410Y121260D01*
X200787Y113386D02*
X216535D01*
X185433Y98032D02*
X200787Y113386D01*
X160827Y78937D02*
X164461Y82571D01*
X146850Y78937D02*
X160827D01*
X53150Y72047D02*
X57480D01*
X50000Y75197D02*
X53150Y72047D01*
X48228Y75197D02*
X50000D01*
X146850Y71831D02*
Y78937D01*
X118898Y71653D02*
X119291D01*
X115748Y68504D02*
X118898Y71653D01*
X119291D02*
X122228Y74590D01*
X12205Y68504D02*
Y68504D01*
Y68504D02*
X19291Y61417D01*
X27559Y53150D02*
X62598D01*
X19291Y61417D02*
X27362Y53347D01*
X27953D01*
X112779Y88724D02*
Y102165D01*
X95669Y119276D02*
X112779Y102165D01*
X115748Y65354D02*
Y68504D01*
X122228Y74590D02*
Y82677D01*
X224410Y113779D02*
X229528Y108661D01*
X312205D01*
X318701Y102165D01*
Y89567D02*
Y102165D01*
X327598Y86260D02*
Y89567D01*
X327559Y86221D02*
X327598Y86260D01*
X318701Y77559D02*
X324409D01*
X279724Y36417D02*
X279724Y36417D01*
X289567D01*
X274606Y36417D02*
X279724D01*
X271929Y33740D02*
X274606Y36417D01*
X262992Y33740D02*
X271929D01*
X153937Y137434D02*
X155965Y139462D01*
Y145276D01*
X62598Y53150D02*
X64567Y55118D01*
Y70866D01*
X65748Y72047D01*
X72244D01*
X78347D01*
X80709Y69685D01*
Y65748D02*
Y69685D01*
Y65748D02*
X87402D01*
X88189Y64961D01*
X327598Y89567D02*
X335630Y97598D01*
X318701Y89567D02*
X327598D01*
D104*
X45630Y107126D02*
Y109449D01*
X66548Y102375D02*
Y104758D01*
X107087Y44488D02*
X122441D01*
X125787Y47835D01*
Y52362D01*
X82284Y109055D02*
Y111614D01*
X79134Y105905D02*
X82284Y109055D01*
X69685Y105905D02*
X79134D01*
X64567Y99449D02*
Y103937D01*
X64213Y107093D02*
X66548Y104758D01*
X64213Y107093D02*
Y109646D01*
X61024Y103937D02*
X62598Y102362D01*
Y99449D02*
Y102362D01*
X54921Y105512D02*
Y109646D01*
Y105512D02*
X56496Y103937D01*
X61024D01*
X58661Y99449D02*
Y101575D01*
X57480Y102756D02*
X58661Y101575D01*
X50000Y102756D02*
X57480D01*
X45630Y107126D02*
X50000Y102756D01*
X55275Y90157D02*
X55276Y90158D01*
X51575Y90157D02*
X55275D01*
X48058Y90158D02*
X50040Y88176D01*
X37047Y90158D02*
X48058D01*
X50040Y88176D02*
X55263D01*
X55276Y88189D01*
X46457Y88958D02*
X47816Y87598D01*
X31496Y84607D02*
X37047Y90158D01*
X37544Y88958D02*
X46457D01*
X31993Y83407D02*
X37544Y88958D01*
X21108Y83407D02*
X31993D01*
X21008Y84607D02*
X31496D01*
X20379Y85236D02*
X21008Y84607D01*
X17421Y85236D02*
X20379D01*
Y82677D02*
X21108Y83407D01*
X17421Y82677D02*
X20379D01*
D105*
X421260Y27559D02*
D03*
X433071Y145669D02*
D03*
X31496Y137795D02*
D03*
X19685Y19685D02*
D03*
D106*
X6890Y68898D02*
D03*
Y96457D02*
D03*
D107*
X17520Y72835D02*
D03*
Y92520D02*
D03*
D108*
X163779Y11417D02*
D03*
X175591D02*
D03*
D109*
X162402Y28740D02*
D03*
X178543Y22638D02*
D03*
X297244Y43740D02*
D03*
X289567Y20669D02*
D03*
X96949Y71358D02*
D03*
X155315Y17717D02*
D03*
X146653Y38976D02*
D03*
X109547Y27854D02*
D03*
X137992Y58366D02*
D03*
X104528Y37008D02*
D03*
X110236Y123228D02*
D03*
X137795Y124817D02*
D03*
X203543D02*
D03*
X175591Y123577D02*
D03*
X12992Y56890D02*
D03*
X48228Y59842D02*
D03*
X72244Y56693D02*
D03*
X96850Y66142D02*
D03*
Y55315D02*
D03*
X124803Y38740D02*
D03*
X44882Y18307D02*
D03*
X188583Y75197D02*
D03*
X178543Y88583D02*
D03*
X372047Y114961D02*
D03*
X102756Y142520D02*
D03*
X136221Y115354D02*
D03*
X22047Y77165D02*
D03*
X201968Y46457D02*
D03*
X87795Y114173D02*
D03*
X129528Y111024D02*
D03*
X183661Y107087D02*
D03*
X238583Y52756D02*
D03*
Y63740D02*
D03*
X227953Y52756D02*
D03*
Y63779D02*
D03*
X249213Y87795D02*
D03*
X242835Y140945D02*
D03*
X279724Y51575D02*
D03*
X205906Y88583D02*
D03*
X367717Y107480D02*
D03*
X205906Y68504D02*
D03*
X354724Y87795D02*
D03*
X205118Y108661D02*
D03*
X235039Y112598D02*
D03*
X185433Y98032D02*
D03*
X164461Y82571D02*
D03*
X198425Y101969D02*
D03*
X77716Y100236D02*
D03*
X57480Y72047D02*
D03*
X146850Y71831D02*
D03*
X162598Y92913D02*
D03*
X147673Y90158D02*
D03*
X45669Y109449D02*
D03*
X117323Y92362D02*
D03*
X253543Y62205D02*
D03*
X108898Y100236D02*
D03*
X112205Y109843D02*
D03*
X66535Y122047D02*
D03*
X146063Y27165D02*
D03*
X139370Y29921D02*
D03*
X139764Y32927D02*
D03*
X136220Y35040D02*
D03*
X148819Y36614D02*
D03*
X151969Y35039D02*
D03*
X184252Y65748D02*
D03*
X113961Y28346D02*
D03*
X128740Y88583D02*
D03*
X102756Y86614D02*
D03*
X112992Y71260D02*
D03*
X118307Y62205D02*
D03*
X135827Y53150D02*
D03*
X189961Y48819D02*
D03*
X182087Y56693D02*
D03*
X156299Y43307D02*
D03*
X135039D02*
D03*
X207480Y57480D02*
D03*
Y48819D02*
D03*
X182480Y48925D02*
D03*
X186221Y42913D02*
D03*
X327559Y86221D02*
D03*
X324409Y77559D02*
D03*
X111811Y47244D02*
D03*
X113779Y32677D02*
D03*
X69685Y105905D02*
D03*
X64567Y103937D02*
D03*
X51575Y90157D02*
D03*
X47816Y87598D02*
D03*
X68071Y87205D02*
D03*
X61181D02*
D03*
X68071Y94095D02*
D03*
X61181D02*
D03*
X125787Y58858D02*
D03*
X127756Y56890D02*
D03*
M02*
