M48
;Layer_Color=9474304
;FILE_FORMAT=2:5
INCH,LZ
;TYPE=PLATED
T1F00S00C0.01181
T2F00S00C0.03543
T3F00S00C0.04016
T4F00S00C0.04724
T5F00S00C0.12598
;TYPE=NON_PLATED
T6F00S00C0.03543
%
T01
X0044882Y0018307
X0048228Y0059842
X005748Y0072047
X0061181Y0087205
X0068071
Y0094095
X0061181
X0064567Y0103937
X0069685Y0105905
X0077716Y0100236
X0087795Y0114173
X0112205Y0109843
X0108898Y0100236
X0117323Y0092362
X012874Y0088583
X0129528Y0111024
X0136221Y0115354
X0137795Y0124817
X0110236Y0123228
X0102756Y014252
Y0086614
X0096949Y0071358
X009685Y0066142
Y0055315
X0111811Y0047244
X0113779Y0032677
X0113961Y0028346
X0109547Y0027854
X0104528Y0037008
X0124803Y003874
X0135039Y0043307
X013622Y003504
X0139764Y0032927
X013937Y0029921
X0135827Y005315
X0137992Y0058366
X0127756Y005689
X0125787Y0058858
X0118307Y0062205
X0112992Y007126
X0072244Y0056693
X0051575Y0090157
X0047816Y0087598
X0045669Y0109449
X0066535Y0122047
X0022047Y0077165
X0012992Y005689
X014685Y0071831
X0147673Y0090158
X0162598Y0092913
X0164461Y0082571
X0178543Y0088583
X0185433Y0098032
X0183661Y0107087
X0198425Y0101969
X0205118Y0108661
X0203543Y0124817
X0175591Y0123577
X0188583Y0075197
X0184252Y0065748
X0182087Y0056693
X018248Y0048925
X0189961Y0048819
X0186221Y0042913
X0201968Y0046457
X020748Y0048819
Y005748
X0205906Y0068504
Y0088583
X0249213Y0087795
X0253543Y0062205
X0238583Y006374
X0227953Y0063779
Y0052756
X0238583
X0279724Y0051575
X0297244Y004374
X0289567Y0020669
X0178543Y0022638
X0162402Y002874
X0151969Y0035039
X0148819Y0036614
X0146653Y0038976
X0146063Y0027165
X0155315Y0017717
X0156299Y0043307
X0235039Y0112598
X0242835Y0140945
X0327559Y0086221
X0324409Y0077559
X0354724Y0087795
X0367717Y010748
X0372047Y0114961
T02
X001752Y0072835
Y009252
T03
X033563Y0067598
Y0077598
Y0087598
Y0097598
T04
X000689Y0068898
Y0096457
T05
X0019685Y0019685
X0031496Y0137795
X042126Y0027559
X0433071Y0145669
T06
X0163779Y0011417
X0175591
M30
