G04*
G04 #@! TF.GenerationSoftware,Altium Limited,Altium Designer,18.1.9 (240)*
G04*
G04 Layer_Physical_Order=2*
G04 Layer_Color=16711680*
%FSLAX25Y25*%
%MOIN*%
G70*
G01*
G75*
%ADD12C,0.01181*%
%ADD14C,0.00787*%
%ADD17C,0.01000*%
%ADD66C,0.04724*%
%ADD103C,0.01968*%
%ADD104C,0.00600*%
%ADD105C,0.25591*%
%ADD106C,0.07087*%
%ADD107C,0.05543*%
%ADD108C,0.03543*%
%ADD109C,0.02362*%
G36*
X448819Y59055D02*
X448896Y56967D01*
X448723Y52791D01*
X448222Y48642D01*
X447398Y44545D01*
X446254Y40525D01*
X444799Y36607D01*
X443041Y32815D01*
X440990Y29173D01*
X438660Y25704D01*
X436066Y22427D01*
X433222Y19365D01*
X432470Y18673D01*
X432109Y19020D01*
X432455Y19425D01*
X433590Y21277D01*
X434420Y23283D01*
X434927Y25394D01*
X435058Y27059D01*
X421760D01*
Y13760D01*
X423425Y13892D01*
X425536Y14398D01*
X427542Y15229D01*
X428139Y15595D01*
X428425Y15184D01*
X426858Y13955D01*
X423378Y11641D01*
X419727Y9607D01*
X415928Y7865D01*
X412003Y6428D01*
X407978Y5302D01*
X403877Y4496D01*
X399726Y4014D01*
X397638Y3937D01*
X4412D01*
X3937Y4412D01*
Y65437D01*
X4437Y65683D01*
X4851Y65366D01*
X5834Y64958D01*
X6890Y64819D01*
X7945Y64958D01*
X8929Y65366D01*
X9774Y66014D01*
X10422Y66859D01*
X10829Y67842D01*
X10968Y68898D01*
X10829Y69953D01*
X10422Y70937D01*
X9774Y71781D01*
X8929Y72430D01*
X7945Y72837D01*
X6890Y72976D01*
X5834Y72837D01*
X4851Y72430D01*
X4437Y72112D01*
X3937Y72359D01*
Y92996D01*
X4437Y93242D01*
X4851Y92925D01*
X5834Y92518D01*
X6890Y92378D01*
X7945Y92518D01*
X8929Y92925D01*
X9774Y93573D01*
X10422Y94418D01*
X10829Y95401D01*
X10968Y96457D01*
X10829Y97512D01*
X10422Y98496D01*
X9774Y99340D01*
X8929Y99989D01*
X7945Y100396D01*
X6890Y100535D01*
X5834Y100396D01*
X4851Y99989D01*
X4437Y99671D01*
X3937Y99918D01*
Y106299D01*
Y108465D01*
X4277Y112783D01*
X4954Y117060D01*
X5965Y121272D01*
X7304Y125391D01*
X8961Y129393D01*
X10928Y133252D01*
X13191Y136945D01*
X15736Y140449D01*
X18427Y143599D01*
X18858Y143334D01*
X18335Y142071D01*
X17829Y139960D01*
X17697Y138295D01*
X30996D01*
Y151594D01*
X29331Y151463D01*
X27784Y151092D01*
X27571Y151554D01*
X28409Y152164D01*
X32103Y154427D01*
X35962Y156393D01*
X39963Y158050D01*
X44082Y159389D01*
X48294Y160400D01*
X52572Y161077D01*
X56889Y161417D01*
X448819D01*
X448819Y59055D01*
D02*
G37*
%LPC*%
G36*
X433571Y159468D02*
Y146169D01*
X446869D01*
X446738Y147834D01*
X446232Y149945D01*
X445401Y151952D01*
X444266Y153803D01*
X442856Y155454D01*
X441205Y156864D01*
X439353Y157999D01*
X437347Y158830D01*
X435236Y159337D01*
X433571Y159468D01*
D02*
G37*
G36*
X432571D02*
X430906Y159337D01*
X428795Y158830D01*
X426789Y157999D01*
X424937Y156864D01*
X423286Y155454D01*
X421876Y153803D01*
X420741Y151952D01*
X419910Y149945D01*
X419403Y147834D01*
X419272Y146169D01*
X432571D01*
Y159468D01*
D02*
G37*
G36*
X31996Y151594D02*
Y138295D01*
X45295D01*
X45164Y139960D01*
X44657Y142071D01*
X43826Y144078D01*
X42691Y145929D01*
X41281Y147580D01*
X39630Y148990D01*
X37778Y150125D01*
X35772Y150956D01*
X33661Y151463D01*
X31996Y151594D01*
D02*
G37*
G36*
X446869Y145169D02*
X433571D01*
Y131871D01*
X435236Y132002D01*
X437347Y132509D01*
X439353Y133340D01*
X441205Y134474D01*
X442856Y135884D01*
X444266Y137536D01*
X445401Y139387D01*
X446232Y141393D01*
X446738Y143505D01*
X446869Y145169D01*
D02*
G37*
G36*
X432571D02*
X419272D01*
X419403Y143505D01*
X419910Y141393D01*
X420741Y139387D01*
X421876Y137536D01*
X423286Y135884D01*
X424937Y134474D01*
X426789Y133340D01*
X428795Y132509D01*
X430906Y132002D01*
X432571Y131871D01*
Y145169D01*
D02*
G37*
G36*
X45295Y137295D02*
X31996D01*
Y123997D01*
X33661Y124128D01*
X35772Y124635D01*
X37778Y125466D01*
X39630Y126600D01*
X41281Y128010D01*
X42691Y129662D01*
X43826Y131513D01*
X44657Y133519D01*
X45164Y135631D01*
X45295Y137295D01*
D02*
G37*
G36*
X30996D02*
X17697D01*
X17829Y135631D01*
X18335Y133519D01*
X19166Y131513D01*
X20301Y129662D01*
X21711Y128010D01*
X23362Y126600D01*
X25214Y125466D01*
X27220Y124635D01*
X29331Y124128D01*
X30996Y123997D01*
Y137295D01*
D02*
G37*
G36*
X102756Y144234D02*
X102100Y144103D01*
X101544Y143732D01*
X101172Y143176D01*
X101042Y142520D01*
X101172Y141864D01*
X101544Y141308D01*
X102100Y140936D01*
X102756Y140806D01*
X103412Y140936D01*
X103517Y141006D01*
X108428D01*
X119837Y129597D01*
Y129120D01*
X119837Y129120D01*
X119952Y128541D01*
X120280Y128050D01*
X121842Y126488D01*
X121842Y126488D01*
X122333Y126160D01*
X122912Y126045D01*
X123390D01*
X134612Y114822D01*
X134637Y114698D01*
X135009Y114142D01*
X135564Y113771D01*
X136221Y113640D01*
X136876Y113771D01*
X137433Y114142D01*
X137804Y114698D01*
X137935Y115354D01*
X137804Y116010D01*
X137433Y116566D01*
X136876Y116938D01*
X136752Y116963D01*
X125087Y128628D01*
X124596Y128956D01*
X124017Y129072D01*
X124016Y129072D01*
X123539D01*
X122864Y129746D01*
Y130224D01*
X122864Y130224D01*
X122748Y130804D01*
X122421Y131295D01*
X110125Y143590D01*
X109634Y143918D01*
X109055Y144033D01*
X109055Y144033D01*
X103517D01*
X103412Y144103D01*
X102756Y144234D01*
D02*
G37*
G36*
X235039Y114313D02*
X234383Y114182D01*
X233827Y113810D01*
X233626Y113510D01*
X221260D01*
X220911Y113440D01*
X220616Y113243D01*
X216945Y109573D01*
X206531D01*
X206330Y109873D01*
X205774Y110245D01*
X205118Y110375D01*
X204462Y110245D01*
X203906Y109873D01*
X203535Y109317D01*
X203404Y108661D01*
X203535Y108005D01*
X203906Y107449D01*
X204462Y107078D01*
X205118Y106947D01*
X205774Y107078D01*
X206330Y107449D01*
X206531Y107750D01*
X217323D01*
X217671Y107820D01*
X217967Y108017D01*
X221637Y111687D01*
X233626D01*
X233827Y111386D01*
X234383Y111015D01*
X235039Y110884D01*
X235695Y111015D01*
X236251Y111386D01*
X236623Y111943D01*
X236753Y112598D01*
X236623Y113254D01*
X236251Y113810D01*
X235695Y114182D01*
X235039Y114313D01*
D02*
G37*
G36*
X87795Y115887D02*
X87139Y115757D01*
X86583Y115385D01*
X86212Y114829D01*
X86081Y114173D01*
X86212Y113517D01*
X86583Y112961D01*
X87139Y112590D01*
X87795Y112459D01*
X88451Y112590D01*
X89007Y112961D01*
X89208Y113262D01*
X90961D01*
X94151Y110073D01*
X93943Y109573D01*
X71637D01*
X67180Y114030D01*
X66884Y114228D01*
X66535Y114297D01*
X49606D01*
X49258Y114228D01*
X48962Y114030D01*
X46024Y111092D01*
X45669Y111163D01*
X45013Y111032D01*
X44457Y110661D01*
X44086Y110105D01*
X43955Y109449D01*
X44086Y108793D01*
X44457Y108237D01*
X45013Y107865D01*
X45669Y107735D01*
X46325Y107865D01*
X46881Y108237D01*
X47253Y108793D01*
X47383Y109449D01*
X47313Y109804D01*
X49984Y112475D01*
X66158D01*
X70616Y108017D01*
X70911Y107820D01*
X71260Y107750D01*
X94111D01*
X110143Y91718D01*
X110366Y91569D01*
X110351Y91267D01*
X110283Y91069D01*
X88173D01*
X79360Y99881D01*
X79431Y100236D01*
X79300Y100892D01*
X78929Y101448D01*
X78373Y101820D01*
X77716Y101950D01*
X77061Y101820D01*
X76504Y101448D01*
X76133Y100892D01*
X76003Y100236D01*
X76133Y99580D01*
X76504Y99024D01*
X77061Y98653D01*
X77716Y98522D01*
X78071Y98593D01*
X87151Y89513D01*
X87447Y89316D01*
X87795Y89246D01*
X103392D01*
X103599Y88746D01*
X103111Y88258D01*
X102756Y88328D01*
X102100Y88198D01*
X101544Y87826D01*
X101172Y87270D01*
X101042Y86614D01*
X101172Y85958D01*
X101544Y85402D01*
X102100Y85031D01*
X102756Y84900D01*
X103412Y85031D01*
X103968Y85402D01*
X104340Y85958D01*
X104470Y86614D01*
X104399Y86969D01*
X105102Y87672D01*
X127327D01*
X127528Y87371D01*
X128084Y86999D01*
X128740Y86869D01*
X129396Y86999D01*
X129952Y87371D01*
X130324Y87927D01*
X130454Y88583D01*
X130324Y89239D01*
X129952Y89795D01*
X129396Y90166D01*
X128740Y90297D01*
X128084Y90166D01*
X127528Y89795D01*
X127327Y89494D01*
X124167D01*
X123960Y89994D01*
X135023Y101057D01*
X197012D01*
X197213Y100757D01*
X197769Y100385D01*
X198425Y100254D01*
X199081Y100385D01*
X199637Y100757D01*
X200009Y101313D01*
X200139Y101969D01*
X200105Y102139D01*
X200423Y102526D01*
X203166D01*
X207750Y97941D01*
Y94472D01*
X205528Y92250D01*
X203150D01*
X202801Y92180D01*
X202505Y91983D01*
X201324Y90802D01*
X201127Y90506D01*
X201057Y90158D01*
Y47870D01*
X200756Y47669D01*
X200384Y47113D01*
X200254Y46457D01*
X200384Y45801D01*
X200756Y45245D01*
X201312Y44873D01*
X201968Y44743D01*
X202624Y44873D01*
X203180Y45245D01*
X203552Y45801D01*
X203682Y46457D01*
X203552Y47113D01*
X203180Y47669D01*
X202880Y47869D01*
Y89780D01*
X203527Y90427D01*
X204740D01*
X204892Y89927D01*
X204694Y89795D01*
X204322Y89239D01*
X204191Y88583D01*
X204322Y87927D01*
X204694Y87371D01*
X205250Y86999D01*
X205906Y86869D01*
X206561Y86999D01*
X207118Y87371D01*
X207246Y87563D01*
X209027D01*
X213154Y83436D01*
Y54331D01*
X213231Y53940D01*
X213452Y53610D01*
X220933Y46129D01*
X221263Y45908D01*
X221654Y45831D01*
X244488D01*
X244878Y45908D01*
X245209Y46129D01*
X305540Y106461D01*
X366376D01*
X366505Y106268D01*
X367061Y105897D01*
X367717Y105766D01*
X368373Y105897D01*
X368929Y106268D01*
X369300Y106824D01*
X369431Y107480D01*
X369300Y108136D01*
X368929Y108692D01*
X368373Y109064D01*
X367717Y109194D01*
X367061Y109064D01*
X366505Y108692D01*
X366376Y108500D01*
X305118D01*
X304728Y108422D01*
X304397Y108201D01*
X244066Y47870D01*
X222076D01*
X215193Y54753D01*
Y83858D01*
X215115Y84249D01*
X214894Y84579D01*
X210170Y89304D01*
X209839Y89525D01*
X209449Y89602D01*
X207246D01*
X207118Y89795D01*
X206610Y90134D01*
X206548Y90395D01*
X206532Y90682D01*
X206550Y90694D01*
X209306Y93450D01*
X209503Y93746D01*
X209573Y94095D01*
Y98319D01*
X209503Y98668D01*
X209306Y98963D01*
X204349Y103919D01*
X204557Y104420D01*
X223032D01*
X252238Y75213D01*
Y63278D01*
X251960Y62861D01*
X251829Y62205D01*
X251960Y61549D01*
X252331Y60993D01*
X252887Y60621D01*
X253543Y60491D01*
X254199Y60621D01*
X254755Y60993D01*
X255127Y61549D01*
X255257Y62205D01*
X255127Y62861D01*
X254755Y63417D01*
X254199Y63788D01*
X254061Y63816D01*
Y75590D01*
X253992Y75939D01*
X253794Y76235D01*
X224054Y105975D01*
X223758Y106173D01*
X223410Y106242D01*
X197032D01*
X196684Y106173D01*
X196388Y105975D01*
X196049Y105636D01*
X116142D01*
X115793Y105566D01*
X115497Y105369D01*
X111276Y101147D01*
X110311D01*
X110110Y101448D01*
X109554Y101820D01*
X108898Y101950D01*
X108242Y101820D01*
X107686Y101448D01*
X107314Y100892D01*
X107198Y100309D01*
X106962Y100173D01*
X106701Y100099D01*
X91983Y114818D01*
X91687Y115015D01*
X91339Y115084D01*
X89208D01*
X89007Y115385D01*
X88451Y115757D01*
X87795Y115887D01*
D02*
G37*
G36*
X66535Y123761D02*
X65879Y123631D01*
X65323Y123259D01*
X64952Y122703D01*
X64821Y122047D01*
X64952Y121391D01*
X65323Y120835D01*
X65879Y120464D01*
X66535Y120333D01*
X67191Y120464D01*
X67747Y120835D01*
X67948Y121136D01*
X99623D01*
X110561Y110197D01*
X110491Y109843D01*
X110621Y109187D01*
X110993Y108631D01*
X111549Y108259D01*
X112205Y108128D01*
X112861Y108259D01*
X113417Y108631D01*
X113788Y109187D01*
X113919Y109843D01*
X113788Y110498D01*
X113417Y111055D01*
X112861Y111426D01*
X112205Y111556D01*
X111850Y111486D01*
X100644Y122692D01*
X100349Y122889D01*
X100000Y122958D01*
X67948D01*
X67747Y123259D01*
X67191Y123631D01*
X66535Y123761D01*
D02*
G37*
G36*
X69685Y107620D02*
X69029Y107489D01*
X68473Y107117D01*
X68208Y106721D01*
X66536D01*
X66535Y106721D01*
X66223Y106659D01*
X65959Y106482D01*
X65034Y105558D01*
X64567Y105651D01*
X63911Y105521D01*
X63355Y105149D01*
X62983Y104593D01*
X62853Y103937D01*
X62983Y103281D01*
X63355Y102725D01*
X63911Y102353D01*
X64567Y102223D01*
X65223Y102353D01*
X65779Y102725D01*
X66150Y103281D01*
X66281Y103937D01*
X66188Y104404D01*
X66873Y105090D01*
X68208D01*
X68473Y104693D01*
X69029Y104322D01*
X69685Y104192D01*
X70341Y104322D01*
X70897Y104693D01*
X71269Y105250D01*
X71399Y105905D01*
X71269Y106561D01*
X70897Y107117D01*
X70341Y107489D01*
X69685Y107620D01*
D02*
G37*
G36*
X185433Y99746D02*
X184777Y99615D01*
X184672Y99545D01*
X179921D01*
X179342Y99430D01*
X178851Y99102D01*
X178851Y99102D01*
X163929Y84179D01*
X163805Y84154D01*
X163249Y83783D01*
X162877Y83227D01*
X162747Y82571D01*
X162877Y81915D01*
X163249Y81359D01*
X163805Y80987D01*
X164461Y80857D01*
X165117Y80987D01*
X165673Y81359D01*
X166044Y81915D01*
X166069Y82039D01*
X180548Y96518D01*
X184672D01*
X184777Y96448D01*
X185433Y96317D01*
X186089Y96448D01*
X186645Y96820D01*
X187017Y97376D01*
X187147Y98032D01*
X187017Y98687D01*
X186645Y99243D01*
X186089Y99615D01*
X185433Y99746D01*
D02*
G37*
G36*
X335630Y100485D02*
X334883Y100387D01*
X334187Y100099D01*
X333589Y99640D01*
X333130Y99042D01*
X332841Y98346D01*
X332743Y97598D01*
X332841Y96851D01*
X333130Y96155D01*
X333589Y95557D01*
X334187Y95098D01*
X334883Y94810D01*
X335630Y94712D01*
X336377Y94810D01*
X337073Y95098D01*
X337671Y95557D01*
X338130Y96155D01*
X338418Y96851D01*
X338517Y97598D01*
X338418Y98346D01*
X338130Y99042D01*
X337671Y99640D01*
X337073Y100099D01*
X336377Y100387D01*
X335630Y100485D01*
D02*
G37*
G36*
X162598Y94627D02*
X161943Y94497D01*
X161386Y94125D01*
X161185Y93825D01*
X150428D01*
X150080Y93755D01*
X149784Y93558D01*
X148027Y91801D01*
X147673Y91872D01*
X147017Y91741D01*
X146461Y91369D01*
X146089Y90813D01*
X145958Y90158D01*
X146089Y89502D01*
X146461Y88946D01*
X147017Y88574D01*
X147673Y88443D01*
X148328Y88574D01*
X148885Y88946D01*
X149256Y89502D01*
X149387Y90158D01*
X149316Y90512D01*
X150806Y92002D01*
X161185D01*
X161386Y91701D01*
X161943Y91330D01*
X162598Y91199D01*
X163254Y91330D01*
X163810Y91701D01*
X164182Y92257D01*
X164313Y92913D01*
X164182Y93569D01*
X163810Y94125D01*
X163254Y94497D01*
X162598Y94627D01*
D02*
G37*
G36*
X17520Y95820D02*
X16666Y95707D01*
X15870Y95377D01*
X15186Y94853D01*
X14662Y94170D01*
X14332Y93374D01*
X14220Y92520D01*
X14332Y91666D01*
X14662Y90870D01*
X15186Y90186D01*
X15870Y89662D01*
X16666Y89332D01*
X17520Y89220D01*
X18374Y89332D01*
X19170Y89662D01*
X19853Y90186D01*
X20378Y90870D01*
X20707Y91666D01*
X20820Y92520D01*
X20707Y93374D01*
X20378Y94170D01*
X19853Y94853D01*
X19170Y95377D01*
X18374Y95707D01*
X17520Y95820D01*
D02*
G37*
G36*
X51575Y91871D02*
X50919Y91741D01*
X50363Y91369D01*
X49991Y90813D01*
X49861Y90157D01*
X49954Y89690D01*
X49070Y88806D01*
X49028Y88810D01*
X48472Y89182D01*
X47816Y89312D01*
X47160Y89182D01*
X46604Y88810D01*
X46232Y88254D01*
X46102Y87598D01*
X46232Y86942D01*
X46604Y86386D01*
X47160Y86015D01*
X47816Y85884D01*
X48472Y86015D01*
X49028Y86386D01*
X49339Y86852D01*
X49593Y87022D01*
X51107Y88536D01*
X51575Y88443D01*
X52231Y88574D01*
X52787Y88945D01*
X53158Y89501D01*
X53289Y90157D01*
X53158Y90813D01*
X52787Y91369D01*
X52231Y91741D01*
X51575Y91871D01*
D02*
G37*
G36*
X336130Y90924D02*
Y88098D01*
X338955D01*
X338906Y88476D01*
X338567Y89294D01*
X338028Y89996D01*
X337326Y90535D01*
X336508Y90874D01*
X336130Y90924D01*
D02*
G37*
G36*
X335130D02*
X334752Y90874D01*
X333934Y90535D01*
X333232Y89996D01*
X332693Y89294D01*
X332354Y88476D01*
X332305Y88098D01*
X335130D01*
Y90924D01*
D02*
G37*
G36*
X349482Y93948D02*
X295523D01*
X295175Y93879D01*
X294879Y93682D01*
X245416Y44218D01*
X218209D01*
X211541Y50886D01*
Y64173D01*
X211472Y64522D01*
X211274Y64818D01*
X207614Y68477D01*
X207620Y68504D01*
X207489Y69160D01*
X207118Y69716D01*
X206561Y70087D01*
X205906Y70218D01*
X205250Y70087D01*
X204694Y69716D01*
X204322Y69160D01*
X204191Y68504D01*
X204322Y67848D01*
X204694Y67292D01*
X205250Y66920D01*
X205906Y66790D01*
X206561Y66920D01*
X206581Y66934D01*
X209719Y63796D01*
Y50509D01*
X209788Y50160D01*
X209986Y49864D01*
X217187Y42663D01*
X217483Y42465D01*
X217832Y42396D01*
X245793D01*
X246142Y42465D01*
X246437Y42663D01*
X295901Y92126D01*
X349105D01*
X353081Y88150D01*
X353010Y87795D01*
X353141Y87139D01*
X353512Y86583D01*
X354068Y86212D01*
X354724Y86081D01*
X355380Y86212D01*
X355936Y86583D01*
X356308Y87139D01*
X356438Y87795D01*
X356308Y88451D01*
X355936Y89007D01*
X355380Y89379D01*
X354724Y89509D01*
X354370Y89439D01*
X350127Y93682D01*
X349831Y93879D01*
X349482Y93948D01*
D02*
G37*
G36*
X338955Y87098D02*
X336130D01*
Y84273D01*
X336508Y84323D01*
X337326Y84662D01*
X338028Y85201D01*
X338567Y85903D01*
X338906Y86721D01*
X338955Y87098D01*
D02*
G37*
G36*
X335130D02*
X332305D01*
X332354Y86721D01*
X332693Y85903D01*
X333232Y85201D01*
X333934Y84662D01*
X334752Y84323D01*
X335130Y84273D01*
Y87098D01*
D02*
G37*
G36*
X327559Y87934D02*
X326903Y87804D01*
X326347Y87432D01*
X325975Y86876D01*
X325845Y86221D01*
X325975Y85565D01*
X326046Y85459D01*
Y81336D01*
X323878Y79167D01*
X323753Y79143D01*
X323197Y78771D01*
X322826Y78215D01*
X322695Y77559D01*
X322826Y76903D01*
X323197Y76347D01*
X323753Y75976D01*
X324409Y75845D01*
X325065Y75976D01*
X325621Y76347D01*
X325993Y76903D01*
X326018Y77027D01*
X328629Y79639D01*
X328629Y79639D01*
X328957Y80129D01*
X329072Y80709D01*
X329072Y80709D01*
Y85459D01*
X329143Y85565D01*
X329273Y86221D01*
X329143Y86876D01*
X328771Y87432D01*
X328215Y87804D01*
X327559Y87934D01*
D02*
G37*
G36*
X335630Y80485D02*
X334883Y80387D01*
X334187Y80099D01*
X333589Y79640D01*
X333130Y79042D01*
X332841Y78346D01*
X332743Y77598D01*
X332841Y76851D01*
X333130Y76155D01*
X333589Y75557D01*
X334187Y75098D01*
X334883Y74810D01*
X335630Y74712D01*
X336377Y74810D01*
X337073Y75098D01*
X337671Y75557D01*
X338130Y76155D01*
X338418Y76851D01*
X338517Y77598D01*
X338418Y78346D01*
X338130Y79042D01*
X337671Y79640D01*
X337073Y80099D01*
X336377Y80387D01*
X335630Y80485D01*
D02*
G37*
G36*
X178543Y90297D02*
X177887Y90166D01*
X177331Y89795D01*
X176960Y89239D01*
X176829Y88583D01*
X176960Y87927D01*
X177331Y87371D01*
X177887Y86999D01*
X178543Y86869D01*
X178898Y86939D01*
X187671Y78166D01*
Y76610D01*
X187371Y76409D01*
X186999Y75853D01*
X186869Y75197D01*
X186999Y74541D01*
X187371Y73985D01*
X187927Y73613D01*
X188583Y73483D01*
X189239Y73613D01*
X189795Y73985D01*
X190166Y74541D01*
X190297Y75197D01*
X190166Y75853D01*
X189795Y76409D01*
X189494Y76610D01*
Y78543D01*
X189425Y78892D01*
X189227Y79188D01*
X180187Y88228D01*
X180257Y88583D01*
X180127Y89239D01*
X179755Y89795D01*
X179199Y90166D01*
X178543Y90297D01*
D02*
G37*
G36*
X17520Y76135D02*
X16666Y76022D01*
X15870Y75692D01*
X15186Y75168D01*
X14662Y74485D01*
X14332Y73689D01*
X14220Y72835D01*
X14332Y71981D01*
X14662Y71185D01*
X15186Y70501D01*
X15870Y69977D01*
X16666Y69647D01*
X17520Y69535D01*
X18374Y69647D01*
X19170Y69977D01*
X19853Y70501D01*
X20378Y71185D01*
X20707Y71981D01*
X20820Y72835D01*
X20707Y73689D01*
X20378Y74485D01*
X19853Y75168D01*
X19170Y75692D01*
X18374Y76022D01*
X17520Y76135D01*
D02*
G37*
G36*
X118504Y78679D02*
X118504Y78679D01*
X62598D01*
X62019Y78563D01*
X61528Y78235D01*
X61528Y78235D01*
X56948Y73655D01*
X56824Y73631D01*
X56268Y73259D01*
X55897Y72703D01*
X55766Y72047D01*
X55897Y71391D01*
X56268Y70835D01*
X56824Y70464D01*
X57480Y70333D01*
X58136Y70464D01*
X58692Y70835D01*
X59064Y71391D01*
X59088Y71515D01*
X63225Y75652D01*
X117877D01*
X124914Y68615D01*
X124914Y68615D01*
X125405Y68287D01*
X125984Y68172D01*
X125984Y68172D01*
X144704D01*
X144704Y68172D01*
X145283Y68287D01*
X145774Y68615D01*
X147382Y70223D01*
X147506Y70248D01*
X148062Y70619D01*
X148434Y71175D01*
X148564Y71831D01*
X148434Y72487D01*
X148062Y73043D01*
X147506Y73415D01*
X146850Y73545D01*
X146195Y73415D01*
X145638Y73043D01*
X145267Y72487D01*
X145242Y72363D01*
X144077Y71198D01*
X126611D01*
X119574Y78235D01*
X119083Y78563D01*
X118987Y78583D01*
X118504Y78679D01*
D02*
G37*
G36*
X335630Y70485D02*
X334883Y70387D01*
X334187Y70099D01*
X333589Y69640D01*
X333130Y69042D01*
X332841Y68346D01*
X332743Y67598D01*
X332841Y66851D01*
X333130Y66155D01*
X333589Y65557D01*
X334187Y65098D01*
X334883Y64810D01*
X335630Y64711D01*
X336377Y64810D01*
X337073Y65098D01*
X337671Y65557D01*
X338130Y66155D01*
X338418Y66851D01*
X338517Y67598D01*
X338418Y68346D01*
X338130Y69042D01*
X337671Y69640D01*
X337073Y70099D01*
X336377Y70387D01*
X335630Y70485D01*
D02*
G37*
G36*
X184252Y67462D02*
X183596Y67332D01*
X183040Y66960D01*
X182668Y66404D01*
X182538Y65748D01*
X182608Y65393D01*
X174159Y56944D01*
X173961Y56648D01*
X173892Y56299D01*
Y48803D01*
X144898Y19809D01*
X115732D01*
X114691Y20850D01*
Y26812D01*
X115173Y27134D01*
X115544Y27691D01*
X115675Y28346D01*
X115544Y29002D01*
X115173Y29559D01*
X114617Y29930D01*
X113961Y30060D01*
X113305Y29930D01*
X112749Y29559D01*
X112377Y29002D01*
X112247Y28346D01*
X112377Y27691D01*
X112749Y27134D01*
X112868Y27055D01*
Y20472D01*
X112938Y20124D01*
X113135Y19828D01*
X114710Y18253D01*
X115006Y18056D01*
X115354Y17986D01*
X145276D01*
X145624Y18056D01*
X145920Y18253D01*
X175447Y47781D01*
X175645Y48077D01*
X175714Y48425D01*
Y55922D01*
X183897Y64105D01*
X184252Y64034D01*
X184908Y64165D01*
X185464Y64536D01*
X185836Y65092D01*
X185966Y65748D01*
X185836Y66404D01*
X185464Y66960D01*
X184908Y67332D01*
X184252Y67462D01*
D02*
G37*
G36*
X112992Y72974D02*
X112336Y72843D01*
X111780Y72472D01*
X111409Y71916D01*
X111278Y71260D01*
X111409Y70604D01*
X111780Y70048D01*
X112081Y69847D01*
Y67520D01*
X112150Y67171D01*
X112348Y66875D01*
X116664Y62559D01*
X116593Y62205D01*
X116724Y61549D01*
X117095Y60993D01*
X117651Y60621D01*
X118307Y60491D01*
X118963Y60621D01*
X119337Y60871D01*
X119837Y60637D01*
Y59379D01*
X114531Y54072D01*
X109252D01*
X109252Y54072D01*
X108673Y53957D01*
X108182Y53629D01*
X106410Y51858D01*
X106082Y51367D01*
X105967Y50787D01*
X105967Y50787D01*
Y40587D01*
X103996Y38616D01*
X103872Y38591D01*
X103316Y38220D01*
X102944Y37664D01*
X102813Y37008D01*
X102944Y36352D01*
X103316Y35796D01*
X103872Y35424D01*
X104528Y35294D01*
X105183Y35424D01*
X105740Y35796D01*
X106111Y36352D01*
X106136Y36476D01*
X107480Y37820D01*
X108034Y37267D01*
Y28615D01*
X107964Y28510D01*
X107833Y27854D01*
X107964Y27198D01*
X108335Y26642D01*
X108891Y26271D01*
X109547Y26140D01*
X110203Y26271D01*
X110759Y26642D01*
X111131Y27198D01*
X111261Y27854D01*
X111131Y28510D01*
X111061Y28615D01*
Y33400D01*
X111561Y33608D01*
X112136Y33032D01*
X112065Y32677D01*
X112196Y32021D01*
X112567Y31465D01*
X113124Y31094D01*
X113779Y30963D01*
X114436Y31094D01*
X114991Y31465D01*
X115363Y32021D01*
X115494Y32677D01*
X115363Y33333D01*
X114991Y33889D01*
X114436Y34261D01*
X113779Y34391D01*
X113425Y34321D01*
X112722Y35023D01*
Y42790D01*
X126378D01*
X126727Y42859D01*
X127022Y43056D01*
X135472Y51506D01*
X135827Y51436D01*
X136483Y51566D01*
X137039Y51938D01*
X137410Y52494D01*
X137541Y53150D01*
X137410Y53806D01*
X137039Y54362D01*
X136483Y54733D01*
X135827Y54864D01*
X135171Y54733D01*
X134615Y54362D01*
X134243Y53806D01*
X134113Y53150D01*
X134183Y52795D01*
X126000Y44612D01*
X112722D01*
Y45831D01*
X113023Y46032D01*
X113395Y46588D01*
X113525Y47244D01*
X113395Y47900D01*
X113023Y48456D01*
X112467Y48828D01*
X111811Y48958D01*
X111155Y48828D01*
X110599Y48456D01*
X110228Y47900D01*
X110097Y47244D01*
X110228Y46588D01*
X110599Y46032D01*
X110900Y45831D01*
Y43701D01*
Y39388D01*
X110400Y39181D01*
X108994Y40587D01*
Y50160D01*
X109879Y51046D01*
X115157D01*
X115157Y51046D01*
X115737Y51161D01*
X116228Y51489D01*
X122421Y57682D01*
X122421Y57682D01*
X122749Y58173D01*
X122864Y58752D01*
X122864Y58752D01*
Y62849D01*
X124446Y64432D01*
X135987D01*
X137365Y63054D01*
Y59955D01*
X137336Y59950D01*
X136780Y59578D01*
X136409Y59022D01*
X136278Y58366D01*
X136409Y57710D01*
X136780Y57154D01*
X137336Y56783D01*
X137992Y56652D01*
X138648Y56783D01*
X139204Y57154D01*
X139576Y57710D01*
X139600Y57834D01*
X139948Y58182D01*
X139948Y58182D01*
X140276Y58673D01*
X140391Y59252D01*
X140391Y59252D01*
Y63681D01*
X140276Y64260D01*
X139948Y64751D01*
X139948Y64751D01*
X137684Y67015D01*
X137193Y67343D01*
X136614Y67458D01*
X136614Y67458D01*
X123819D01*
X123240Y67343D01*
X122749Y67015D01*
X122749Y67015D01*
X120280Y64547D01*
X119952Y64056D01*
X119887Y63727D01*
X119846Y63692D01*
X119356Y63525D01*
X118963Y63788D01*
X118307Y63919D01*
X117952Y63848D01*
X113903Y67897D01*
Y69847D01*
X114204Y70048D01*
X114576Y70604D01*
X114706Y71260D01*
X114576Y71916D01*
X114204Y72472D01*
X113648Y72843D01*
X112992Y72974D01*
D02*
G37*
G36*
X207480Y59194D02*
X206824Y59064D01*
X206268Y58692D01*
X205897Y58136D01*
X205766Y57480D01*
X205897Y56824D01*
X206268Y56268D01*
X206569Y56067D01*
Y50232D01*
X206268Y50031D01*
X205897Y49475D01*
X205766Y48819D01*
X205897Y48163D01*
X206268Y47607D01*
X206824Y47235D01*
X207480Y47105D01*
X208136Y47235D01*
X208692Y47607D01*
X209064Y48163D01*
X209194Y48819D01*
X209064Y49475D01*
X208692Y50031D01*
X208391Y50232D01*
Y56067D01*
X208692Y56268D01*
X209064Y56824D01*
X209194Y57480D01*
X209064Y58136D01*
X208692Y58692D01*
X208136Y59064D01*
X207480Y59194D01*
D02*
G37*
G36*
X182087Y58407D02*
X181431Y58276D01*
X180875Y57905D01*
X180503Y57349D01*
X180373Y56693D01*
X180503Y56037D01*
X180875Y55481D01*
X181431Y55109D01*
X182087Y54979D01*
X182441Y55050D01*
X188317Y49174D01*
X188247Y48819D01*
X188377Y48163D01*
X188749Y47607D01*
X189305Y47235D01*
X189961Y47105D01*
X190617Y47235D01*
X191173Y47607D01*
X191544Y48163D01*
X191675Y48819D01*
X191544Y49475D01*
X191173Y50031D01*
X190617Y50402D01*
X189961Y50533D01*
X189606Y50462D01*
X183730Y56338D01*
X183801Y56693D01*
X183670Y57349D01*
X183299Y57905D01*
X182743Y58276D01*
X182087Y58407D01*
D02*
G37*
G36*
X156299Y45021D02*
X155643Y44891D01*
X155087Y44519D01*
X155020Y44419D01*
X136318D01*
X136251Y44519D01*
X135695Y44891D01*
X135039Y45021D01*
X134383Y44891D01*
X133827Y44519D01*
X133456Y43963D01*
X133325Y43307D01*
X133456Y42651D01*
X133827Y42095D01*
X134383Y41723D01*
X135039Y41593D01*
X135695Y41723D01*
X136251Y42095D01*
X136318Y42195D01*
X155020D01*
X155087Y42095D01*
X155643Y41723D01*
X156299Y41593D01*
X156955Y41723D01*
X157511Y42095D01*
X157883Y42651D01*
X158013Y43307D01*
X157883Y43963D01*
X157511Y44519D01*
X156955Y44891D01*
X156299Y45021D01*
D02*
G37*
G36*
X182480Y50639D02*
X181824Y50509D01*
X181268Y50137D01*
X180897Y49581D01*
X180766Y48925D01*
X180897Y48269D01*
X181268Y47713D01*
X181824Y47342D01*
X182480Y47211D01*
X182835Y47282D01*
X185309Y44808D01*
Y44326D01*
X185009Y44125D01*
X184637Y43569D01*
X184506Y42913D01*
X184637Y42257D01*
X185009Y41701D01*
X185564Y41330D01*
X186221Y41199D01*
X186876Y41330D01*
X187433Y41701D01*
X187804Y42257D01*
X187935Y42913D01*
X187804Y43569D01*
X187433Y44125D01*
X187132Y44326D01*
Y45185D01*
X187062Y45534D01*
X186865Y45829D01*
X184124Y48570D01*
X184194Y48925D01*
X184064Y49581D01*
X183692Y50137D01*
X183136Y50509D01*
X182480Y50639D01*
D02*
G37*
G36*
X148819Y38328D02*
X148163Y38198D01*
X147607Y37826D01*
X147235Y37270D01*
X147105Y36614D01*
X147137Y36451D01*
X146727Y35951D01*
X141876D01*
X141527Y35881D01*
X141232Y35684D01*
X140119Y34571D01*
X139764Y34641D01*
X139108Y34511D01*
X138552Y34139D01*
X138180Y33583D01*
X138050Y32927D01*
X138180Y32271D01*
X138552Y31715D01*
X138340Y31255D01*
X138158Y31133D01*
X137786Y30577D01*
X137778Y30535D01*
X137221Y30296D01*
X137135Y30351D01*
X137131Y30362D01*
Y33627D01*
X137432Y33828D01*
X137804Y34384D01*
X137934Y35040D01*
X137804Y35696D01*
X137432Y36252D01*
X136876Y36623D01*
X136220Y36754D01*
X135564Y36623D01*
X135008Y36252D01*
X134637Y35696D01*
X134506Y35040D01*
X134637Y34384D01*
X135008Y33828D01*
X135309Y33627D01*
Y29528D01*
X135378Y29179D01*
X135576Y28883D01*
X137938Y26521D01*
X138234Y26324D01*
X138583Y26254D01*
X144650D01*
X144851Y25953D01*
X145407Y25582D01*
X146063Y25451D01*
X146719Y25582D01*
X147275Y25953D01*
X147646Y26509D01*
X147777Y27165D01*
X147646Y27821D01*
X147275Y28377D01*
X146719Y28749D01*
X146063Y28879D01*
X145407Y28749D01*
X144851Y28377D01*
X144650Y28077D01*
X140535D01*
X140384Y28577D01*
X140582Y28709D01*
X140954Y29265D01*
X141048Y29738D01*
X143863Y32553D01*
X150111D01*
X150460Y32623D01*
X150755Y32820D01*
X151378Y33443D01*
X151969Y33325D01*
X152624Y33456D01*
X153181Y33827D01*
X153552Y34383D01*
X153682Y35039D01*
X153552Y35695D01*
X153181Y36251D01*
X152624Y36623D01*
X151969Y36753D01*
X151313Y36623D01*
X151003Y36416D01*
X150781Y36510D01*
X150517Y36693D01*
X150402Y37270D01*
X150031Y37826D01*
X149475Y38198D01*
X148819Y38328D01*
D02*
G37*
G36*
X421760Y41358D02*
Y28059D01*
X435058D01*
X434927Y29724D01*
X434420Y31835D01*
X433590Y33841D01*
X432455Y35693D01*
X431045Y37344D01*
X429394Y38754D01*
X427542Y39889D01*
X425536Y40720D01*
X423425Y41227D01*
X421760Y41358D01*
D02*
G37*
G36*
X420760D02*
X419095Y41227D01*
X416984Y40720D01*
X414978Y39889D01*
X413126Y38754D01*
X411475Y37344D01*
X410065Y35693D01*
X408930Y33841D01*
X408099Y31835D01*
X407592Y29724D01*
X407461Y28059D01*
X420760D01*
Y41358D01*
D02*
G37*
G36*
X20185Y33484D02*
Y20185D01*
X33484D01*
X33353Y21850D01*
X32846Y23961D01*
X32015Y25967D01*
X30880Y27819D01*
X29470Y29470D01*
X27819Y30880D01*
X25967Y32015D01*
X23961Y32846D01*
X21850Y33353D01*
X20185Y33484D01*
D02*
G37*
G36*
X19185D02*
X17520Y33353D01*
X15409Y32846D01*
X13403Y32015D01*
X11551Y30880D01*
X9900Y29470D01*
X8490Y27819D01*
X7355Y25967D01*
X6524Y23961D01*
X6018Y21850D01*
X5886Y20185D01*
X19185D01*
Y33484D01*
D02*
G37*
G36*
X420760Y27059D02*
X407461D01*
X407592Y25394D01*
X408099Y23283D01*
X408930Y21277D01*
X410065Y19425D01*
X411475Y17774D01*
X413126Y16364D01*
X414978Y15229D01*
X416984Y14398D01*
X419095Y13892D01*
X420760Y13760D01*
Y27059D01*
D02*
G37*
G36*
X175591Y13734D02*
X174704Y13557D01*
X173953Y13055D01*
X173451Y12304D01*
X173274Y11417D01*
X173451Y10531D01*
X173953Y9780D01*
X174704Y9278D01*
X175591Y9101D01*
X176477Y9278D01*
X177228Y9780D01*
X177730Y10531D01*
X177907Y11417D01*
X177730Y12304D01*
X177228Y13055D01*
X176477Y13557D01*
X175591Y13734D01*
D02*
G37*
G36*
X163779D02*
X162893Y13557D01*
X162142Y13055D01*
X161640Y12304D01*
X161463Y11417D01*
X161640Y10531D01*
X162142Y9780D01*
X162893Y9278D01*
X163779Y9101D01*
X164666Y9278D01*
X165417Y9780D01*
X165919Y10531D01*
X166096Y11417D01*
X165919Y12304D01*
X165417Y13055D01*
X164666Y13557D01*
X163779Y13734D01*
D02*
G37*
G36*
X33484Y19185D02*
X20185D01*
Y5886D01*
X21850Y6018D01*
X23961Y6524D01*
X25967Y7355D01*
X27819Y8490D01*
X29470Y9900D01*
X30880Y11551D01*
X32015Y13403D01*
X32846Y15409D01*
X33353Y17520D01*
X33484Y19185D01*
D02*
G37*
G36*
X19185D02*
X5886D01*
X6018Y17520D01*
X6524Y15409D01*
X7355Y13403D01*
X8490Y11551D01*
X9900Y9900D01*
X11551Y8490D01*
X13403Y7355D01*
X15409Y6524D01*
X17520Y6018D01*
X19185Y5886D01*
Y19185D01*
D02*
G37*
%LPD*%
G36*
X129622Y103351D02*
X122851Y96580D01*
X110220D01*
X108761Y98040D01*
X108835Y98301D01*
X108971Y98537D01*
X109554Y98653D01*
X110110Y99024D01*
X110311Y99325D01*
X111654D01*
X112002Y99394D01*
X112298Y99592D01*
X116519Y103813D01*
X129430D01*
X129622Y103351D01*
D02*
G37*
G36*
X133452Y102064D02*
X122457Y91069D01*
X119082D01*
X118815Y91569D01*
X118906Y91706D01*
X119037Y92362D01*
X118906Y93018D01*
X118535Y93574D01*
X117979Y93946D01*
X117323Y94076D01*
X116667Y93946D01*
X116111Y93574D01*
X115910Y93273D01*
X111165D01*
X110180Y94258D01*
X110387Y94758D01*
X123228D01*
X123577Y94827D01*
X123873Y95025D01*
X131374Y102526D01*
X133261D01*
X133452Y102064D01*
D02*
G37*
D12*
X135039Y43307D02*
X156299D01*
D14*
X141876Y35039D02*
X147638D01*
X148819Y36220D01*
X143485Y33465D02*
X150111D01*
X139370Y29349D02*
X143485Y33465D01*
X150111D02*
X151686Y35039D01*
X139764Y32927D02*
X141876Y35039D01*
X178543Y88583D02*
X188583Y78543D01*
Y75197D02*
Y78543D01*
X349482Y93037D02*
X354724Y87795D01*
X295523Y93037D02*
X349482D01*
X245793Y43307D02*
X295523Y93037D01*
X217832Y43307D02*
X245793D01*
X210630Y50509D02*
X217832Y43307D01*
X210630Y50509D02*
Y64173D01*
X201968Y46457D02*
X201969Y46457D01*
Y90158D01*
X203150Y91339D01*
X205906D01*
X208661Y94095D01*
Y98319D01*
X203543Y103437D02*
X208661Y98319D01*
X199891Y103437D02*
X203543D01*
X199285Y104043D02*
X199891Y103437D01*
X197566Y104043D02*
X199285D01*
X196959Y103437D02*
X197566Y104043D01*
X130996Y103437D02*
X196959D01*
X123228Y95669D02*
X130996Y103437D01*
X223410Y105331D02*
X253150Y75590D01*
X197032Y105331D02*
X223410D01*
X116142Y104724D02*
X196426D01*
X197032Y105331D01*
X109843Y95669D02*
X123228D01*
X91339Y114173D02*
X109843Y95669D01*
X87795Y114173D02*
X91339D01*
X87795Y90158D02*
X122835D01*
X104724Y88583D02*
X128740D01*
X205906Y68504D02*
X206299D01*
X210630Y64173D01*
X205118Y108661D02*
X217323D01*
X221260Y112598D01*
X235039D01*
X111654Y100236D02*
X116142Y104724D01*
X108898Y100236D02*
X111654D01*
X134646Y101969D02*
X198425D01*
X122835Y90158D02*
X134646Y101969D01*
X77716Y100236D02*
X87795Y90158D01*
X150428Y92913D02*
X162598D01*
X147673Y90158D02*
X150428Y92913D01*
X45669Y109449D02*
X49606Y113386D01*
X66535D01*
X71260Y108661D01*
X94488D01*
X110787Y92362D01*
X117323D01*
X253150Y62598D02*
X253543Y62205D01*
X253150Y62598D02*
Y75590D01*
X100000Y122047D02*
X112205Y109843D01*
X66535Y122047D02*
X100000D01*
X138583Y27165D02*
X146063D01*
X136220Y29528D02*
X138583Y27165D01*
X139370Y29349D02*
Y29921D01*
X136220Y29528D02*
Y35040D01*
X148819Y36220D02*
Y36614D01*
X151686Y35039D02*
X151969D01*
X174803Y56299D02*
X184252Y65748D01*
X174803Y48425D02*
Y56299D01*
X145276Y18898D02*
X174803Y48425D01*
X115354Y18898D02*
X145276D01*
X113779Y20472D02*
X115354Y18898D01*
X113779Y20472D02*
Y28165D01*
X113961Y28346D01*
X102756Y86614D02*
X104724Y88583D01*
X112992Y67520D02*
Y71260D01*
Y67520D02*
X118307Y62205D01*
X111811Y43701D02*
Y47244D01*
Y34646D02*
Y43701D01*
X126378D01*
X135827Y53150D01*
X182087Y56693D02*
X189961Y48819D01*
X207480D02*
Y57480D01*
X186221Y42913D02*
Y45185D01*
X182480Y48925D02*
X186221Y45185D01*
X111811Y34646D02*
X113779Y32677D01*
D17*
X205906Y88583D02*
X209449D01*
X214173Y83858D01*
Y54331D02*
Y83858D01*
Y54331D02*
X221654Y46850D01*
X244488D01*
X305118Y107480D01*
X367717D01*
D66*
X335630Y97598D02*
D03*
Y87598D02*
D03*
Y77598D02*
D03*
Y67598D02*
D03*
D103*
X107480Y39961D02*
X109547Y37894D01*
Y27854D02*
Y37894D01*
X137992Y58366D02*
X138878Y59252D01*
Y63681D01*
X136614Y65945D02*
X138878Y63681D01*
X123819Y65945D02*
X136614D01*
X121350Y63476D02*
X123819Y65945D01*
X121350Y58752D02*
Y63476D01*
X115157Y52559D02*
X121350Y58752D01*
X109252Y52559D02*
X115157D01*
X107480Y50787D02*
X109252Y52559D01*
X107480Y39961D02*
Y50787D01*
X104528Y37008D02*
X107480Y39961D01*
X102756Y142520D02*
X109055D01*
X121350Y130224D01*
Y129120D02*
Y130224D01*
Y129120D02*
X122912Y127558D01*
X124017D01*
X136221Y115354D01*
X179921Y98032D02*
X185433D01*
X164461Y82571D02*
X179921Y98032D01*
X57480Y72047D02*
X62598Y77165D01*
X118504D01*
X125984Y69685D01*
X144704D01*
X146850Y71831D01*
X327559Y80709D02*
Y86221D01*
X324409Y77559D02*
X327559Y80709D01*
D104*
X66535Y105905D02*
X69685D01*
X64567Y103937D02*
X66535Y105905D01*
X51575Y90157D02*
X51575Y90157D01*
X51575Y90157D02*
X51575D01*
X49016Y87598D02*
X51575Y90157D01*
X47816Y87598D02*
X49016D01*
D105*
X421260Y27559D02*
D03*
X433071Y145669D02*
D03*
X31496Y137795D02*
D03*
X19685Y19685D02*
D03*
D106*
X6890Y68898D02*
D03*
Y96457D02*
D03*
D107*
X17520Y72835D02*
D03*
Y92520D02*
D03*
D108*
X163779Y11417D02*
D03*
X175591D02*
D03*
D109*
X162402Y28740D02*
D03*
X178543Y22638D02*
D03*
X297244Y43740D02*
D03*
X289567Y20669D02*
D03*
X96949Y71358D02*
D03*
X155315Y17717D02*
D03*
X146653Y38976D02*
D03*
X109547Y27854D02*
D03*
X137992Y58366D02*
D03*
X104528Y37008D02*
D03*
X110236Y123228D02*
D03*
X137795Y124817D02*
D03*
X203543D02*
D03*
X175591Y123577D02*
D03*
X12992Y56890D02*
D03*
X48228Y59842D02*
D03*
X72244Y56693D02*
D03*
X96850Y66142D02*
D03*
Y55315D02*
D03*
X124803Y38740D02*
D03*
X44882Y18307D02*
D03*
X188583Y75197D02*
D03*
X178543Y88583D02*
D03*
X372047Y114961D02*
D03*
X102756Y142520D02*
D03*
X136221Y115354D02*
D03*
X22047Y77165D02*
D03*
X201968Y46457D02*
D03*
X87795Y114173D02*
D03*
X129528Y111024D02*
D03*
X183661Y107087D02*
D03*
X238583Y52756D02*
D03*
Y63740D02*
D03*
X227953Y52756D02*
D03*
Y63779D02*
D03*
X249213Y87795D02*
D03*
X242835Y140945D02*
D03*
X279724Y51575D02*
D03*
X205906Y88583D02*
D03*
X367717Y107480D02*
D03*
X205906Y68504D02*
D03*
X354724Y87795D02*
D03*
X205118Y108661D02*
D03*
X235039Y112598D02*
D03*
X185433Y98032D02*
D03*
X164461Y82571D02*
D03*
X198425Y101969D02*
D03*
X77716Y100236D02*
D03*
X57480Y72047D02*
D03*
X146850Y71831D02*
D03*
X162598Y92913D02*
D03*
X147673Y90158D02*
D03*
X45669Y109449D02*
D03*
X117323Y92362D02*
D03*
X253543Y62205D02*
D03*
X108898Y100236D02*
D03*
X112205Y109843D02*
D03*
X66535Y122047D02*
D03*
X146063Y27165D02*
D03*
X139370Y29921D02*
D03*
X139764Y32927D02*
D03*
X136220Y35040D02*
D03*
X148819Y36614D02*
D03*
X151969Y35039D02*
D03*
X184252Y65748D02*
D03*
X113961Y28346D02*
D03*
X128740Y88583D02*
D03*
X102756Y86614D02*
D03*
X112992Y71260D02*
D03*
X118307Y62205D02*
D03*
X135827Y53150D02*
D03*
X189961Y48819D02*
D03*
X182087Y56693D02*
D03*
X156299Y43307D02*
D03*
X135039D02*
D03*
X207480Y57480D02*
D03*
Y48819D02*
D03*
X182480Y48925D02*
D03*
X186221Y42913D02*
D03*
X327559Y86221D02*
D03*
X324409Y77559D02*
D03*
X111811Y47244D02*
D03*
X113779Y32677D02*
D03*
X69685Y105905D02*
D03*
X64567Y103937D02*
D03*
X51575Y90157D02*
D03*
X47816Y87598D02*
D03*
X68071Y87205D02*
D03*
X61181D02*
D03*
X68071Y94095D02*
D03*
X61181D02*
D03*
X125787Y58858D02*
D03*
X127756Y56890D02*
D03*
M02*
