G04*
G04 #@! TF.GenerationSoftware,Altium Limited,Altium Designer,18.1.9 (240)*
G04*
G04 Layer_Color=8421504*
%FSLAX25Y25*%
%MOIN*%
G70*
G01*
G75*
%ADD18R,0.06299X0.03543*%
%ADD19R,0.02756X0.05118*%
%ADD20R,0.03543X0.05118*%
%ADD21O,0.03543X0.00787*%
%ADD22R,0.09646X0.07677*%
%ADD23C,0.05906*%
%ADD24R,0.05906X0.13386*%
%ADD25R,0.03937X0.13780*%
%ADD26C,0.03937*%
%ADD27R,0.05354X0.03386*%
%ADD28R,0.05118X0.02756*%
%ADD29R,0.06102X0.05906*%
%ADD30R,0.05315X0.01772*%
%ADD31R,0.04724X0.02362*%
%ADD32O,0.04724X0.02362*%
%ADD33R,0.02362X0.04724*%
%ADD34R,0.19685X0.19685*%
%ADD35R,0.07874X0.03543*%
%ADD36R,0.03543X0.07874*%
%ADD37R,0.03976X0.01063*%
%ADD38R,0.01063X0.03976*%
%ADD39R,0.12795X0.12795*%
%ADD40R,0.03150X0.03150*%
%ADD41R,0.02362X0.03543*%
%ADD42R,0.05118X0.06102*%
%ADD43R,0.06299X0.06299*%
%ADD44O,0.02362X0.00984*%
%ADD45R,0.02362X0.00984*%
%ADD46R,0.00984X0.02362*%
%ADD47R,0.03150X0.03543*%
%ADD48R,0.00945X0.02362*%
%ADD49R,0.09400X0.06500*%
%ADD50R,0.02165X0.05906*%
%ADD51R,0.03150X0.03150*%
%ADD52R,0.05118X0.03543*%
%ADD53R,0.03543X0.02362*%
%ADD54R,0.04646X0.02402*%
%ADD55R,0.02756X0.05906*%
%ADD56R,0.03937X0.03150*%
%ADD57R,0.03150X0.01181*%
G36*
X63858Y84916D02*
X59325D01*
Y89449D01*
X63858D01*
Y84916D01*
D02*
G37*
G36*
X59328Y90863D02*
Y95398D01*
X63854D01*
Y90863D01*
X59328D01*
D02*
G37*
G36*
X69808Y89444D02*
Y84918D01*
X65272D01*
Y89444D01*
X69808D01*
D02*
G37*
G36*
X65276Y95394D02*
X69803D01*
Y90867D01*
X65276D01*
Y95394D01*
D02*
G37*
G36*
X239700Y52043D02*
X227240D01*
Y64508D01*
X239700D01*
Y52043D01*
D02*
G37*
G36*
X124413Y37012D02*
Y33864D01*
X120467D01*
Y37012D01*
X124413Y37012D01*
D02*
G37*
G36*
X129141Y33858D02*
X125197D01*
Y37015D01*
X129141D01*
Y33858D01*
D02*
G37*
G36*
X124409Y29922D02*
X120472D01*
Y33070D01*
X124409D01*
Y29922D01*
D02*
G37*
G36*
X129138Y29917D02*
X125201D01*
Y33075D01*
X129138D01*
Y29917D01*
D02*
G37*
D18*
X147673Y140551D02*
D03*
Y128347D02*
D03*
X137795Y140551D02*
D03*
Y128347D02*
D03*
X101575Y34055D02*
D03*
Y22638D02*
D03*
X289567Y24213D02*
D03*
Y36417D02*
D03*
X72244Y59842D02*
D03*
Y72047D02*
D03*
X48228Y62992D02*
D03*
Y75197D02*
D03*
D19*
X311221Y77756D02*
D03*
X318701D02*
D03*
X318701Y89567D02*
D03*
X311221D02*
D03*
X107087Y66142D02*
D03*
X99606D02*
D03*
X122228Y82677D02*
D03*
X129709D02*
D03*
X325590Y53740D02*
D03*
X318110D02*
D03*
X274410Y133161D02*
D03*
X266929D02*
D03*
X107087Y44488D02*
D03*
X99606D02*
D03*
Y55315D02*
D03*
X107087D02*
D03*
D20*
X97146Y75590D02*
D03*
X104626D02*
D03*
X151575Y28740D02*
D03*
X159055D02*
D03*
X196850Y151083D02*
D03*
X181890D02*
D03*
X116732D02*
D03*
X131693D02*
D03*
D21*
X132480Y29528D02*
D03*
Y31102D02*
D03*
Y32677D02*
D03*
Y34252D02*
D03*
Y35827D02*
D03*
Y37402D02*
D03*
X117126D02*
D03*
Y35827D02*
D03*
Y34252D02*
D03*
Y32677D02*
D03*
Y31102D02*
D03*
Y29528D02*
D03*
D22*
X124803Y33465D02*
D03*
D23*
X119291Y71653D02*
D03*
X19291Y61417D02*
D03*
X224213Y121063D02*
D03*
X155965Y145276D02*
D03*
D24*
X44882Y9843D02*
D03*
X71260D02*
D03*
D25*
X54134Y32480D02*
D03*
X62008D02*
D03*
D26*
X287795Y81496D02*
D03*
X288583Y89567D02*
D03*
X43807Y82571D02*
D03*
D27*
X12992Y53839D02*
D03*
Y46161D02*
D03*
D28*
X27953Y53347D02*
D03*
Y45866D02*
D03*
X393701Y114961D02*
D03*
Y107480D02*
D03*
X309055Y52756D02*
D03*
Y60236D02*
D03*
X146850Y78937D02*
D03*
Y86417D02*
D03*
X166535Y127362D02*
D03*
Y134843D02*
D03*
X54921Y109646D02*
D03*
Y117126D02*
D03*
X45630Y109646D02*
D03*
Y117126D02*
D03*
X64213Y109646D02*
D03*
Y117126D02*
D03*
X382874Y114961D02*
D03*
Y107480D02*
D03*
X372047Y114961D02*
D03*
Y107480D02*
D03*
X100787Y126969D02*
D03*
Y134449D02*
D03*
D29*
X6890Y70669D02*
D03*
Y94685D02*
D03*
Y78740D02*
D03*
Y86614D02*
D03*
D30*
X17421Y77559D02*
D03*
Y80118D02*
D03*
Y82677D02*
D03*
Y85236D02*
D03*
Y87795D02*
D03*
D31*
X407087Y77598D02*
D03*
Y82598D02*
D03*
X390354Y87598D02*
D03*
Y82598D02*
D03*
Y77598D02*
D03*
D32*
X407087Y87598D02*
D03*
D33*
X403721Y94646D02*
D03*
X393721D02*
D03*
Y70079D02*
D03*
X403721D02*
D03*
D34*
X233465Y58268D02*
D03*
D35*
X262992Y28740D02*
D03*
Y33740D02*
D03*
Y38740D02*
D03*
Y43740D02*
D03*
Y48740D02*
D03*
Y53740D02*
D03*
Y58740D02*
D03*
Y63740D02*
D03*
Y68740D02*
D03*
Y73740D02*
D03*
Y78740D02*
D03*
Y83740D02*
D03*
Y88740D02*
D03*
Y93740D02*
D03*
X196063D02*
D03*
Y88740D02*
D03*
Y83740D02*
D03*
Y78740D02*
D03*
Y73740D02*
D03*
Y68740D02*
D03*
Y63740D02*
D03*
Y58740D02*
D03*
Y53740D02*
D03*
Y48740D02*
D03*
Y43740D02*
D03*
Y38740D02*
D03*
Y33740D02*
D03*
Y28740D02*
D03*
D36*
X252028Y97677D02*
D03*
X247028D02*
D03*
X242028D02*
D03*
X237028D02*
D03*
X232028D02*
D03*
X227028D02*
D03*
X222028D02*
D03*
X217028D02*
D03*
X212028D02*
D03*
X207028D02*
D03*
D37*
X55276Y96063D02*
D03*
Y94095D02*
D03*
Y92126D02*
D03*
Y90158D02*
D03*
Y88189D02*
D03*
Y86221D02*
D03*
Y84252D02*
D03*
X73858D02*
D03*
Y86221D02*
D03*
Y88189D02*
D03*
Y90158D02*
D03*
Y92126D02*
D03*
Y94095D02*
D03*
Y96063D02*
D03*
D38*
X58661Y80866D02*
D03*
X60630D02*
D03*
X62598D02*
D03*
X64567D02*
D03*
X66535D02*
D03*
X68504D02*
D03*
X70473D02*
D03*
Y99449D02*
D03*
X68504D02*
D03*
X66535D02*
D03*
X64567D02*
D03*
X62598D02*
D03*
X60630D02*
D03*
X58661D02*
D03*
D39*
X64567Y90158D02*
D03*
D40*
X289370Y66535D02*
D03*
X295276D02*
D03*
X169488Y108268D02*
D03*
X163583D02*
D03*
X288583Y43740D02*
D03*
X294488D02*
D03*
X249035Y122571D02*
D03*
X243130D02*
D03*
X143898Y38958D02*
D03*
X137992D02*
D03*
D41*
X148622Y20079D02*
D03*
X142717D02*
D03*
D42*
X156693Y67028D02*
D03*
Y98327D02*
D03*
X174409Y67028D02*
D03*
Y98327D02*
D03*
D43*
X126772Y57874D02*
D03*
D44*
X132283Y54921D02*
D03*
D45*
Y56890D02*
D03*
Y58858D02*
D03*
Y60827D02*
D03*
X121260D02*
D03*
Y58858D02*
D03*
Y56890D02*
D03*
Y54921D02*
D03*
D46*
X129724Y63386D02*
D03*
X127756D02*
D03*
X125787D02*
D03*
X123819D02*
D03*
Y52362D02*
D03*
X125787D02*
D03*
X127756D02*
D03*
X129724D02*
D03*
D47*
X119685Y100236D02*
D03*
X127165D02*
D03*
X123425Y92362D02*
D03*
X106102D02*
D03*
X98622D02*
D03*
X102362Y100236D02*
D03*
D48*
X127953Y136024D02*
D03*
X125984D02*
D03*
X124016D02*
D03*
X122047D02*
D03*
X120079D02*
D03*
Y124424D02*
D03*
X122047D02*
D03*
X124016D02*
D03*
X125984D02*
D03*
X127953D02*
D03*
X193701D02*
D03*
X191732D02*
D03*
X189764D02*
D03*
X187795D02*
D03*
X185827D02*
D03*
Y136024D02*
D03*
X187795D02*
D03*
X189764D02*
D03*
X191732D02*
D03*
X193701D02*
D03*
D49*
X124016Y130224D02*
D03*
X189764D02*
D03*
D50*
X285728Y53543D02*
D03*
X298524D02*
D03*
X242835Y133161D02*
D03*
X255630D02*
D03*
D51*
X185827Y118110D02*
D03*
Y112205D02*
D03*
X279724Y36417D02*
D03*
Y30512D02*
D03*
X120079Y118110D02*
D03*
Y112205D02*
D03*
X80709Y65748D02*
D03*
Y59842D02*
D03*
X39764Y75197D02*
D03*
Y69291D02*
D03*
D52*
X212992Y127854D02*
D03*
Y135335D02*
D03*
X203543Y127854D02*
D03*
Y135335D02*
D03*
X175591Y134449D02*
D03*
Y126969D02*
D03*
X110236Y134055D02*
D03*
Y126575D02*
D03*
D53*
X74410Y111614D02*
D03*
Y117520D02*
D03*
X82284Y117520D02*
D03*
Y111614D02*
D03*
D54*
X365059Y86279D02*
D03*
Y79075D02*
D03*
X373130Y82677D02*
D03*
D55*
X172638Y18307D02*
D03*
X160827D02*
D03*
X178543D02*
D03*
D56*
X155315Y7618D02*
D03*
X184055D02*
D03*
X155315Y15216D02*
D03*
X184055D02*
D03*
D57*
X112779Y79724D02*
D03*
Y84842D02*
D03*
M02*
