G04*
G04 #@! TF.GenerationSoftware,Altium Limited,Altium Designer,18.1.9 (240)*
G04*
G04 Layer_Physical_Order=2*
G04 Layer_Color=16711680*
%FSLAX25Y25*%
%MOIN*%
G70*
G01*
G75*
%ADD12C,0.01181*%
%ADD14C,0.00787*%
%ADD17C,0.01000*%
%ADD26C,0.04724*%
%ADD103C,0.01968*%
%ADD104C,0.00600*%
%ADD105C,0.25591*%
%ADD106C,0.07087*%
%ADD107C,0.05543*%
%ADD108C,0.03543*%
%ADD109C,0.02362*%
G36*
X448819Y-23622D02*
X448896Y-25710D01*
X448723Y-29886D01*
X448222Y-34035D01*
X447398Y-38133D01*
X446254Y-42153D01*
X444799Y-46070D01*
X443041Y-49862D01*
X440990Y-53504D01*
X438660Y-56973D01*
X436066Y-60250D01*
X433222Y-63312D01*
X432470Y-64004D01*
X432109Y-63657D01*
X432455Y-63252D01*
X433590Y-61400D01*
X434420Y-59394D01*
X434927Y-57283D01*
X435058Y-55618D01*
X421760D01*
Y-68917D01*
X423425Y-68786D01*
X425536Y-68279D01*
X427542Y-67448D01*
X428139Y-67082D01*
X428425Y-67493D01*
X426858Y-68722D01*
X423378Y-71037D01*
X419727Y-73071D01*
X415928Y-74812D01*
X412003Y-76249D01*
X407978Y-77375D01*
X403877Y-78181D01*
X399726Y-78663D01*
X397638Y-78740D01*
X4412D01*
X3937Y-78265D01*
Y-17241D01*
X4437Y-16994D01*
X4851Y-17311D01*
X5834Y-17719D01*
X6890Y-17858D01*
X7945Y-17719D01*
X8929Y-17311D01*
X9774Y-16663D01*
X10422Y-15819D01*
X10829Y-14835D01*
X10968Y-13780D01*
X10829Y-12724D01*
X10422Y-11740D01*
X9774Y-10896D01*
X8929Y-10248D01*
X7945Y-9840D01*
X6890Y-9701D01*
X5834Y-9840D01*
X4851Y-10248D01*
X4437Y-10565D01*
X3937Y-10318D01*
Y10318D01*
X4437Y10565D01*
X4851Y10248D01*
X5834Y9840D01*
X6890Y9701D01*
X7945Y9840D01*
X8929Y10248D01*
X9774Y10896D01*
X10422Y11740D01*
X10829Y12724D01*
X10968Y13780D01*
X10829Y14835D01*
X10422Y15819D01*
X9774Y16663D01*
X8929Y17311D01*
X7945Y17719D01*
X6890Y17858D01*
X5834Y17719D01*
X4851Y17311D01*
X4437Y16994D01*
X3937Y17241D01*
Y23622D01*
Y25788D01*
X4277Y30106D01*
X4954Y34383D01*
X5965Y38595D01*
X7304Y42714D01*
X8961Y46716D01*
X10928Y50575D01*
X13191Y54268D01*
X15736Y57772D01*
X18427Y60922D01*
X18858Y60657D01*
X18335Y59394D01*
X17829Y57283D01*
X17697Y55618D01*
X30996D01*
Y68917D01*
X29331Y68786D01*
X27784Y68414D01*
X27571Y68877D01*
X28409Y69486D01*
X32103Y71750D01*
X35962Y73716D01*
X39963Y75373D01*
X44082Y76712D01*
X48294Y77723D01*
X52572Y78400D01*
X56889Y78740D01*
X448819D01*
X448819Y-23622D01*
D02*
G37*
%LPC*%
G36*
X433571Y76791D02*
Y63492D01*
X446869D01*
X446738Y65157D01*
X446232Y67268D01*
X445401Y69274D01*
X444266Y71126D01*
X442856Y72777D01*
X441205Y74187D01*
X439353Y75322D01*
X437347Y76153D01*
X435236Y76660D01*
X433571Y76791D01*
D02*
G37*
G36*
X432571D02*
X430906Y76660D01*
X428795Y76153D01*
X426789Y75322D01*
X424937Y74187D01*
X423286Y72777D01*
X421876Y71126D01*
X420741Y69274D01*
X419910Y67268D01*
X419403Y65157D01*
X419272Y63492D01*
X432571D01*
Y76791D01*
D02*
G37*
G36*
X31996Y68917D02*
Y55618D01*
X45295D01*
X45164Y57283D01*
X44657Y59394D01*
X43826Y61400D01*
X42691Y63252D01*
X41281Y64903D01*
X39630Y66313D01*
X37778Y67448D01*
X35772Y68279D01*
X33661Y68786D01*
X31996Y68917D01*
D02*
G37*
G36*
X446869Y62492D02*
X433571D01*
Y49194D01*
X435236Y49325D01*
X437347Y49832D01*
X439353Y50662D01*
X441205Y51797D01*
X442856Y53207D01*
X444266Y54858D01*
X445401Y56710D01*
X446232Y58716D01*
X446738Y60827D01*
X446869Y62492D01*
D02*
G37*
G36*
X432571D02*
X419272D01*
X419403Y60827D01*
X419910Y58716D01*
X420741Y56710D01*
X421876Y54858D01*
X423286Y53207D01*
X424937Y51797D01*
X426789Y50662D01*
X428795Y49832D01*
X430906Y49325D01*
X432571Y49194D01*
Y62492D01*
D02*
G37*
G36*
X45295Y54618D02*
X31996D01*
Y41320D01*
X33661Y41451D01*
X35772Y41958D01*
X37778Y42788D01*
X39630Y43923D01*
X41281Y45333D01*
X42691Y46984D01*
X43826Y48836D01*
X44657Y50842D01*
X45164Y52953D01*
X45295Y54618D01*
D02*
G37*
G36*
X30996D02*
X17697D01*
X17829Y52953D01*
X18335Y50842D01*
X19166Y48836D01*
X20301Y46984D01*
X21711Y45333D01*
X23362Y43923D01*
X25214Y42788D01*
X27220Y41958D01*
X29331Y41451D01*
X30996Y41320D01*
Y54618D01*
D02*
G37*
G36*
X102756Y61557D02*
X102100Y61426D01*
X101544Y61054D01*
X101172Y60498D01*
X101042Y59842D01*
X101172Y59187D01*
X101544Y58631D01*
X102100Y58259D01*
X102756Y58128D01*
X103412Y58259D01*
X103517Y58329D01*
X108428D01*
X119837Y46920D01*
Y46442D01*
X119837Y46442D01*
X119952Y45863D01*
X120280Y45372D01*
X121842Y43811D01*
X121842Y43811D01*
X122333Y43483D01*
X122912Y43368D01*
X123390D01*
X134612Y32145D01*
X134637Y32021D01*
X135009Y31465D01*
X135564Y31094D01*
X136221Y30963D01*
X136876Y31094D01*
X137433Y31465D01*
X137804Y32021D01*
X137935Y32677D01*
X137804Y33333D01*
X137433Y33889D01*
X136876Y34261D01*
X136752Y34285D01*
X125087Y45951D01*
X124596Y46279D01*
X124017Y46394D01*
X124016Y46394D01*
X123539D01*
X122864Y47069D01*
Y47547D01*
X122864Y47547D01*
X122748Y48126D01*
X122421Y48617D01*
X110125Y60913D01*
X109634Y61241D01*
X109055Y61356D01*
X109055Y61356D01*
X103517D01*
X103412Y61426D01*
X102756Y61557D01*
D02*
G37*
G36*
X235039Y31635D02*
X234383Y31505D01*
X233827Y31133D01*
X233626Y30832D01*
X221260D01*
X220911Y30763D01*
X220616Y30566D01*
X216945Y26895D01*
X206531D01*
X206330Y27196D01*
X205774Y27568D01*
X205118Y27698D01*
X204462Y27568D01*
X203906Y27196D01*
X203535Y26640D01*
X203404Y25984D01*
X203535Y25328D01*
X203906Y24772D01*
X204462Y24401D01*
X205118Y24270D01*
X205774Y24401D01*
X206330Y24772D01*
X206531Y25073D01*
X217323D01*
X217671Y25142D01*
X217967Y25340D01*
X221637Y29010D01*
X233626D01*
X233827Y28709D01*
X234383Y28338D01*
X235039Y28207D01*
X235695Y28338D01*
X236251Y28709D01*
X236623Y29265D01*
X236753Y29921D01*
X236623Y30577D01*
X236251Y31133D01*
X235695Y31505D01*
X235039Y31635D01*
D02*
G37*
G36*
X87795Y33210D02*
X87139Y33080D01*
X86583Y32708D01*
X86212Y32152D01*
X86081Y31496D01*
X86212Y30840D01*
X86583Y30284D01*
X87139Y29912D01*
X87795Y29782D01*
X88451Y29912D01*
X89007Y30284D01*
X89208Y30585D01*
X90961D01*
X94151Y27395D01*
X93943Y26895D01*
X71637D01*
X67180Y31353D01*
X66884Y31550D01*
X66535Y31620D01*
X49606D01*
X49258Y31550D01*
X48962Y31353D01*
X46024Y28415D01*
X45669Y28486D01*
X45013Y28355D01*
X44457Y27984D01*
X44086Y27428D01*
X43955Y26772D01*
X44086Y26116D01*
X44457Y25560D01*
X45013Y25188D01*
X45669Y25058D01*
X46325Y25188D01*
X46881Y25560D01*
X47253Y26116D01*
X47383Y26772D01*
X47313Y27127D01*
X49984Y29797D01*
X66158D01*
X70616Y25340D01*
X70911Y25142D01*
X71260Y25073D01*
X94111D01*
X110143Y9041D01*
X110366Y8891D01*
X110351Y8590D01*
X110283Y8392D01*
X88173D01*
X79360Y17204D01*
X79431Y17559D01*
X79300Y18215D01*
X78929Y18771D01*
X78373Y19143D01*
X77716Y19273D01*
X77061Y19143D01*
X76504Y18771D01*
X76133Y18215D01*
X76003Y17559D01*
X76133Y16903D01*
X76504Y16347D01*
X77061Y15976D01*
X77716Y15845D01*
X78071Y15916D01*
X87151Y6836D01*
X87447Y6639D01*
X87795Y6569D01*
X103392D01*
X103599Y6069D01*
X103111Y5581D01*
X102756Y5651D01*
X102100Y5521D01*
X101544Y5149D01*
X101172Y4593D01*
X101042Y3937D01*
X101172Y3281D01*
X101544Y2725D01*
X102100Y2353D01*
X102756Y2223D01*
X103412Y2353D01*
X103968Y2725D01*
X104340Y3281D01*
X104470Y3937D01*
X104399Y4292D01*
X105102Y4994D01*
X127327D01*
X127528Y4693D01*
X128084Y4322D01*
X128740Y4191D01*
X129396Y4322D01*
X129952Y4693D01*
X130324Y5250D01*
X130454Y5906D01*
X130324Y6561D01*
X129952Y7118D01*
X129396Y7489D01*
X128740Y7620D01*
X128084Y7489D01*
X127528Y7118D01*
X127327Y6817D01*
X124167D01*
X123960Y7317D01*
X135023Y18380D01*
X197012D01*
X197213Y18079D01*
X197769Y17708D01*
X198425Y17577D01*
X199081Y17708D01*
X199637Y18079D01*
X200009Y18635D01*
X200139Y19291D01*
X200105Y19462D01*
X200423Y19849D01*
X203166D01*
X207750Y15264D01*
Y11795D01*
X205528Y9573D01*
X203150D01*
X202801Y9503D01*
X202505Y9306D01*
X201324Y8125D01*
X201127Y7829D01*
X201057Y7480D01*
Y-34807D01*
X200756Y-35009D01*
X200384Y-35565D01*
X200254Y-36221D01*
X200384Y-36876D01*
X200756Y-37433D01*
X201312Y-37804D01*
X201968Y-37935D01*
X202624Y-37804D01*
X203180Y-37433D01*
X203552Y-36876D01*
X203682Y-36221D01*
X203552Y-35565D01*
X203180Y-35009D01*
X202880Y-34808D01*
Y7103D01*
X203527Y7750D01*
X204740D01*
X204892Y7250D01*
X204694Y7118D01*
X204322Y6561D01*
X204191Y5906D01*
X204322Y5250D01*
X204694Y4693D01*
X205250Y4322D01*
X205906Y4191D01*
X206561Y4322D01*
X207118Y4693D01*
X207246Y4886D01*
X209027D01*
X213154Y759D01*
Y-28346D01*
X213231Y-28737D01*
X213452Y-29067D01*
X220933Y-36548D01*
X221263Y-36769D01*
X221654Y-36846D01*
X244488D01*
X244878Y-36769D01*
X245209Y-36548D01*
X305540Y23784D01*
X366376D01*
X366505Y23591D01*
X367061Y23220D01*
X367717Y23089D01*
X368373Y23220D01*
X368929Y23591D01*
X369300Y24147D01*
X369431Y24803D01*
X369300Y25459D01*
X368929Y26015D01*
X368373Y26387D01*
X367717Y26517D01*
X367061Y26387D01*
X366505Y26015D01*
X366376Y25823D01*
X305118D01*
X304728Y25745D01*
X304397Y25524D01*
X244066Y-34807D01*
X222076D01*
X215193Y-27924D01*
Y1181D01*
X215115Y1571D01*
X214894Y1902D01*
X210170Y6627D01*
X209839Y6848D01*
X209449Y6925D01*
X207246D01*
X207118Y7118D01*
X206610Y7456D01*
X206548Y7717D01*
X206532Y8005D01*
X206550Y8017D01*
X209306Y10773D01*
X209503Y11069D01*
X209573Y11417D01*
Y15642D01*
X209503Y15990D01*
X209306Y16286D01*
X204349Y21242D01*
X204557Y21742D01*
X223032D01*
X252238Y-7464D01*
Y-19399D01*
X251960Y-19816D01*
X251829Y-20472D01*
X251960Y-21128D01*
X252331Y-21684D01*
X252887Y-22056D01*
X253543Y-22186D01*
X254199Y-22056D01*
X254755Y-21684D01*
X255127Y-21128D01*
X255257Y-20472D01*
X255127Y-19816D01*
X254755Y-19260D01*
X254199Y-18889D01*
X254061Y-18861D01*
Y-7087D01*
X253992Y-6738D01*
X253794Y-6442D01*
X224054Y23298D01*
X223758Y23495D01*
X223410Y23565D01*
X197032D01*
X196684Y23495D01*
X196388Y23298D01*
X196049Y22958D01*
X116142D01*
X115793Y22889D01*
X115497Y22692D01*
X111276Y18470D01*
X110311D01*
X110110Y18771D01*
X109554Y19143D01*
X108898Y19273D01*
X108242Y19143D01*
X107686Y18771D01*
X107314Y18215D01*
X107198Y17632D01*
X106962Y17496D01*
X106701Y17422D01*
X91983Y32140D01*
X91687Y32338D01*
X91339Y32407D01*
X89208D01*
X89007Y32708D01*
X88451Y33080D01*
X87795Y33210D01*
D02*
G37*
G36*
X66535Y41084D02*
X65879Y40954D01*
X65323Y40582D01*
X64952Y40026D01*
X64821Y39370D01*
X64952Y38714D01*
X65323Y38158D01*
X65879Y37786D01*
X66535Y37656D01*
X67191Y37786D01*
X67747Y38158D01*
X67948Y38459D01*
X99623D01*
X110561Y27520D01*
X110491Y27165D01*
X110621Y26509D01*
X110993Y25953D01*
X111549Y25582D01*
X112205Y25451D01*
X112861Y25582D01*
X113417Y25953D01*
X113788Y26509D01*
X113919Y27165D01*
X113788Y27821D01*
X113417Y28377D01*
X112861Y28749D01*
X112205Y28879D01*
X111850Y28809D01*
X100644Y40014D01*
X100349Y40212D01*
X100000Y40281D01*
X67948D01*
X67747Y40582D01*
X67191Y40954D01*
X66535Y41084D01*
D02*
G37*
G36*
X69685Y24942D02*
X69029Y24812D01*
X68473Y24440D01*
X68208Y24044D01*
X66536D01*
X66535Y24044D01*
X66223Y23982D01*
X65959Y23805D01*
X65034Y22881D01*
X64567Y22974D01*
X63911Y22843D01*
X63355Y22472D01*
X62983Y21916D01*
X62853Y21260D01*
X62983Y20604D01*
X63355Y20048D01*
X63911Y19676D01*
X64567Y19546D01*
X65223Y19676D01*
X65779Y20048D01*
X66150Y20604D01*
X66281Y21260D01*
X66188Y21727D01*
X66873Y22413D01*
X68208D01*
X68473Y22016D01*
X69029Y21645D01*
X69685Y21514D01*
X70341Y21645D01*
X70897Y22016D01*
X71269Y22572D01*
X71399Y23228D01*
X71269Y23884D01*
X70897Y24440D01*
X70341Y24812D01*
X69685Y24942D01*
D02*
G37*
G36*
X185433Y17068D02*
X184777Y16938D01*
X184672Y16868D01*
X179921D01*
X179342Y16752D01*
X178851Y16424D01*
X178851Y16424D01*
X163929Y1502D01*
X163805Y1477D01*
X163249Y1106D01*
X162877Y550D01*
X162747Y-106D01*
X162877Y-762D01*
X163249Y-1318D01*
X163805Y-1690D01*
X164461Y-1820D01*
X165117Y-1690D01*
X165673Y-1318D01*
X166044Y-762D01*
X166069Y-638D01*
X180548Y13841D01*
X184672D01*
X184777Y13771D01*
X185433Y13640D01*
X186089Y13771D01*
X186645Y14142D01*
X187017Y14698D01*
X187147Y15354D01*
X187017Y16010D01*
X186645Y16566D01*
X186089Y16938D01*
X185433Y17068D01*
D02*
G37*
G36*
X335630Y17808D02*
X334883Y17710D01*
X334187Y17421D01*
X333589Y16963D01*
X333130Y16365D01*
X332841Y15668D01*
X332743Y14921D01*
X332841Y14174D01*
X333130Y13478D01*
X333589Y12880D01*
X334187Y12421D01*
X334883Y12133D01*
X335630Y12034D01*
X336377Y12133D01*
X337073Y12421D01*
X337671Y12880D01*
X338130Y13478D01*
X338418Y14174D01*
X338517Y14921D01*
X338418Y15668D01*
X338130Y16365D01*
X337671Y16963D01*
X337073Y17421D01*
X336377Y17710D01*
X335630Y17808D01*
D02*
G37*
G36*
X162598Y11950D02*
X161943Y11820D01*
X161386Y11448D01*
X161185Y11147D01*
X150428D01*
X150080Y11078D01*
X149784Y10881D01*
X148027Y9124D01*
X147673Y9194D01*
X147017Y9064D01*
X146461Y8692D01*
X146089Y8136D01*
X145958Y7480D01*
X146089Y6824D01*
X146461Y6268D01*
X147017Y5897D01*
X147673Y5766D01*
X148328Y5897D01*
X148885Y6268D01*
X149256Y6824D01*
X149387Y7480D01*
X149316Y7835D01*
X150806Y9325D01*
X161185D01*
X161386Y9024D01*
X161943Y8653D01*
X162598Y8522D01*
X163254Y8653D01*
X163810Y9024D01*
X164182Y9580D01*
X164313Y10236D01*
X164182Y10892D01*
X163810Y11448D01*
X163254Y11820D01*
X162598Y11950D01*
D02*
G37*
G36*
X17520Y13142D02*
X16666Y13030D01*
X15870Y12700D01*
X15186Y12176D01*
X14662Y11492D01*
X14332Y10697D01*
X14220Y9843D01*
X14332Y8988D01*
X14662Y8193D01*
X15186Y7509D01*
X15870Y6985D01*
X16666Y6655D01*
X17520Y6543D01*
X18374Y6655D01*
X19170Y6985D01*
X19853Y7509D01*
X20378Y8193D01*
X20707Y8988D01*
X20820Y9843D01*
X20707Y10697D01*
X20378Y11492D01*
X19853Y12176D01*
X19170Y12700D01*
X18374Y13030D01*
X17520Y13142D01*
D02*
G37*
G36*
X51575Y9194D02*
X50919Y9064D01*
X50363Y8692D01*
X49991Y8136D01*
X49861Y7480D01*
X49954Y7013D01*
X49070Y6129D01*
X49028Y6133D01*
X48472Y6505D01*
X47816Y6635D01*
X47160Y6505D01*
X46604Y6133D01*
X46232Y5577D01*
X46102Y4921D01*
X46232Y4265D01*
X46604Y3709D01*
X47160Y3338D01*
X47816Y3207D01*
X48472Y3338D01*
X49028Y3709D01*
X49339Y4175D01*
X49593Y4344D01*
X51107Y5859D01*
X51575Y5766D01*
X52231Y5897D01*
X52787Y6268D01*
X53158Y6824D01*
X53289Y7480D01*
X53158Y8136D01*
X52787Y8692D01*
X52231Y9064D01*
X51575Y9194D01*
D02*
G37*
G36*
X336130Y8247D02*
Y5421D01*
X338955D01*
X338906Y5799D01*
X338567Y6617D01*
X338028Y7319D01*
X337326Y7858D01*
X336508Y8197D01*
X336130Y8247D01*
D02*
G37*
G36*
X335130D02*
X334752Y8197D01*
X333934Y7858D01*
X333232Y7319D01*
X332693Y6617D01*
X332354Y5799D01*
X332305Y5421D01*
X335130D01*
Y8247D01*
D02*
G37*
G36*
X349482Y11271D02*
X295523D01*
X295175Y11202D01*
X294879Y11004D01*
X245416Y-38459D01*
X218209D01*
X211541Y-31791D01*
Y-18504D01*
X211472Y-18155D01*
X211274Y-17860D01*
X207614Y-14200D01*
X207620Y-14173D01*
X207489Y-13517D01*
X207118Y-12961D01*
X206561Y-12590D01*
X205906Y-12459D01*
X205250Y-12590D01*
X204694Y-12961D01*
X204322Y-13517D01*
X204191Y-14173D01*
X204322Y-14829D01*
X204694Y-15385D01*
X205250Y-15757D01*
X205906Y-15887D01*
X206561Y-15757D01*
X206581Y-15744D01*
X209719Y-18881D01*
Y-32168D01*
X209788Y-32517D01*
X209986Y-32813D01*
X217187Y-40014D01*
X217483Y-40212D01*
X217832Y-40281D01*
X245793D01*
X246142Y-40212D01*
X246437Y-40014D01*
X295901Y9449D01*
X349105D01*
X353081Y5473D01*
X353010Y5118D01*
X353141Y4462D01*
X353512Y3906D01*
X354068Y3535D01*
X354724Y3404D01*
X355380Y3535D01*
X355936Y3906D01*
X356308Y4462D01*
X356438Y5118D01*
X356308Y5774D01*
X355936Y6330D01*
X355380Y6702D01*
X354724Y6832D01*
X354370Y6762D01*
X350127Y11004D01*
X349831Y11202D01*
X349482Y11271D01*
D02*
G37*
G36*
X338955Y4421D02*
X336130D01*
Y1596D01*
X336508Y1646D01*
X337326Y1984D01*
X338028Y2523D01*
X338567Y3226D01*
X338906Y4044D01*
X338955Y4421D01*
D02*
G37*
G36*
X335130D02*
X332305D01*
X332354Y4044D01*
X332693Y3226D01*
X333232Y2523D01*
X333934Y1984D01*
X334752Y1646D01*
X335130Y1596D01*
Y4421D01*
D02*
G37*
G36*
X327559Y5257D02*
X326903Y5127D01*
X326347Y4755D01*
X325975Y4199D01*
X325845Y3543D01*
X325975Y2887D01*
X326046Y2782D01*
Y-1342D01*
X323878Y-3510D01*
X323753Y-3535D01*
X323197Y-3906D01*
X322826Y-4462D01*
X322695Y-5118D01*
X322826Y-5774D01*
X323197Y-6330D01*
X323753Y-6702D01*
X324409Y-6832D01*
X325065Y-6702D01*
X325621Y-6330D01*
X325993Y-5774D01*
X326018Y-5650D01*
X328629Y-3039D01*
X328629Y-3039D01*
X328957Y-2548D01*
X329072Y-1969D01*
X329072Y-1968D01*
Y2782D01*
X329143Y2887D01*
X329273Y3543D01*
X329143Y4199D01*
X328771Y4755D01*
X328215Y5127D01*
X327559Y5257D01*
D02*
G37*
G36*
X335630Y-2192D02*
X334883Y-2290D01*
X334187Y-2579D01*
X333589Y-3037D01*
X333130Y-3635D01*
X332841Y-4332D01*
X332743Y-5079D01*
X332841Y-5826D01*
X333130Y-6522D01*
X333589Y-7120D01*
X334187Y-7579D01*
X334883Y-7867D01*
X335630Y-7966D01*
X336377Y-7867D01*
X337073Y-7579D01*
X337671Y-7120D01*
X338130Y-6522D01*
X338418Y-5826D01*
X338517Y-5079D01*
X338418Y-4332D01*
X338130Y-3635D01*
X337671Y-3037D01*
X337073Y-2579D01*
X336377Y-2290D01*
X335630Y-2192D01*
D02*
G37*
G36*
X178543Y7620D02*
X177887Y7489D01*
X177331Y7118D01*
X176960Y6561D01*
X176829Y5906D01*
X176960Y5250D01*
X177331Y4693D01*
X177887Y4322D01*
X178543Y4191D01*
X178898Y4262D01*
X187671Y-4511D01*
Y-6067D01*
X187371Y-6268D01*
X186999Y-6824D01*
X186869Y-7480D01*
X186999Y-8136D01*
X187371Y-8692D01*
X187927Y-9064D01*
X188583Y-9194D01*
X189239Y-9064D01*
X189795Y-8692D01*
X190166Y-8136D01*
X190297Y-7480D01*
X190166Y-6824D01*
X189795Y-6268D01*
X189494Y-6067D01*
Y-4134D01*
X189425Y-3785D01*
X189227Y-3490D01*
X180187Y5551D01*
X180257Y5906D01*
X180127Y6561D01*
X179755Y7118D01*
X179199Y7489D01*
X178543Y7620D01*
D02*
G37*
G36*
X17520Y-6543D02*
X16666Y-6655D01*
X15870Y-6985D01*
X15186Y-7509D01*
X14662Y-8193D01*
X14332Y-8988D01*
X14220Y-9843D01*
X14332Y-10697D01*
X14662Y-11492D01*
X15186Y-12176D01*
X15870Y-12700D01*
X16666Y-13030D01*
X17520Y-13142D01*
X18374Y-13030D01*
X19170Y-12700D01*
X19853Y-12176D01*
X20378Y-11492D01*
X20707Y-10697D01*
X20820Y-9843D01*
X20707Y-8988D01*
X20378Y-8193D01*
X19853Y-7509D01*
X19170Y-6985D01*
X18374Y-6655D01*
X17520Y-6543D01*
D02*
G37*
G36*
X118504Y-3999D02*
X118504Y-3999D01*
X62598D01*
X62019Y-4114D01*
X61528Y-4442D01*
X61528Y-4442D01*
X56948Y-9022D01*
X56824Y-9046D01*
X56268Y-9418D01*
X55897Y-9974D01*
X55766Y-10630D01*
X55897Y-11286D01*
X56268Y-11842D01*
X56824Y-12213D01*
X57480Y-12344D01*
X58136Y-12213D01*
X58692Y-11842D01*
X59064Y-11286D01*
X59088Y-11162D01*
X63225Y-7025D01*
X117877D01*
X124914Y-14062D01*
X124914Y-14062D01*
X125405Y-14390D01*
X125984Y-14505D01*
X125984Y-14505D01*
X144704D01*
X144704Y-14505D01*
X145283Y-14390D01*
X145774Y-14062D01*
X147382Y-12454D01*
X147506Y-12429D01*
X148062Y-12058D01*
X148434Y-11502D01*
X148564Y-10846D01*
X148434Y-10190D01*
X148062Y-9634D01*
X147506Y-9262D01*
X146850Y-9132D01*
X146195Y-9262D01*
X145638Y-9634D01*
X145267Y-10190D01*
X145242Y-10314D01*
X144077Y-11479D01*
X126611D01*
X119574Y-4442D01*
X119083Y-4114D01*
X118987Y-4095D01*
X118504Y-3999D01*
D02*
G37*
G36*
X136614Y-15219D02*
X136614Y-15219D01*
X129395D01*
X129395Y-15219D01*
X128816Y-15334D01*
X128325Y-15662D01*
X128325Y-15662D01*
X126461Y-17525D01*
X121512D01*
X121512Y-17525D01*
X120933Y-17641D01*
X120442Y-17969D01*
X120442Y-17969D01*
X120280Y-18131D01*
X119952Y-18622D01*
X119837Y-19201D01*
X119837Y-19201D01*
Y-23298D01*
X114531Y-28605D01*
X109252D01*
X109252Y-28605D01*
X108673Y-28720D01*
X108182Y-29048D01*
X106410Y-30820D01*
X106082Y-31311D01*
X105967Y-31890D01*
X105967Y-31890D01*
Y-42090D01*
X103996Y-44061D01*
X103872Y-44086D01*
X103316Y-44457D01*
X102944Y-45013D01*
X102813Y-45669D01*
X102944Y-46325D01*
X103316Y-46881D01*
X103872Y-47253D01*
X104528Y-47383D01*
X105183Y-47253D01*
X105740Y-46881D01*
X106111Y-46325D01*
X106136Y-46201D01*
X107480Y-44857D01*
X108034Y-45410D01*
Y-54062D01*
X107964Y-54167D01*
X107833Y-54823D01*
X107964Y-55479D01*
X108335Y-56035D01*
X108891Y-56406D01*
X109547Y-56537D01*
X110203Y-56406D01*
X110759Y-56035D01*
X111131Y-55479D01*
X111261Y-54823D01*
X111131Y-54167D01*
X111061Y-54062D01*
Y-49277D01*
X111561Y-49070D01*
X112136Y-49645D01*
X112065Y-50000D01*
X112196Y-50656D01*
X112567Y-51212D01*
X113124Y-51584D01*
X113779Y-51714D01*
X114436Y-51584D01*
X114991Y-51212D01*
X115363Y-50656D01*
X115494Y-50000D01*
X115363Y-49344D01*
X114991Y-48788D01*
X114436Y-48416D01*
X113779Y-48286D01*
X113425Y-48357D01*
X112722Y-47654D01*
Y-39888D01*
X126378D01*
X126727Y-39818D01*
X127022Y-39621D01*
X135472Y-31171D01*
X135827Y-31242D01*
X136483Y-31111D01*
X137039Y-30740D01*
X137410Y-30184D01*
X137541Y-29528D01*
X137410Y-28872D01*
X137039Y-28316D01*
X136483Y-27944D01*
X135827Y-27814D01*
X135171Y-27944D01*
X134615Y-28316D01*
X134243Y-28872D01*
X134113Y-29528D01*
X134183Y-29882D01*
X126000Y-38065D01*
X112722D01*
Y-36846D01*
X113023Y-36645D01*
X113395Y-36089D01*
X113525Y-35433D01*
X113395Y-34777D01*
X113023Y-34221D01*
X112467Y-33849D01*
X111811Y-33719D01*
X111155Y-33849D01*
X110599Y-34221D01*
X110228Y-34777D01*
X110097Y-35433D01*
X110228Y-36089D01*
X110599Y-36645D01*
X110900Y-36846D01*
Y-38976D01*
Y-43289D01*
X110400Y-43496D01*
X108994Y-42090D01*
Y-32517D01*
X109879Y-31631D01*
X115157D01*
X115157Y-31631D01*
X115737Y-31516D01*
X116228Y-31188D01*
X122421Y-24995D01*
X122421Y-24995D01*
X122749Y-24504D01*
X122864Y-23925D01*
X122864Y-23925D01*
Y-20552D01*
X127088D01*
X127088Y-20552D01*
X127667Y-20437D01*
X128158Y-20109D01*
X130022Y-18246D01*
X135987D01*
X137365Y-19623D01*
Y-22722D01*
X137336Y-22727D01*
X136780Y-23099D01*
X136409Y-23655D01*
X136278Y-24311D01*
X136409Y-24967D01*
X136780Y-25523D01*
X137336Y-25895D01*
X137992Y-26025D01*
X138648Y-25895D01*
X139204Y-25523D01*
X139576Y-24967D01*
X139600Y-24843D01*
X139948Y-24495D01*
X140276Y-24004D01*
X140391Y-23425D01*
X140391Y-23425D01*
Y-18996D01*
X140276Y-18417D01*
X139948Y-17926D01*
X139948Y-17926D01*
X137684Y-15662D01*
X137193Y-15334D01*
X137097Y-15315D01*
X136614Y-15219D01*
D02*
G37*
G36*
X112992Y-9703D02*
X112336Y-9834D01*
X111780Y-10205D01*
X111409Y-10761D01*
X111278Y-11417D01*
X111409Y-12073D01*
X111780Y-12629D01*
X112081Y-12830D01*
Y-15157D01*
X112150Y-15506D01*
X112348Y-15802D01*
X113564Y-17018D01*
X113859Y-17215D01*
X114208Y-17285D01*
X114557Y-17215D01*
X114852Y-17018D01*
X114852Y-17018D01*
X115157Y-16713D01*
X118161D01*
X118362Y-17014D01*
X118918Y-17385D01*
X119574Y-17516D01*
X120230Y-17385D01*
X120786Y-17014D01*
X121158Y-16458D01*
X121288Y-15802D01*
X121158Y-15146D01*
X120786Y-14590D01*
X120230Y-14218D01*
X119574Y-14088D01*
X118918Y-14218D01*
X118362Y-14590D01*
X118161Y-14891D01*
X114779D01*
X114431Y-14960D01*
X114290Y-15054D01*
X113903Y-14745D01*
Y-12830D01*
X114204Y-12629D01*
X114576Y-12073D01*
X114706Y-11417D01*
X114576Y-10761D01*
X114204Y-10205D01*
X113648Y-9834D01*
X112992Y-9703D01*
D02*
G37*
G36*
X335630Y-12192D02*
X334883Y-12290D01*
X334187Y-12579D01*
X333589Y-13037D01*
X333130Y-13635D01*
X332841Y-14332D01*
X332743Y-15079D01*
X332841Y-15826D01*
X333130Y-16522D01*
X333589Y-17120D01*
X334187Y-17579D01*
X334883Y-17867D01*
X335630Y-17966D01*
X336377Y-17867D01*
X337073Y-17579D01*
X337671Y-17120D01*
X338130Y-16522D01*
X338418Y-15826D01*
X338517Y-15079D01*
X338418Y-14332D01*
X338130Y-13635D01*
X337671Y-13037D01*
X337073Y-12579D01*
X336377Y-12290D01*
X335630Y-12192D01*
D02*
G37*
G36*
X184252Y-15215D02*
X183596Y-15346D01*
X183040Y-15717D01*
X182668Y-16273D01*
X182538Y-16929D01*
X182608Y-17284D01*
X174159Y-25734D01*
X173961Y-26029D01*
X173892Y-26378D01*
Y-33874D01*
X144898Y-62868D01*
X115732D01*
X114691Y-61827D01*
Y-55865D01*
X115173Y-55543D01*
X115544Y-54987D01*
X115675Y-54331D01*
X115544Y-53675D01*
X115173Y-53119D01*
X114617Y-52747D01*
X113961Y-52617D01*
X113305Y-52747D01*
X112749Y-53119D01*
X112377Y-53675D01*
X112247Y-54331D01*
X112377Y-54987D01*
X112749Y-55543D01*
X112868Y-55623D01*
Y-62205D01*
X112938Y-62553D01*
X113135Y-62849D01*
X114710Y-64424D01*
X115006Y-64621D01*
X115354Y-64691D01*
X145276D01*
X145624Y-64621D01*
X145920Y-64424D01*
X175447Y-34896D01*
X175645Y-34601D01*
X175714Y-34252D01*
Y-26755D01*
X183897Y-18573D01*
X184252Y-18643D01*
X184908Y-18513D01*
X185464Y-18141D01*
X185836Y-17585D01*
X185966Y-16929D01*
X185836Y-16273D01*
X185464Y-15717D01*
X184908Y-15346D01*
X184252Y-15215D01*
D02*
G37*
G36*
X207480Y-23483D02*
X206824Y-23613D01*
X206268Y-23985D01*
X205897Y-24541D01*
X205766Y-25197D01*
X205897Y-25853D01*
X206268Y-26409D01*
X206569Y-26610D01*
Y-32445D01*
X206268Y-32646D01*
X205897Y-33202D01*
X205766Y-33858D01*
X205897Y-34514D01*
X206268Y-35070D01*
X206824Y-35442D01*
X207480Y-35572D01*
X208136Y-35442D01*
X208692Y-35070D01*
X209064Y-34514D01*
X209194Y-33858D01*
X209064Y-33202D01*
X208692Y-32646D01*
X208391Y-32445D01*
Y-26610D01*
X208692Y-26409D01*
X209064Y-25853D01*
X209194Y-25197D01*
X209064Y-24541D01*
X208692Y-23985D01*
X208136Y-23613D01*
X207480Y-23483D01*
D02*
G37*
G36*
X182087Y-24270D02*
X181431Y-24401D01*
X180875Y-24772D01*
X180503Y-25328D01*
X180373Y-25984D01*
X180503Y-26640D01*
X180875Y-27196D01*
X181431Y-27568D01*
X182087Y-27698D01*
X182441Y-27628D01*
X188317Y-33503D01*
X188247Y-33858D01*
X188377Y-34514D01*
X188749Y-35070D01*
X189305Y-35442D01*
X189961Y-35572D01*
X190617Y-35442D01*
X191173Y-35070D01*
X191544Y-34514D01*
X191675Y-33858D01*
X191544Y-33202D01*
X191173Y-32646D01*
X190617Y-32275D01*
X189961Y-32144D01*
X189606Y-32215D01*
X183730Y-26339D01*
X183801Y-25984D01*
X183670Y-25328D01*
X183299Y-24772D01*
X182743Y-24401D01*
X182087Y-24270D01*
D02*
G37*
G36*
X156299Y-37656D02*
X155643Y-37786D01*
X155087Y-38158D01*
X155020Y-38258D01*
X136318D01*
X136251Y-38158D01*
X135695Y-37786D01*
X135039Y-37656D01*
X134383Y-37786D01*
X133827Y-38158D01*
X133456Y-38714D01*
X133325Y-39370D01*
X133456Y-40026D01*
X133827Y-40582D01*
X134383Y-40954D01*
X135039Y-41084D01*
X135695Y-40954D01*
X136251Y-40582D01*
X136318Y-40482D01*
X155020D01*
X155087Y-40582D01*
X155643Y-40954D01*
X156299Y-41084D01*
X156955Y-40954D01*
X157511Y-40582D01*
X157883Y-40026D01*
X158013Y-39370D01*
X157883Y-38714D01*
X157511Y-38158D01*
X156955Y-37786D01*
X156299Y-37656D01*
D02*
G37*
G36*
X182480Y-32038D02*
X181824Y-32168D01*
X181268Y-32540D01*
X180897Y-33096D01*
X180766Y-33752D01*
X180897Y-34408D01*
X181268Y-34964D01*
X181824Y-35335D01*
X182480Y-35466D01*
X182835Y-35395D01*
X185309Y-37870D01*
Y-38351D01*
X185009Y-38552D01*
X184637Y-39108D01*
X184506Y-39764D01*
X184637Y-40420D01*
X185009Y-40976D01*
X185564Y-41347D01*
X186221Y-41478D01*
X186876Y-41347D01*
X187433Y-40976D01*
X187804Y-40420D01*
X187935Y-39764D01*
X187804Y-39108D01*
X187433Y-38552D01*
X187132Y-38351D01*
Y-37492D01*
X187062Y-37143D01*
X186865Y-36848D01*
X184124Y-34107D01*
X184194Y-33752D01*
X184064Y-33096D01*
X183692Y-32540D01*
X183136Y-32168D01*
X182480Y-32038D01*
D02*
G37*
G36*
X148819Y-44349D02*
X148163Y-44479D01*
X147607Y-44851D01*
X147235Y-45407D01*
X147105Y-46063D01*
X147137Y-46227D01*
X146727Y-46727D01*
X141876D01*
X141527Y-46796D01*
X141232Y-46993D01*
X140119Y-48107D01*
X139764Y-48036D01*
X139108Y-48166D01*
X138552Y-48538D01*
X138180Y-49094D01*
X138050Y-49750D01*
X138180Y-50406D01*
X138552Y-50962D01*
X138340Y-51422D01*
X138158Y-51544D01*
X137786Y-52100D01*
X137778Y-52142D01*
X137221Y-52381D01*
X137135Y-52326D01*
X137131Y-52315D01*
Y-49051D01*
X137432Y-48849D01*
X137804Y-48294D01*
X137934Y-47638D01*
X137804Y-46982D01*
X137432Y-46426D01*
X136876Y-46054D01*
X136220Y-45924D01*
X135564Y-46054D01*
X135008Y-46426D01*
X134637Y-46982D01*
X134506Y-47638D01*
X134637Y-48294D01*
X135008Y-48849D01*
X135309Y-49051D01*
Y-53149D01*
X135378Y-53498D01*
X135576Y-53794D01*
X137938Y-56156D01*
X138234Y-56354D01*
X138583Y-56423D01*
X144650D01*
X144851Y-56724D01*
X145407Y-57095D01*
X146063Y-57226D01*
X146719Y-57095D01*
X147275Y-56724D01*
X147646Y-56168D01*
X147777Y-55512D01*
X147646Y-54856D01*
X147275Y-54300D01*
X146719Y-53928D01*
X146063Y-53798D01*
X145407Y-53928D01*
X144851Y-54300D01*
X144650Y-54601D01*
X140535D01*
X140384Y-54101D01*
X140582Y-53968D01*
X140954Y-53412D01*
X141048Y-52939D01*
X143863Y-50124D01*
X150111D01*
X150460Y-50055D01*
X150755Y-49857D01*
X151378Y-49234D01*
X151969Y-49352D01*
X152624Y-49221D01*
X153181Y-48850D01*
X153552Y-48294D01*
X153682Y-47638D01*
X153552Y-46982D01*
X153181Y-46426D01*
X152624Y-46054D01*
X151969Y-45924D01*
X151313Y-46054D01*
X151003Y-46261D01*
X150781Y-46167D01*
X150517Y-45984D01*
X150402Y-45407D01*
X150031Y-44851D01*
X149475Y-44479D01*
X148819Y-44349D01*
D02*
G37*
G36*
X421760Y-41320D02*
Y-54618D01*
X435058D01*
X434927Y-52953D01*
X434420Y-50842D01*
X433590Y-48836D01*
X432455Y-46984D01*
X431045Y-45333D01*
X429394Y-43923D01*
X427542Y-42788D01*
X425536Y-41958D01*
X423425Y-41451D01*
X421760Y-41320D01*
D02*
G37*
G36*
X420760D02*
X419095Y-41451D01*
X416984Y-41958D01*
X414978Y-42788D01*
X413126Y-43923D01*
X411475Y-45333D01*
X410065Y-46984D01*
X408930Y-48836D01*
X408099Y-50842D01*
X407592Y-52953D01*
X407461Y-54618D01*
X420760D01*
Y-41320D01*
D02*
G37*
G36*
X20185Y-49194D02*
Y-62492D01*
X33484D01*
X33353Y-60827D01*
X32846Y-58716D01*
X32015Y-56710D01*
X30880Y-54858D01*
X29470Y-53207D01*
X27819Y-51797D01*
X25967Y-50662D01*
X23961Y-49832D01*
X21850Y-49325D01*
X20185Y-49194D01*
D02*
G37*
G36*
X19185D02*
X17520Y-49325D01*
X15409Y-49832D01*
X13403Y-50662D01*
X11551Y-51797D01*
X9900Y-53207D01*
X8490Y-54858D01*
X7355Y-56710D01*
X6524Y-58716D01*
X6018Y-60827D01*
X5886Y-62492D01*
X19185D01*
Y-49194D01*
D02*
G37*
G36*
X420760Y-55618D02*
X407461D01*
X407592Y-57283D01*
X408099Y-59394D01*
X408930Y-61400D01*
X410065Y-63252D01*
X411475Y-64903D01*
X413126Y-66313D01*
X414978Y-67448D01*
X416984Y-68279D01*
X419095Y-68786D01*
X420760Y-68917D01*
Y-55618D01*
D02*
G37*
G36*
X175591Y-68944D02*
X174704Y-69120D01*
X173953Y-69622D01*
X173451Y-70373D01*
X173274Y-71260D01*
X173451Y-72146D01*
X173953Y-72898D01*
X174704Y-73400D01*
X175591Y-73576D01*
X176477Y-73400D01*
X177228Y-72898D01*
X177730Y-72146D01*
X177907Y-71260D01*
X177730Y-70373D01*
X177228Y-69622D01*
X176477Y-69120D01*
X175591Y-68944D01*
D02*
G37*
G36*
X163779D02*
X162893Y-69120D01*
X162142Y-69622D01*
X161640Y-70373D01*
X161463Y-71260D01*
X161640Y-72146D01*
X162142Y-72898D01*
X162893Y-73400D01*
X163779Y-73576D01*
X164666Y-73400D01*
X165417Y-72898D01*
X165919Y-72146D01*
X166096Y-71260D01*
X165919Y-70373D01*
X165417Y-69622D01*
X164666Y-69120D01*
X163779Y-68944D01*
D02*
G37*
G36*
X33484Y-63492D02*
X20185D01*
Y-76791D01*
X21850Y-76660D01*
X23961Y-76153D01*
X25967Y-75322D01*
X27819Y-74187D01*
X29470Y-72777D01*
X30880Y-71126D01*
X32015Y-69274D01*
X32846Y-67268D01*
X33353Y-65157D01*
X33484Y-63492D01*
D02*
G37*
G36*
X19185D02*
X5886D01*
X6018Y-65157D01*
X6524Y-67268D01*
X7355Y-69274D01*
X8490Y-71126D01*
X9900Y-72777D01*
X11551Y-74187D01*
X13403Y-75322D01*
X15409Y-76153D01*
X17520Y-76660D01*
X19185Y-76791D01*
Y-63492D01*
D02*
G37*
%LPD*%
G36*
X129622Y20674D02*
X122851Y13903D01*
X110220D01*
X108761Y15362D01*
X108835Y15624D01*
X108971Y15860D01*
X109554Y15976D01*
X110110Y16347D01*
X110311Y16648D01*
X111654D01*
X112002Y16717D01*
X112298Y16915D01*
X116519Y21136D01*
X129430D01*
X129622Y20674D01*
D02*
G37*
G36*
X133452Y19387D02*
X122457Y8392D01*
X119082D01*
X118815Y8891D01*
X118906Y9029D01*
X119037Y9685D01*
X118906Y10341D01*
X118535Y10897D01*
X117979Y11269D01*
X117323Y11399D01*
X116667Y11269D01*
X116111Y10897D01*
X115910Y10596D01*
X111165D01*
X110180Y11581D01*
X110387Y12081D01*
X123228D01*
X123577Y12150D01*
X123873Y12348D01*
X131374Y19849D01*
X133261D01*
X133452Y19387D01*
D02*
G37*
D12*
X135039Y-39370D02*
X156299D01*
D14*
X114779Y-15802D02*
X119574D01*
X114208Y-16373D02*
X114779Y-15802D01*
X112992Y-15157D02*
X114208Y-16373D01*
X141876Y-47638D02*
X147638D01*
X148819Y-46457D01*
X143485Y-49213D02*
X150111D01*
X139370Y-53328D02*
X143485Y-49213D01*
X150111D02*
X151686Y-47638D01*
X139764Y-49750D02*
X141876Y-47638D01*
X178543Y5906D02*
X188583Y-4134D01*
Y-7480D02*
Y-4134D01*
X349482Y10360D02*
X354724Y5118D01*
X295523Y10360D02*
X349482D01*
X245793Y-39370D02*
X295523Y10360D01*
X217832Y-39370D02*
X245793D01*
X210630Y-32168D02*
X217832Y-39370D01*
X210630Y-32168D02*
Y-18504D01*
X201968Y-36221D02*
X201969Y-36220D01*
Y7480D01*
X203150Y8661D01*
X205906D01*
X208661Y11417D01*
Y15642D01*
X203543Y20760D02*
X208661Y15642D01*
X199891Y20760D02*
X203543D01*
X199285Y21366D02*
X199891Y20760D01*
X197566Y21366D02*
X199285D01*
X196959Y20760D02*
X197566Y21366D01*
X130996Y20760D02*
X196959D01*
X123228Y12992D02*
X130996Y20760D01*
X223410Y22654D02*
X253150Y-7087D01*
X197032Y22654D02*
X223410D01*
X116142Y22047D02*
X196426D01*
X197032Y22654D01*
X109843Y12992D02*
X123228D01*
X91339Y31496D02*
X109843Y12992D01*
X87795Y31496D02*
X91339D01*
X87795Y7480D02*
X122835D01*
X104724Y5906D02*
X128740D01*
X205906Y-14173D02*
X206299D01*
X210630Y-18504D01*
X205118Y25984D02*
X217323D01*
X221260Y29921D01*
X235039D01*
X111654Y17559D02*
X116142Y22047D01*
X108898Y17559D02*
X111654D01*
X134646Y19291D02*
X198425D01*
X122835Y7480D02*
X134646Y19291D01*
X77716Y17559D02*
X87795Y7480D01*
X150428Y10236D02*
X162598D01*
X147673Y7480D02*
X150428Y10236D01*
X45669Y26772D02*
X49606Y30709D01*
X66535D01*
X71260Y25984D01*
X94488D01*
X110787Y9685D01*
X117323D01*
X253150Y-20079D02*
X253543Y-20472D01*
X253150Y-20079D02*
Y-7087D01*
X100000Y39370D02*
X112205Y27165D01*
X66535Y39370D02*
X100000D01*
X138583Y-55512D02*
X146063D01*
X136220Y-53149D02*
X138583Y-55512D01*
X139370Y-53328D02*
Y-52756D01*
X136220Y-53149D02*
Y-47638D01*
X148819Y-46457D02*
Y-46063D01*
X151686Y-47638D02*
X151969D01*
X174803Y-26378D02*
X184252Y-16929D01*
X174803Y-34252D02*
Y-26378D01*
X145276Y-63779D02*
X174803Y-34252D01*
X115354Y-63779D02*
X145276D01*
X113779Y-62205D02*
X115354Y-63779D01*
X113779Y-62205D02*
Y-54512D01*
X113961Y-54331D01*
X102756Y3937D02*
X104724Y5906D01*
X112992Y-15157D02*
Y-11417D01*
X111811Y-38976D02*
Y-35433D01*
Y-48031D02*
Y-38976D01*
X126378D01*
X135827Y-29528D01*
X182087Y-25984D02*
X189961Y-33858D01*
X207480D02*
Y-25197D01*
X186221Y-39764D02*
Y-37492D01*
X182480Y-33752D02*
X186221Y-37492D01*
X111811Y-48031D02*
X113779Y-50000D01*
D17*
X205906Y5906D02*
X209449D01*
X214173Y1181D01*
Y-28346D02*
Y1181D01*
Y-28346D02*
X221654Y-35827D01*
X244488D01*
X305118Y24803D01*
X367717D01*
D26*
X335630Y14921D02*
D03*
Y4921D02*
D03*
Y-5079D02*
D03*
Y-15079D02*
D03*
D103*
X127088Y-19039D02*
X129395Y-16732D01*
X136614D01*
X121512Y-19039D02*
X127088D01*
X121350Y-19201D02*
X121512Y-19039D01*
X125984Y-12992D02*
X144704D01*
X118504Y-5512D02*
X125984Y-12992D01*
X62598Y-5512D02*
X118504D01*
X121350Y-23925D02*
Y-19201D01*
X115157Y-30118D02*
X121350Y-23925D01*
X144704Y-12992D02*
X146850Y-10846D01*
X107480Y-42717D02*
X109547Y-44783D01*
Y-54823D02*
Y-44783D01*
X137992Y-24311D02*
X138878Y-23425D01*
Y-18996D01*
X136614Y-16732D02*
X138878Y-18996D01*
X109252Y-30118D02*
X115157D01*
X107480Y-31890D02*
X109252Y-30118D01*
X107480Y-42717D02*
Y-31890D01*
X104528Y-45669D02*
X107480Y-42717D01*
X102756Y59842D02*
X109055D01*
X121350Y47547D01*
Y46442D02*
Y47547D01*
Y46442D02*
X122912Y44881D01*
X124017D01*
X136221Y32677D01*
X179921Y15354D02*
X185433D01*
X164461Y-106D02*
X179921Y15354D01*
X57480Y-10630D02*
X62598Y-5512D01*
X327559Y-1969D02*
Y3543D01*
X324409Y-5118D02*
X327559Y-1969D01*
D104*
X66535Y23228D02*
X69685D01*
X64567Y21260D02*
X66535Y23228D01*
X51575Y7480D02*
X51575Y7480D01*
X51575Y7480D02*
X51575D01*
X49016Y4921D02*
X51575Y7480D01*
X47816Y4921D02*
X49016D01*
D105*
X421260Y-55118D02*
D03*
X433071Y62992D02*
D03*
X31496Y55118D02*
D03*
X19685Y-62992D02*
D03*
D106*
X6890Y-13780D02*
D03*
Y13780D02*
D03*
D107*
X17520Y-9843D02*
D03*
Y9843D02*
D03*
D108*
X163779Y-71260D02*
D03*
X175591D02*
D03*
D109*
X119574Y-15802D02*
D03*
X151575Y-29921D02*
D03*
X162402Y-53937D02*
D03*
X178543Y-60039D02*
D03*
X297244Y-38937D02*
D03*
X289567Y-62008D02*
D03*
X96949Y-11319D02*
D03*
X155315Y-64961D02*
D03*
X146653Y-43701D02*
D03*
X109547Y-54823D02*
D03*
X137992Y-24311D02*
D03*
X104528Y-45669D02*
D03*
X110236Y40551D02*
D03*
X137795Y42140D02*
D03*
X203543D02*
D03*
X175591Y40900D02*
D03*
X12992Y-25787D02*
D03*
X48228Y-22835D02*
D03*
X72244Y-25984D02*
D03*
X96850Y-16535D02*
D03*
Y-27362D02*
D03*
X124803Y-43937D02*
D03*
X44882Y-64370D02*
D03*
X188583Y-7480D02*
D03*
X178543Y5906D02*
D03*
X372047Y32283D02*
D03*
X102756Y59842D02*
D03*
X136221Y32677D02*
D03*
X22047Y-5512D02*
D03*
X201968Y-36221D02*
D03*
X87795Y31496D02*
D03*
X129528Y28346D02*
D03*
X183661Y24409D02*
D03*
X238583Y-29921D02*
D03*
Y-18937D02*
D03*
X227953Y-29921D02*
D03*
Y-18898D02*
D03*
X249213Y5118D02*
D03*
X242835Y58268D02*
D03*
X279724Y-31102D02*
D03*
X205906Y5906D02*
D03*
X367717Y24803D02*
D03*
X205906Y-14173D02*
D03*
X354724Y5118D02*
D03*
X205118Y25984D02*
D03*
X235039Y29921D02*
D03*
X185433Y15354D02*
D03*
X164461Y-106D02*
D03*
X198425Y19291D02*
D03*
X77716Y17559D02*
D03*
X57480Y-10630D02*
D03*
X146850Y-10846D02*
D03*
X162598Y10236D02*
D03*
X147673Y7480D02*
D03*
X45669Y26772D02*
D03*
X117323Y9685D02*
D03*
X253543Y-20472D02*
D03*
X108898Y17559D02*
D03*
X112205Y27165D02*
D03*
X66535Y39370D02*
D03*
X146063Y-55512D02*
D03*
X139370Y-52756D02*
D03*
X139764Y-49750D02*
D03*
X136220Y-47638D02*
D03*
X148819Y-46063D02*
D03*
X151969Y-47638D02*
D03*
X184252Y-16929D02*
D03*
X113961Y-54331D02*
D03*
X128740Y5906D02*
D03*
X102756Y3937D02*
D03*
X112992Y-11417D02*
D03*
X135827Y-29528D02*
D03*
X189961Y-33858D02*
D03*
X182087Y-25984D02*
D03*
X156299Y-39370D02*
D03*
X135039D02*
D03*
X207480Y-25197D02*
D03*
Y-33858D02*
D03*
X182480Y-33752D02*
D03*
X186221Y-39764D02*
D03*
X327559Y3543D02*
D03*
X324409Y-5118D02*
D03*
X111811Y-35433D02*
D03*
X113779Y-50000D02*
D03*
X69685Y23228D02*
D03*
X64567Y21260D02*
D03*
X51575Y7480D02*
D03*
X47816Y4921D02*
D03*
X68071Y4528D02*
D03*
X61181D02*
D03*
X68071Y11417D02*
D03*
X61181D02*
D03*
X125787Y-23819D02*
D03*
X127756Y-25787D02*
D03*
M02*
