M48
;Layer_Color=9474304
;FILE_FORMAT=2:5
INCH,LZ
;TYPE=PLATED
T1F00S00C0.01181
T3F00S00C0.12598
;TYPE=NON_PLATED
T4F00S00C0.02559
T6F00S00C0.03543
T7F00S00C0.09409
T8F00S00C0.13583
%
T01
X0038386Y-0136811
X0045276Y-0141732
X0048406Y-0124616
X0052342
Y-0120679
X0048406
X0040354Y-0124223
X0038386Y-0117126
X0041339Y-0104331
X0048799Y-0100394
X0048031Y-0094488
X0048268Y-0088583
X0047244Y-0082677
X0048228Y-0077756
X0043307Y-0073819
X0042244Y-0060059
X003248Y-0059606
X0035669Y-0045276
X0036417Y-0041673
X0046811Y-004374
X0053701
Y-005063
X0046811
X0063976Y-0047244
X0066535Y-0059606
X0083661Y-0056102
X0093898Y-0064961
X009252Y-0080709
X0102362Y-0102362
X0106299Y-0106528
X0101378Y-0113681
X0097441Y-0130905
X0105118Y-0138779
X0125Y-0143701
X0074803Y-015145
X0067913Y-0124872
X0062992Y-012101
X0057087Y-013189
X0051949Y-0110827
X0030493Y-0097105
X0025885Y-0094488
X002874Y-009035
X0036417Y-0090551
X0036649Y-0087367
X0036417Y-0082677
X0027559Y-0079724
X0029528Y-0076771
X0018701Y-0079724
X0021654Y-0087598
X0018701Y-0115157
X0025591Y-0121699
X0072097Y-0095768
X0061614Y-0083661
X0073819Y-0037402
X0107283Y-0059055
X0125197Y-0031496
X0135827Y-0077756
X0138779Y-009252
X0143701Y-0091398
X0016732Y-0054134
X0017717Y-0045512
X0152756Y-0044291
X0170669Y-0040512
X0179134Y-0031496
X018187Y-0027362
X0193941Y-0022244
X0199164Y-0048288
X0208661Y-0051772
X021063Y-004626
X0206417Y-0042323
X0222342Y-0039272
X0218228Y-0050472
Y-0060512
X0222461Y-0062992
X0231575Y-0059055
X0237905Y-0052165
X0245079Y-0062008
X0242126Y-0070473
X0255313Y-0072406
X0255906Y-0054134
X0257028Y-0027559
X0276575Y-0031496
X0275728Y-0105177
X0271654Y-0103484
X0258484Y-0106408
X0250984Y-0110834
X0246063Y-0096898
X0253937Y-0091819
X0236663
X0232283Y-0095768
X0227067Y-0093937
X0223917Y-0093508
X0218504Y-009941
X0210039Y-0098819
X0207677Y-0106299
X019685Y-0110337
X0188976Y-0105315
X0180236Y-0106299
X0170669
Y-0099803
Y-0086614
X0172638Y-0088583
X0180236Y-009252
X018187Y-0075512
X0183071Y-0065512
Y-0059055
X0191929Y-0057087
X0180236Y-00495
X0176181Y-0052894
X0166142Y-0076181
X0160433Y-0106299
X0156102Y-0109055
X0147638Y-0111221
X0189961Y-0118012
X0215551Y-0116142
X0227067Y-0116831
X0230217
X0232903Y-0113118
X0236221Y-0104331
X0227264Y-0104035
X0225295Y-0107972
X0236516Y-0082677
X0231299Y-0075787
X0212598Y-0083659
X0204724Y-0082677
X0195866Y-0084705
X0198819Y-0095768
X0211614Y-0137795
X0250984Y-0135827
X0262795Y-0149606
X0273622Y-0129921
X0286811Y-0113681
X0320866Y-0124872
X0334358Y-0133161
X0343504Y-0088583
X0354331Y-009252
X036189Y-0087913
X0374606Y-0091614
X0383858Y-0084646
X0382874Y-0066929
X0374606Y-0055709
X0356241Y-0052894
X0354331Y-0062992
X0344488Y-0067913
X0344716Y-005633
X0340551Y-0048228
X0343504Y-0030512
X0322835Y-0044291
X031074Y-0062008
X0315945Y-0073819
X0319882Y-0086614
X0393701Y-0096898
X0406496Y-0061024
X0436024Y-0089563
X0199803Y-0017717
X0145866Y-001437
X013189Y-0017717
X0049213Y-0009843
T03
X0019685Y-0145669
X0027559Y-0027559
X042126Y-0133858
X0433071Y-0019685
T04
X0037205Y-0070473
T06
X0295276Y-0121073
X0307087
T07
X0129626Y-0116142
T08
X0162402Y-005315
X0379724Y-0116142
M30
